<svg xmlns="http://www.w3.org/2000/svg" viewBox="0 0 512 295.607">
    <path fill="rgba(170,129,105,0.2)"
        d="m158.257 198.592-65.399 37.759 4.887 2.82v5.644l65.4-37.759-4.889-2.821zm4.888-110.042-65.4-37.758v5.642l-4.885 2.823 65.399 37.759V91.37zm190.599 8.465 65.399-37.759-4.887-2.821v-5.643l-65.4 37.758 4.889 2.822zm-4.887 110.042 65.399 37.758v-5.642l4.886-2.823-65.4-37.759v5.644zM251.113 37.761V.002h9.776v37.759L256 34.938zm256 72.285 4.887 2.82v69.874l-4.888 2.822v-37.758zm-502.224 0-4.888 2.82v69.874l4.888 2.822v-37.758zm246.224 147.8v37.758h9.776v-37.758l-4.887 2.82zM0 204.256v20.216c4.995 8.651 11.963 14.19 7.968 26.503 10.093-7.416 19.096-7.238 22.984-2.38-2.884.945-5.88 2.264-9.04 4.089-20.124 11.618-22.03 34.093-19.055 35.193 2.977 1.1 9.914-16.78 24.744-25.342 12.892-7.443 23.235-2.008 34.004-2.498-4.995 8.652-6.307 17.455-18.969 20.152 9.412 4.13 14.02 10.177 14.122 15.418h10.89c-.395-4.895-2.705-9.264-6.572-13.14 7.04-3.913 6.643-14.38 18.036-32.536-13.435.598-23.979-3.385-35.311-3.366-6.38-10.275-14.928-13.012-24.639-10.422.13-8.053-9.136-12.943-19.162-31.887Zm28.136 83.274c-11.692-.202-20.367 4.63-20.016 6.683.123.709 1.227 1.103 2.979 1.394h40.915a51.4 51.4 0 0 0-3.885-2.489c-6.918-3.994-13.869-5.481-19.993-5.588zm483.863-83.274c-6.2 11.934-14.922 19.073-20.572 28.896-12.088.388-18.73 6.422-21.342 16.127-6.91-4.14-15.776 1.441-37.195.652 7.235 11.336 9.057 22.458 14.74 32.263-2.601 4.857-3.606 9.318-3.275 13.413h10.886a8.555 8.555 0 0 1 .57-3.3 45.358 45.358 0 0 0 4.184 3.3h40.924c-5.966-.996-19.88-.743-31.359-7.37-12.892-7.443-13.357-19.119-19.166-28.2 9.99 0 18.27-3.262 26.937 6.355-1.377-12.45 3.281-20.16 9.431-21.097-.623 2.97-.98 6.225-.98 9.874 0 23.237 18.513 36.127 20.954 34.099 2.44-2.028-9.575-16.974-9.575-34.099 0-14.886 9.878-21.127 14.838-30.697zm-255.996-147.8c-6.2 11.934-14.922 19.073-20.572 28.896-12.09.387-18.734 6.421-21.346 16.127-6.909-4.14-15.775 1.438-37.195.649 7.236 11.336 9.058 22.458 14.74 32.263-5.709 10.662-3.803 19.433 3.296 26.548-7.04 3.913-6.643 14.384-18.036 32.54 13.435-.599 23.98 3.384 35.312 3.366 6.38 10.275 14.927 13.009 24.638 10.418-.13 8.053 9.133 12.943 19.16 31.887 6.199-11.933 14.921-19.072 20.571-28.896 12.089-.387 18.73-6.421 21.343-16.126 6.909 4.139 15.778-1.439 37.198-.65-7.236-11.335-9.06-22.457-14.743-32.262 5.709-10.663 3.806-19.433-3.293-26.548 7.04-3.914 6.643-14.385 18.036-32.54-13.435.598-23.98-3.382-35.312-3.363-6.38-10.275-14.927-13.012-24.638-10.422.13-8.053-9.133-12.943-19.16-31.887zm0 20.212c4.995 8.652 11.96 14.19 7.964 26.504 10.093-7.417 19.097-7.238 22.984-2.38-2.883.945-5.88 2.264-9.04 4.089-20.124 11.618-22.03 34.096-19.054 35.196 2.976 1.1 9.913-16.78 24.744-25.342 12.892-7.443 23.235-2.008 34.003-2.498-4.995 8.652-6.306 17.452-18.968 20.15 11.47 5.032 15.815 12.918 13.552 18.713-2.26-2.025-4.9-3.957-8.06-5.782-20.124-11.618-40.544-2.033-40.008 1.095.536 3.127 19.488.198 34.318 8.76 12.892 7.443 13.358 19.115 19.166 28.196-9.99 0-18.27 3.266-26.936-6.351 1.376 12.449-3.278 20.156-9.428 21.094.623-2.97.976-6.222.976-9.871 0-23.237-18.51-36.13-20.95-34.102-2.441 2.027 9.571 16.977 9.571 34.102 0 14.886-9.877 21.127-14.838 30.697-4.995-8.651-11.96-14.189-7.964-26.503-10.093 7.417-19.097 7.237-22.984 2.38 2.883-.945 5.88-2.264 9.04-4.089 20.124-11.618 22.03-34.097 19.054-35.197-2.976-1.1-9.913 16.78-24.743 25.342-12.892 7.443-23.236 2.009-34.004 2.498 4.995-8.651 6.306-17.451 18.968-20.149-11.47-5.032-15.815-12.918-13.552-18.713 2.26 2.024 4.9 3.957 8.06 5.781 20.124 11.619 40.544 2.033 40.008-1.094-.535-3.128-19.488-.198-34.319-8.76-12.891-7.444-13.357-19.116-19.165-28.197 9.99 0 18.266-3.265 26.933 6.352-1.377-12.45 3.281-20.157 9.432-21.094-.624 2.97-.977 6.225-.977 9.874 0 23.237 18.51 36.126 20.95 34.099 2.441-2.028-9.571-16.975-9.571-34.1 0-14.886 9.877-21.13 14.838-30.7zM444.355 0c.394 4.895 2.705 9.264 6.57 13.139-7.038 3.913-6.645 14.38-18.038 32.536 13.435-.598 23.982 3.385 35.314 3.367 6.38 10.275 14.925 13.012 24.636 10.421-.13 8.053 9.136 12.943 19.162 31.887V71.135c-4.995-8.652-11.963-14.19-7.968-26.504-10.093 7.417-19.097 7.238-22.984 2.38 2.884-.945 5.88-2.264 9.04-4.088 20.124-11.619 22.03-34.094 19.055-35.194-2.977-1.1-9.914 16.78-24.744 25.342-12.892 7.443-23.235 2.009-34.004 2.498 4.995-8.651 6.307-17.455 18.969-20.152C459.95 11.287 455.343 5.24 455.24 0Zm15.633 0a51.324 51.324 0 0 0 3.882 2.488c20.124 11.619 40.547 2.033 40.012-1.094C503.759.684 502.652.29 500.9 0ZM11.08 0c5.966.995 19.88.742 31.359 7.37 12.892 7.443 13.357 19.118 19.166 28.199-9.99 0-18.27 3.262-26.937-6.355 1.377 12.45-3.278 20.16-9.428 21.097.623-2.97.977-6.224.977-9.873 0-23.237-18.513-36.127-20.954-34.1-2.44 2.028 9.575 16.975 9.575 34.1C14.838 55.324 4.96 61.564 0 71.135V91.35c6.2-11.933 14.925-19.072 20.575-28.896 12.088-.387 18.727-6.421 21.339-16.127 6.91 4.14 15.779-1.44 37.198-.652-7.235-11.336-9.06-22.458-14.742-32.263C66.97 8.555 67.978 4.094 67.647 0H56.758a8.555 8.555 0 0 1-.57 3.3A45.354 45.354 0 0 0 52.005 0Z"
        paint-order="markers stroke fill" />
</svg>