<svg xmlns="http://www.w3.org/2000/svg" xml:space="preserve" viewBox="0 0 1700 3680">
  <path fill="#ffffff"
    d="M887.6 54.5a3 3 0 0 0-2.1 1.6c-.7 1.6-.3 2.7.2 4.2a589.2 589.2 0 0 1 4.2 18.8 263 263 0 0 0 5.6 22.8 452 452 0 0 1 10.2 78.7c.3 15-.8 29.5-2.6 39.4-.9 4.9-2 8.7-3 10.5l-.2.3v-8.2c.2-6 .6-14.2 1.2-23 1.3-19.4 1.4-38 .3-47.7a511.2 511.2 0 0 0-12.8-63.5l-.8-1.4c-.3-.5-1.2-1-2-1s-1.3.4-1.6.7c-.6.6-1 1.2-1.3 2-.6 1.4-1.3 3.5-1.8 6l-3.8 17.1a40 40 0 0 1-2 6.4c-.8 1.8-1.8 3.2-1.8 3.3a43.5 43.5 0 0 0-8.5 11.8c-2.9 5.3-5.7 11.6-7.8 17.8-2.3 6.6-6 16.6-8.4 22a45.2 45.2 0 0 0-4 23.5c.9 8.8 3.8 19.7 9.1 35.8 3.2 9.6 6.4 20.8 7.6 26l-3.3-4.7a552.8 552.8 0 0 1-11.7-21.4 147.5 147.5 0 0 0-10-16.7c-.4-.5-.8-.9-1.3-1.2-.3-.2-.6-.4-1-.4-.6-.1-1.4 0-2 .5a17.7 17.7 0 0 0-3.4 5l-4.5 9.2a557.4 557.4 0 0 0-21.3 53.5 95 95 0 0 0-5 18c-.2 2 .4 4.1 1.4 6.6.9 2.4 2.2 5 3.7 7.3 2.1 3.2 3.2 5.8 3.5 7.3.2.8.1 1.4 0 1.6v.1s-1.2.2-3.1-.9c-2-1-4.4-3-7.2-5.8l-10.2-11-.9 10.3c-.8 10.4 2.8 31.6 8.9 54.4a337 337 0 0 0 26 70.3c17.6 36 18.4 38.2 22.4 55.8 1.4 6.3 2.2 10.7 2.4 13.5v3l-.2.7-.3.3c-1-1.8-3.2-7-7.6-18-4.3-10.4-12.4-27-18.2-37.1a433 433 0 0 1-17.4-34.2 142 142 0 0 1-9.4-24.6 277 277 0 0 0-7.2-25.3 215.3 215.3 0 0 1-9-40l-.4-.8-.3-.6c-.2-.2-.6-.8-1.6-.8-.8-.1-1 .2-1.3.3l-.4.3a119.4 119.4 0 0 0-6.3 8.8 36 36 0 0 1-3.5 4.9l-.4-.2a2 2 0 0 0-1.2.4c-.8.6-.7.8-1 1.3l-1.8 3.7a642.5 642.5 0 0 0-18.2 48.2 336 336 0 0 0-16.6 81.4c-4.1 37.5-4.2 40.5-1.2 73.3 3.6 38.9 9 61.4 25.6 105a928 928 0 0 1 14.6 41c.4 1.4 1.4 7.5 2 9.8h-4.2a1154 1154 0 0 0-17.3-49.3c-13.9-37-22.8-69.4-25.3-91.6a446.7 446.7 0 0 0-11.3-57.1c-.5-2-1-3.6-1.6-4.7-.2-.5-.3-1-1-1.6-.4-.3-1.3-.7-2.2-.4-.9.4-1.2 1-1.4 1.3l-.3 1.5-.2 1.7-.2 5.2.1 15.2c.8 28.7-4.6 66.1-11.4 82.2a344 344 0 0 0-12.7 45.9c-6.3 29.2-6.6 34.2-5.6 51.7H42.5v2613h768.8c2.4 11.7 5 23.5 6.5 33 1.9 11.3 6.8 34.5 11 51.7 4.2 17.2 13.3 54.3 20 82.5 6.9 28.2 14.2 56.4 16.7 63.4l5.6 16 8.3-13.4c6-9.7 12.9-28.7 14.2-38.9.1-1 0-2-.1-3.5-.2-1.4-.4-3.2-.8-5.1-.6-4-1.6-8.7-2.8-13.5a2890.5 2890.5 0 0 1-32.5-139l-7.3-33.2h811.6v-2613h-454.4l.7-1.9c3.4-10.8 6.2-21.5 8-30.6 1.7-9 2.5-16.4 1.4-21.3-.6-3-1.2-13-1.2-21.3 0-8.6-.7-26-1.8-39.2-1.4-18.2-1.3-25.7.7-33.7a60.7 60.7 0 0 0 1.6-11.5c0-1 0-1.6-.8-2.7a3.2 3.2 0 0 0-2.2-1.1 4 4 0 0 0-2 .5c-1.2.7-2 1.7-3 3-1.9 2.6-4 6.4-6 11-4.2 9-8.3 20.8-10.2 30.6-3 16-13.2 46.5-26 79.1-5 13-10.7 26.2-16.3 39.1h-7l.3-.7c3.9-8.8 11.7-30.5 17.6-48.5a2834 2834 0 0 1 12.8-38.1c1.4-3.4 4.3-13.4 6.7-22.7l8-30.2c2.5-9.3 4.1-22.7 5-41.6.6-13.2 1-20.1.6-24.2a9 9 0 0 0-1.5-4.7 5.6 5.6 0 0 0-3.3-1.8l-1.3-.5c-.2-.1-.3-.2-.4-.8-.4-1.2-.5-4-.3-9 .4-9.9.3-17.1-.3-22.5-.7-5.4-1.9-9-4-11.5a24.3 24.3 0 0 0-4.2-3.7l-1-.2a2 2 0 0 0-1.8.6l-.4.5-.2.3a36.6 36.6 0 0 0-2.1 4.2l-4.9 10a200.8 200.8 0 0 1-8.7 16c-.7.7-1.3 1.7-2.5 3.4a1131 1131 0 0 0-17 27 555.5 555.5 0 0 1-16.4 25.6c1.6-3.2 3.8-7.3 7.4-13.4 7-11.9 14-25.6 19.6-37.5 5.5-12 9.6-21.9 10.5-27.3.7-4 3.3-15.1 5.7-24.2a187 187 0 0 0 5-23.5 17 17 0 0 0-.5-4.8c-.5-2-1-4.3-1.9-6.9-1.5-5.2-3.7-11.4-6.2-17.8-5-12.8-10.7-25.8-14.7-31.5a20.4 20.4 0 0 0-6.6-6.8 4 4 0 0 0-1.8-.5 3 3 0 0 0-2 .8 4.6 4.6 0 0 0-1.5 3.4c0 .5-.9 1.6-1.2 1.7-1.6.4-2.6 1.7-3.6 3.3-1 1.7-2 3.9-3.1 6.8-2.3 5.9-5 14.6-8.4 27-2.8 10-10.8 30.5-17.7 45.1a2172.5 2172.5 0 0 0-18.6 39.7 2244.3 2244.3 0 0 1-30.4 56 443.6 443.6 0 0 1-19.5 30.8 3238 3238 0 0 0-31 45.1c-5.9 8.7-7.2 10.6-10.5 15.2 7.8-15 19.8-35.2 27.8-46.2 16.7-23 25.3-36 27.8-42.3a616.3 616.3 0 0 1 15.6-25.8 351.7 351.7 0 0 0 21.2-37.7c21.8-49.2 26.4-60.1 31.1-74.3a302 302 0 0 0 13-65.9c.4-7.8-.3-13.8-2.5-18.1a12 12 0 0 0-11.1-6.7c-2.2 0-7.4-1-10.7-2-7.4-2.5-9.2-3-13.8-3.8-.9-.2-3.5-1.6-4.5-2.8-.6-.7-1.1-1.4-2-1.8-1-.5-2.6-.2-3.4.5-1.6 1.3-2.3 3.2-3.7 6.6-.6 1.3-3.8 7.1-8 14.4l-15 25-8.3 13.5 3-7a1955 1955 0 0 1 20.5-43.9 160.5 160.5 0 0 0 14.8-40.4c1.7-8.2 2.6-12.5 2.5-16a20 20 0 0 0-3.3-9.7 63.1 63.1 0 0 0-11-13.9l-15.6-14.4c-4-3.8-6.6-6-9.3-7.4a16.5 16.5 0 0 0-8.6-1.5c-5.1.2-9.2 1.7-11.3 5a1050.5 1050.5 0 0 0-28 59.7c-1.1 3-2.7 6-4.4 8.5a23.1 23.1 0 0 1-4.2 5.2 34.4 34.4 0 0 0-5 4.6 714.8 714.8 0 0 1 32.8-71.2l11.1-20.3-4.8-11a82.7 82.7 0 0 0-22.2-27.5 11 11 0 0 0-3.4-1.8c-.6-.1-1.2-.2-1.9 0l-.6.3h-.7l-.6 1a82.2 82.2 0 0 0-3.7 10.4c-.6 2-1.2 4-1.8 5.5l-1.4 2.8c-.6.7-.6 1-1 1.5a718.2 718.2 0 0 0-10.4 30.3c-8.4 27.2-14.8 41-21 47a39.2 39.2 0 0 0-5 7.2 1543 1543 0 0 0-31.8 59.7c-4 8.2-7.5 14.6-10.2 18.9-.7 1.2-1.3 1.9-1.9 2.7l.4-.6c1.5-2.5 3.2-5.8 5-9.6l18-39.2C938 271.4 946 254 949 246.8c3-7 10.9-24.6 17.4-38.8a332.5 332.5 0 0 0 17.3-45.8c2.8-10.5 4.2-16.3 5-21l8.2 6.8-8.2-6.8.5-2.7c.5-4.8-.2-7.9-1.6-12.2l-.5-1.4h-.1a40.6 40.6 0 0 0-13.4-16c-.8-.6-1.6-1-2.6-1.2-.9-.2-2.1-.2-3 .6-1.2 1-1.4 2-1.8 3.3-.4 1.3-.7 2.8-.8 4.4a6.3 6.3 0 0 1-.8 2.7c-.2.4-.1.3-.4.3l-2.2.1-19.6-16.2-.9-7.6a61.6 61.6 0 0 0-3.2-16.3c-1.5-3.5-4.1-5.6-7.2-5.8a11 11 0 0 0-6 .7 8.5 8.5 0 0 0-4 5 25 25 0 0 0-1.4 5.3l-16.5-13.6a40.3 40.3 0 0 0-13.5-15.7l-.4-.2h-.4l.8.2c-.6-.2-1.2-.5-2-.4zm15.8 16.6 16.2 13.3a220 220 0 0 0-2.3 20.6c-.6 7-1.3 13.5-2 18.4l-.7-6.3c-.7-11-2.8-22.2-5.7-31.9a93 93 0 0 0-5.5-14zm38.9 32 19.5 16c-.8.3-1.5.6-2 1a9.9 9.9 0 0 0-3 4.7c-1.6 4.1-2.8 10.9-4.7 22.4a378 378 0 0 1-7 34.4c-1.8 6.9-3.6 12-5.1 15.8 0-5.4.6-14.4 1.8-31 .8-11.3 1.4-22.8 1.7-32.2.4-9.3.4-16.4 0-19.6l-1.2-11.5zm-35.7 162.6v3.6c-.1 12.4-1.7 32.7-3.5 45a227.7 227.7 0 0 0-2 21.4l.3 1.6.5 1c.2.4.8.9 1.6 1-.4.2-.8.5-1 .8-.9 1-1.4 2.1-2 3.7-1 3-1.7 7.7-2.9 15.4a3836 3836 0 0 1-6.6 43 2557 2557 0 0 0-12.1 99.6L867.4 608a417.6 417.6 0 0 0-2.9 45l.6 13.5 3.9.6 3.1-8.4a73.4 73.4 0 0 1 4.7-9.7c.8-.8 1-1.5 1.6-2.7l2.2-4.8c1.7-3.8 3.7-8.7 5.6-13.9 3.9-10.2 6-15.9 7.6-18.7.7-1.4 1.3-2 1.5-2.1.1.7 0 2.1-.2 4-.4 3.7-1.7 9.3-3.5 15.8a410 410 0 0 1-16.8 47c-3.7 8.7-7.1 21.6-10.3 36.8h-22.7a603.6 603.6 0 0 0 7.3-55.7V653l-.2-.6c-.1-.2-.3-.7-1-1a2 2 0 0 0-1.3-.2l-.9.4-.6.6-.3.9-.2.8-.7 2.7-1.8 9c-1.5 7.3-3.3 17.2-5.2 27.8l-3.1 17h-8.5c2.6-13.9 6.2-34.6 8.5-49.4 2.6-16.1 6.9-41.2 9.6-55.7 2.7-14.5 8-43.4 11.6-64.2 3.8-20.7 9.5-50 12.8-64.9 6.4-28.5 12.8-64.5 16-88.9 1-7.7 4.2-26.4 7.1-41.4a49484.4 49484.4 0 0 0 15.7-80.3zm47.8 94.2c-.3 1.6-.4 2.8-1 5.1-1 4.7-5.8 17-10.5 26.5a1121 1121 0 0 1-21 39.8c-1 2.1-1.8 3.3-2.9 5.2a1175.8 1175.8 0 0 1 32.2-70.9l3.2-5.7zm121.2 256.7-1.3 2a8635.6 8635.6 0 0 1-25.2 36.8c-3 4.6-6.1 9.1-8.4 12.9a50.8 50.8 0 0 0-5.8 10.5c-.4.5-.7.3 0 .4-1-.1-2.5.5-3 1.6a3 3 0 0 0 0 2.2c-1.8.5-3 2.2-3.1 4l-1 2.1c-.8 1.1-1.8 2.4-2.9 3.4-1 1-2 2.4-3 3.7 1.6-3.3 2.7-5.9 5.5-11.2a1088.5 1088.5 0 0 1 37-63l2-2.6.7-.8c1-.6 4.2-1.6 6.8-2h1.7z" />
  <path
    d="M887.8 26.8c-3.5 1.4-6.2 5.7-7.8 12.6-1 4.2-3 11.8-4.6 16.9a67 67 0 0 0-2.5 18c.4 9.4-.2 10.7-20.5 52-11.3 22.8-12.5 26.4-15 44.5l-2.6 19.7-7.2 3c-6.9 2.9-7.8 4.4-19.1 30.2-6.6 15-14.4 34.8-17.5 44-3.1 9.3-6 17.1-6.3 17.5-.3.4-3.6-1-7.3-3.2-4.5-2.6-7.3-3.3-8.8-2a68 68 0 0 0-5 18.8 77.8 77.8 0 0 1-7.6 24.4c-15.8 25.6-42.2 98.4-46.3 127.8l-2.4 17.4-9.7 9.3-9.6 9.4-2.7 40.7a513.8 513.8 0 0 1-9.7 76.9 321.4 321.4 0 0 1-10 41.5c-3.6 6.7-9 28-12.7 49.8v.5l-53.6-.1c-30-.3-50.8 0-51.5.5-.8.6-28 .6-70.3.1-81.4-1-78-.9-233.5-.8-66.8 0-140.2-.2-163-.4a776 776 0 0 0-45.5.3c-3.5.6-4 1-4.3 3.7-.1 1.6-.7 3.9-1.2 5-1.7 3.7-2.1 123.7-2.8 717.7-.7 590.7.1 1719.9 1.3 1837.3.3 34 1 62.9 1.5 64 .5 1 1 3.3 1.2 5 .3 2.6.8 3 4.3 3.7 2.2.4 22.7.5 45.5.3 22.8-.3 96.2-.5 163-.5s138.4 0 159-.2c20.6-.2 84.5-.3 142-.2a31883.3 31883.3 0 0 0 152.5 0l72 .3c15.2 0 22.8.3 31.4.5 3 13 6.6 27.9 8 35 6.3 31.1 37.4 157.7 46.3 188.5 7.4 25.7 9.6 34 16.5 64.6 4.1 18.5 10.2 36 11.1 32.5.3-1 2.1-19.4 4-40.9 3.3-35.8 4.2-41.1 11.7-65.5 4.5-14.6 9.8-34.5 11.9-44.2 3.7-17.2 3.7-18-.2-31.2a2159 2159 0 0 1-11.7-44.8l-15.1-59.7c-2.7-10.3-5.4-22.2-8.1-33.7 9.7-.6 30.5-1.1 57.2-1.2a45466.9 45466.9 0 0 0 104.5-.1h118c57.5-.2 121.4 0 142 0 20.6.3 92.2.4 159 .3 66.8 0 140.2.2 163 .5 22.8.2 43.3 0 45.5-.3 3.5-.7 4-1.1 4.3-3.7.1-1.7.7-4 1.2-5 .5-1.1 1.2-30 1.5-64 1.2-117.4 2-1246.6 1.3-1837.3-.7-594-1.1-714-2.8-717.7-.5-1.1-1-3.4-1.2-5-.3-2.6-.8-3.1-4.3-3.7a776 776 0 0 0-45.5-.3c-22.8.2-96.2.4-163 .4-143.7 0-151.1 0-215.9.8-.1-4.7.2-8.7 1.8-13.3 3.8-11 4.6-42.1 1.5-55.4a650 650 0 0 1-7.8-81.1c-.2-19.7-3.5-30-10-30.5-5.4-.4-7.3-4-8.2-16a41.1 41.1 0 0 0-3-12.6c-1.5-2.8-1.6-10.5-.2-25 2-20.2 1.8-21.5-3.8-39.6-3.3-10.2-7-20.2-8.4-22.1-1.4-2-2.4-7.2-2.2-11.7.3-6.1-1.8-12.6-8.4-26.1-4.8-9.9-9.8-18.7-11-19.6-4.7-3.2-10.7-19-11.8-30.9-1.7-16.6-3-20.6-10-29.1-5-6-9.7-8.8-23.4-14l-17.2-6.7.7-15a62 62 0 0 0-.8-17c-.7-1.2-1.7-4.5-2.2-7.4-.4-3-2.4-6.3-4.4-7.6-2-1.3-9.3-8.3-16.4-15.7-7-7.4-13.5-13.5-14.3-13.6-4.1-.4-23.5-18.3-30.9-28.7a179.5 179.5 0 0 0-22.6-24 226.5 226.5 0 0 1-24.4-25.7 106 106 0 0 0-22.2-21.2c-6.6-4.4-16-12.8-20.8-18.7-10.3-12.5-17.2-17-29.6-19.7-9.1-2-21.3-9-30.3-17.8-4.5-4.4-8.6-5.8-12-4.4zm1 30c1.6.6 4.2 3 7.6 6.9 7.9 9 14.9 32 16.2 53.5.6 8.8 1.8 15.5 2.8 15 1-.5 2.7-12.7 4-27 2.2-27.8 3.3-30.7 11.4-30 5 .4 7 5.2 8.6 20.3l2.2 19.3a492 492 0 0 1-1.8 51.5c-2.6 35.3-2.6 40.6-.1 36.8 4.3-6.8 10.4-30.5 14.4-55.6 3.7-23 5.1-27 9.9-26.5 1.8.1 3-1.6 3.3-4.9.2-2.7 1-5.6 1.9-6.3 2.5-2.2 14 9.8 16.3 17.1 2.8 8.6 2.7 10.2-3.8 34.8-3 11.2-10.4 30.7-17.2 45.5a1821 1821 0 0 0-17.4 38.8c-3 7.1-11 24.6-17.5 38.8l-18 39.2c-3.4 7.4-7 13.3-8 13.2-1 0-.4-9.1 1.5-22.6 1.8-12.4 3.3-32.8 3.5-45.2.4-25.9 0-25-9.2 22.5L889 345.6c-3 15-6.2 33.7-7.2 41.6-3.2 24.3-9.6 60.2-16 88.7-3.2 15-9 44.2-12.7 65L841.4 605c-2.7 14.6-7 39.6-9.6 55.8-2.5 16-6.7 40.3-9.3 53.8l-13.2 70.7c-9 49.3-13.5 71.4-18 89.5-1.5 6.2-6.8 35-11.8 64.2-5 29-10.4 58-12 64.3a271 271 0 0 0-4.6 33.1c-1 12-4.5 39.6-7.9 61.4a2374 2374 0 0 0-6.4 44c-.5 5.9-2.9 5.2-9.6-2.7l-5.6-6.7.8 6.8 3.5 34.8 2.7 28-6.8 57.8c-3.7 31.8-7.8 62-9 67-2.4 9.4-6.5 13.1-8.2 7.4-.5-1.7-2-3.2-3.5-3.3-2.1-.2-2.2.8-.5 6.2a186 186 0 0 1 3.5 28.4c.8 12 2.1 23.7 3 25.8 1.1 2.4-.5 28.1-4.4 72.5-3.4 37.8-6.1 76.3-6 85.5.2 19.1-1.7 21.1-7.6 8.2-2-4.6-4.9-8.8-6.2-9.4-2-.8-2 0-.1 3.7 3 5.6 3.5 8.9 6 37.8 3.1 33.6-.4 86.2-5.6 84-1-.4-2.7-4.8-3.7-9.7-1.9-9.3-5.6-14.7-9-13-1.3.7-.9 4.9 1.1 11.3 4.7 15.4 5.3 19.2 8.2 51.3 1.7 19.3 1.9 32.4.7 37.6-3 12.3-3.5 18-3.2 34.6.3 17.6-.7 17.4-8.4-1.7a137 137 0 0 0-8.5-17.9l-3.3-5 1 4.8c.6 2.7 3 11.4 5.3 19.3 4 14 5.5 22.5 9.5 58.5 2.2 20.2 2 26.2-3.4 122.3-2.4 42.5-5 92.7-5.9 111.5l-1.5 34.4-6.6-6.8c-3.6-3.8-7.4-6.4-8.4-5.9-1 .6 1 7.4 4.5 15.3a101 101 0 0 1 9.8 45.1 136 136 0 0 0 1.3 21.3c3 20.4 4.1 48 2.2 50-.9 1-2.5 5.7-3.6 10.3-1 4.6-3.4 9.3-5 10.5-2.9 1.8-2.9 3.8-.2 19 5.1 29.6 6.3 41 5.8 59.1l-.9 32.4c-.2 8.1-.6 14.8-1 14.7-.3 0-2.9-4.3-5.7-9.6-6.3-11.8-15.6-22.8-16-18.7-.1 1.6 2.1 7.3 5 12.7 14.1 27 27.6 93.4 34 167.7 1.6 19 3.7 40.5 4.6 48 .9 7.4 1.7 18.7 2 25l.2 11.5-4.6-5c-2.5-2.8-4.4-6.5-4.3-8.2a28 28 0 0 0-4-10.7c-2.2-4.1-6-12-8.2-17.5-2.9-7-13.1-20.4-34-44.5-21.4-24.7-30-36-30-39.2.2-2.5-3.4-14-8-25.5-8.1-20.7-15.6-46.6-15.2-52.4.2-1.7-1.2-7.7-3-13.4-2.6-7.8-2.8-10.8-1-12.4 1.8-1.5 4.6.7 11.5 9.2 5.1 6.2 17.3 18.3 27.1 27a275 275 0 0 1 19.1 17.6c2.3 4 1.7-1.8-.8-8.2-1.4-3.4-8.6-12-16-19.3-23.8-23.2-26.8-26.8-33.8-40.2a61.2 61.2 0 0 1-8.1-30.7c-1.2-17.5-.6-81.4.8-82.6a69 69 0 0 1 10 13c12.3 18.5 22.5 31 25.5 31.3 3.9.3 3.2-1.3-6-15.2-22.5-33.5-39.2-67.1-44.8-90.5-1.1-4.8-2.6-10.5-3.2-12.7-.7-2.1 8 6.5 19.1 19.3a198.1 198.1 0 0 0 22.4 23.4c5 .4-18.5-36.6-33.1-52.2l-8.2-8.9 2-9.7c1.2-5.4 2.6-10 3-10.5 2.2-1.8 11.8 6.3 22.3 18.8 15.3 18.1 21 23.9 21.3 21.5.2-2.7-22.8-35.3-33.1-47-7.5-8.6-7.8-9.3-5.5-15.5 1.3-3.5 4.4-10.2 6.8-15 6.2-11.6 14-48.2 14.2-67.2.1-8.5 1.1-16.6 2.1-18 2.2-3 2-3.2 7.2 7.2a648 648 0 0 0 17.1 30.2c24.7 41.3 30 44.6 12.2 7.4a394 394 0 0 0-16.8-32.1c-5.4-8-8.4-17-20.6-59.7a697 697 0 0 1-18.9-82 985 985 0 0 0-5.2-30 800 800 0 0 1-9.4-131v-12.5l5.6 20.6a322.5 322.5 0 0 0 28.3 71 907 907 0 0 1 16.4 32.2 77.8 77.8 0 0 0 7.1 13.6c.2-1.7-13-35.2-30.2-76.8a249.5 249.5 0 0 1-17.9-56c-4.8-25.9-6.3-43.3-4.4-50.2.9-3 .3-5-1.6-6-2.5-1.2-2.5-4.5-.1-23.5 1.5-12.1 5.6-36.5 9-54.1l9.2-46.2 2.7-14.1 3.2 8.9c1.8 4.8 10.1 26.6 18.6 48.4a1438 1438 0 0 1 23 63.7c4.3 13.2 8.1 23.8 8.6 23.4.4-.3-.4-9.3-1.7-19.8-3-22.6-7.7-37.8-28.5-92.6-21.6-56.6-21.4-55.3-16.8-92.5 3.4-27.5 3.6-32.2 1-45.7-4-22.3-6.8-32.4-11.2-41-4.8-9.1-4.8-9.6-.1-9.2 9 .7 41.7 38 55.8 63.4a42.2 42.2 0 0 0 7.1 10.7c2.6.2 4-2.3 2.6-4.4a306.2 306.2 0 0 0-22.7-56.9c-1.7-3-3-7-2.8-9 .2-2.1-1.6-6.9-3.9-10.6-7.2-11.9-19.4-46-25.8-72-6.6-27.2-9.8-36.4-17.2-49.5a52.4 52.4 0 0 1-4.7-9.5c.1-2 13.6 7.2 17 11.6 1.8 2.4 4.5 4.4 6 4.5 1.4.2 3.2 2.5 4 5.1 1.5 5.5 18.7 25.4 22 25.8 1.3 0 2.6 1.3 3 2.6.4 1.4 7 12.5 14.7 24.7a1271 1271 0 0 1 21.9 36.3 135 135 0 0 0 11.8 18.1l4 4.1-2-5.8c-2.4-7-12-23.8-31.3-54.8-30-48-36.2-69.8-40-140.6-1.2-23.6 5.2-91.6 9-94.8 1.4-1.2 2-.7 1.8 1.5-.2 1.7.5 3.3 1.4 3.3 1 .1 1.9 5 2.1 11 1 20.8 8 42.8 25 77.2 9 18.2 20.5 42.5 25.5 54 9.8 22.4 10.2 21.9 6.3-6.7-2-14.8-4.8-21.8-21.5-54-7.2-14-15-31-17.5-37.9-4-11.5-12-52.8-17.2-89.3-2.2-15.5-.3-41.2 4.3-58l6.5-24.4c4.3-16.6 20.2-66 24.1-74.7 3.7-8 23.2-70.6 23.6-75.4.6-7 3-4 11 13.7a364 364 0 0 0 17.4 33.2 222.9 222.9 0 0 1 23.3 46.5c4.7 13.2 5 12.7 3.2-4.6-.3-3-2.5-8.6-4.9-12.4-2.4-3.7-6-11.4-7.9-17-2-5.5-7.5-17-12.3-25.6a214.6 214.6 0 0 1-13.3-28.6c-2.4-7.2-5.2-14.7-6.1-16.6-6.5-14.2-15-52-16.3-73.2-1.4-23-1.4-23.6 5.6-55.8 3.8-17.9 9.5-38.4 12.5-45.5 7.1-16.7 12.4-54 11.6-83-.3-11.2 0-21.5.5-22.8 1.5-3.6 11.2 40.3 13.6 62 2.6 22.4 11.5 54.9 25.4 92 18.8 50 26 73.4 33.2 106.6a160 160 0 0 0 7.3 27.9c2.1.2-12.3-80.3-17.2-96.2-2.3-7.6-8.9-26.1-14.6-41.2-16.5-43.5-22-65.7-25.5-104.4-3-33-3-35.5 1.2-73 4.2-37.7 7-51.6 16.5-81 6-18.8 20.5-55.6 20.5-52 0 1.6 2.4-1 5.4-5.8 3-4.7 5.8-8.6 6.2-8.5.4 0 1.4 5 2.1 11 .8 6 4.1 19.4 7.4 29.8 3.4 10.4 6.5 21.6 7.1 25 1.5 8.8 14.9 38.2 27 59.5 5.8 10 14 26.6 18.1 36.9 9 22.3 8.2 20.8 11 18.4 1.8-1.4 1.4-6.4-1.5-19.1-4-17.7-5-20.2-22.6-56.3a334.4 334.4 0 0 1-25.8-69.9c-6-22.7-9.6-44-8.8-53.7l.5-5.8 7.2 7.6c11.4 12.2 18.8 8.7 9.9-4.7-2.9-4.3-5-10-4.8-12.7 1-11.6 28-79.5 33.6-84.3 1-.8 6 7 11.2 17.2a295 295 0 0 0 11.8 21.7c1.3 1.7 4 5.3 5.7 8.1l3.3 5-1.8-8.8c-1-4.8-4.6-17.2-8-27.4-10.6-32.1-11.5-43-5.2-57.8 2.4-5.6 6.2-15.6 8.5-22.2 4.2-12.3 11-24.8 15.7-28.8 1.4-1.2 3.4-6 4.5-10.8l3.7-17.1c1-4.8 2.5-7.9 3.2-7 2.1 2.8 11.3 47.4 13.2 64 1 9.4 1 28-.3 47.4a245 245 0 0 0-1 33.3c5.1 6 10.2-22 9.6-52.3-.4-21.1-6.4-67.2-10.3-79.2-1.3-3.8-3.7-14-5.5-22.6-1.7-8.6-3.6-17.1-4.3-19-.9-2.7-.4-3.7 1.2-3zm109 93.2c2.4-3.7 20.8 16 26 27.8l4.4 10.1-10.7 19.5a645.5 645.5 0 0 0-35 77l-1.6 6.5 3.5-5.5c2-3 5.6-7 8.3-8.9 2.6-1.9 6.8-8.4 9.3-14.5 6.2-15 24.8-54.7 27.8-59.4 1.6-2.5 4.9-3.9 9.7-4 6.2-.3 8.5.8 16.4 8.2 5 4.7 12 11.3 15.6 14.5 3.6 3.3 8.3 9.3 10.6 13.4 4 7.3 4 7.9.7 24.3a158.2 158.2 0 0 1-14.7 40c-11.3 23.2-32.5 70-32.5 72-.1 2.2 41-65.3 44-72.4 2.8-6.7 3.5-7.4 5.7-4.8a12 12 0 0 0 5.7 3.5 73 73 0 0 1 13.4 3.6c3.6 1.2 8.7 2.2 11.4 2.2 8.6 0 12.4 7.4 11.5 22.7a299 299 0 0 1-12.8 65.3c-4.7 14.2-9.2 25-31 74.2-4 8.8-13.5 25.7-21.1 37.5a308.7 308.7 0 0 0-15.8 26.1c-2.2 5.6-10.9 18.8-27.6 41.8a391.4 391.4 0 0 0-34.4 60.4c-2.7 7-1.4 5.3 20.5-27 11.1-16.5 25-36.8 31-45.2a435 435 0 0 0 19.5-31 1179 1179 0 0 0 34.6-64.4c1-2.5 7.5-16.6 14.5-31.3a348 348 0 0 0 17.8-45.5c6.8-24.6 10.8-34.8 13.8-35.7 1.3-.4 2.5-2 2.6-3.4.4-4.3 3.4-2.8 8.3 4 7.4 10.5 23.5 52.5 22.9 59.8-.3 3.5-2.5 13.9-5 23-2.4 9.2-5 20.2-5.7 24.5-1.6 9.5-16 40.5-29.8 64.1-11 18.7-12.7 23.3-7.4 19.6a242 242 0 0 0 19.9-29.7 487.9 487.9 0 0 1 19.2-30.2 108 108 0 0 0 9-16.5l7.2-14.4c.3-.4 2.1 1 4 3.2 3.6 4 4.7 13 4 32.6-.5 10 0 11.5 3.4 12.3 3.8.9 4 2.2 2.7 28.7-.9 18.8-2.5 32.1-5 41.2l-8 30.2c-2.4 9.3-5.3 19.4-6.6 22.4-1.2 3.1-7 20.3-12.8 38.3-5.9 18-13.7 39.7-17.5 48.3a1438 1438 0 0 0-13.7 32.4 545.5 545.5 0 0 1-32 67.4 574.7 574.7 0 0 1-34.8 59c-7 10.8-12.4 20-12 20.4.8 1 20.7-23.5 30-37 8.7-12.5 26-42.5 33.7-58.4 3.2-6.5 9.4-19 14-27.5 26.6-50.8 61.5-140 67.6-172.6 3.6-19 16.5-47.2 19.9-43.1.7 1 .2 6.5-1.2 12.4-2 8.3-2.2 16.1-.8 34.4 1 13 1.9 30.6 1.8 39 0 8.5.5 18.2 1.3 21.7 3.6 16.9-17.6 83.8-33.6 105.5-12.8 17.5-78.8 130.6-77.3 132.4 1.5 1.8 10.3-11 20-28.8a273.5 273.5 0 0 1 18-28.8c4.1-5.5 11.6-15.2 16.6-21.6 5-6.5 11.3-15.4 14.2-20l5-8.1.7 5.7.6 5.8 4.6-6.5c2.5-3.6 7-12.7 10-20.3 2.8-7.5 6.6-16.1 8.2-19.2l3-5.5.7 5.8c.4 3.2 1.4 8.5 2.1 11.8 4.6 20.1-11.7 78-34.2 122.1a694.5 694.5 0 0 1-51.4 84c-9.5 13.1-18 25-18.7 26.2-3 4.8 10-9 18-19.2 4.6-6 10.5-13.2 13.1-16 8.2-8.8 48-73.9 56-91.4 10.7-23.8 10.4-23 16.6-33.6 5.4-9 9.1-12.1 8.6-7l-3.9 25.8c-2.2 14-3 25.3-2.3 28.1 2 6.8-.4 14.9-24 82-30 85.5-39.6 107.7-69.3 159.8a535.1 535.1 0 0 0-14.9 27c0 .6-17 29.9-37.9 65a2447.6 2447.6 0 0 1-85.6 136.4c-10.5 15.6-18.3 29.4-17.3 30.5a63 63 0 0 0 10.6-13.3c5.5-7.8 13.8-18.7 18.6-24.3a268 268 0 0 0 19.8-28.6c6-10.1 15.2-23.9 20.3-30.5 11.6-15.2 31.4-47.7 66.8-109.7a958.4 958.4 0 0 1 32.7-54.9c2.8-3.6 9-15.2 13.9-25.9 4.8-10.6 16.3-35 25.4-54.3a571 571 0 0 0 28.3-66.2c4-12.4 16.1 1.1 22.2 24.6 1.7 6.3 4 19.3 5.3 28.8 3.9 29.2-2.8 72-14.2 90.8-5.3 8.8-12.2 25.2-22.6 53.8-2.6 7.1-10 22.5-16.3 34a921.7 921.7 0 0 0-20.3 39.8 1101 1101 0 0 1-29.2 54.4 742 742 0 0 0-20.5 37.4c-.5 5.9 39.3-57.7 68.2-109.2a165.3 165.3 0 0 1 15.7-25c2.1.2 4.2 11.2 6.2 33.2l1.7 18.6-7.3 25.6c-8.7 30.7-20 55.6-38.2 85.2l-31.4 50.8c-9.9 16-18 30.8-18.2 33-.3 4-.3 4 3 .5a86 86 0 0 0 8.4-12.8 50 50 0 0 1 9.5-12.5c2.4-1.8 6.5-6.2 9-9.8 2.5-3.5 5.6-7.2 7-8.1 9.6-7.2 54.3-90.6 58.8-110 1.8-7.4 2.5-8.4 3.8-5.5 1 2.2.1 17.6-2.5 41.7a438.8 438.8 0 0 1-25.8 112 234.5 234.5 0 0 1-26.8 58.1 2137 2137 0 0 1-72.6 109 269.1 269.1 0 0 0-28.4 49.4 245 245 0 0 1-9.8 21.9c-7.4 14.2-5.4 16.1 2.3 2.2a701.2 701.2 0 0 1 67.5-103.8c7.1-9.1 19.2-25.3 27-35.8 22.8-31.4 21-32.6 18.9 12.3-2.1 44.1-4 54.2-22.1 118.6-11.6 41.1-25.6 77-37.8 97a509.2 509.2 0 0 1-25.3 35.3 2828 2828 0 0 0-23.8 31 70.4 70.4 0 0 1-9.5 10.8c-2 1.4-3.2 3.8-2.8 5.3.4 1.5-.1 2.1-1.2 1.3-1-.7-2.9 1.1-4.2 4-1.3 3-8 11.5-14.7 18.8a874.7 874.7 0 0 0-86.2 110.2c-11.5 17.7-10.2 16.7 13.5-10.5a2022 2022 0 0 1 44.5-48.8c14.2-15 31.3-35.1 38-44.7 6.8-9.6 24.3-32.8 38.8-51.5a548 548 0 0 0 30-41c1.8-3.8 4.5-7.3 6-7.7 5.8-1.7 13.7-17 29.7-57.2 3.6-9.2 7.2-17.3 8-18 .8-.8 2.3 12.5 3.4 29.5 2 34 .3 52.7-8.4 90.9-7.4 32-15.8 53.3-29.3 74.5a299.2 299.2 0 0 1-14.7 21.8c-8 8.2-43.5 61.2-42.2 62.8 1.7 2 19.9-20.2 55.8-67.6 10-13 21.8-34 31.6-55.7l10-22.2-1.2 15.5c-1.3 17.9-9.5 63-15.4 84.8l-10 37.3c-8.3 32-16.5 45-63.5 99.9a1362 1362 0 0 0-39.3 47.8c-5.9 8-18.3 22.2-27.5 31.7-39.6 40.8-52.2 56.4-65.4 80.8-13.6 25.4-21.8 44-20 46 2.3 2.8 5.2-1.3 11.1-15.5 8.2-19.6 37.4-59.1 64.7-87.6 32.4-33.7 44.3-47 69.6-77.3 15.2-18.1 29.6-35.5 32-38.6 6.4-7.9 35.6-23.9 38-20.7.1.3-1.7 6.9-4.1 14.6-2.4 7.7-6 20.3-7.9 28a70.7 70.7 0 0 1-9.2 22.3c-3.2 4.5-7.6 11.2-9.7 15-4 7-41.9 54-54.2 67a381.7 381.7 0 0 0-34.2 47.4c-.9 2.4-2.3 3.8-3.1 3.2-1.7-1.3-11.6 17.3-10.2 19 1.4 1.6 6.9-4.7 18.7-21.3a988 988 0 0 1 34.2-43c13.6-16.2 26.8-32.3 29.3-35.8 5.6-7.5 7.3-4.4 2.1 3.8-2 3.2-6.4 16-10 28.5-3.4 12.6-11.6 38.3-18 57.3a261.6 261.6 0 0 1-30.7 66.4c-28.1 47.3-49.4 74.9-96.8 125.2-22.1 23.5-34.1 40-38.1 52.2-2.8 8.5 1.6 4.9 15-12.6 6.5-8.6 20.6-24.8 31.2-36 42.7-45.3 77-90.8 106.4-141 14.4-24.7 18.5-28.9 27.4-28.2 5.7.5 5.5 3.5-1.2 21.4-22.7 60.2-42.8 103-62.2 132.4a742.2 742.2 0 0 0-19.7 31.6 188.7 188.7 0 0 1-20.3 27.4l-27.7 30.2c-17.4 19-27 31.4-24.1 31.6 1 .1 8-6.9 15.8-15.5a1314 1314 0 0 1 34.9-36.8c29.6-30.1 32.3-33.3 47.1-55.3 11.8-17.4 21-26.8 23.6-23.8.4.6-1.7 10.2-4.9 21.4-4.6 16.8-8.4 25.3-21.4 47.9-8.7 15-19 30.6-22.8 34.5a663.3 663.3 0 0 0-19 20.5 664.4 664.4 0 0 1-97.1 89 2721 2721 0 0 1-58.6 44.6l-13.8 9.9 1.8-7.2c1-4 4.9-16 8.6-26.7a96 96 0 0 0 6.3-28l-.2-8.5-7.5 9.7c-4.2 5.3-9 12.2-10.7 15.2l-3 5.5-.8-6.7a311.7 311.7 0 0 1 9.9-78.4c6.3-20.8 6.5-22 3.6-18.2-3.7 4.9-9.1 21-15 44.6a242.8 242.8 0 0 1-6.6 24c-2.7 2.2-4.8-10.3-4.4-25.6.3-14.5-.2-17.8-3.2-20.3-3.9-3.2-3.4-8.7 6-64.8l7.2-44.4c3.2-19.5 7.2-35.4 12.8-50.7 1.7-4.5-.8-9.6-3.8-8.1a32 32 0 0 0-6 11c-2.4 6.4-5.6 11-8.5 12.6-4.5 2.4-5 2.3-7.2-1.8-2.6-5-5.2-39.3-4.9-66 .4-34.1 11-61.9 38-99.3 25.1-34.7 43.8-66 41.3-69-1.4-1.6-13.6 15.7-18.7 26.6a182 182 0 0 1-16.2 24.8 277.8 277.8 0 0 0-15.3 21.4 41 41 0 0 1-9.7 10.9 70 70 0 0 0-13.6 17.3c-7 12-7.7 12.7-8.5 8-.4-3-.1-7.6.7-10.5 1.3-4.7 1.8-48 .8-78.9-.5-14 4-31.2 15.9-60.4 5.2-13 9.4-25.2 9.1-27-.5-3.6-1.6-2.2-17.4 22l-9.4 14.2 1.8-21.6a478 478 0 0 0 1.6-37c0-10.6 1.3-21.3 4.6-35 11.7-49.4 14.2-62.4 12.3-64.6-2.5-3-2.5-2.7-13.4 33l-9.2 29.8 6-59.3c5.7-57.7 5.7-65.3 0-56.8-3.8 5.6-4.6-1.5-4.3-36.4 0-18.8-.1-41.3-.5-50-1.3-31.5 1.4-45.1 16.3-82.4 3.9-9.6 11-28 16-40.8 5-12.7 11.4-27.7 14.3-33.1 3-5.5 5.1-11 4.8-12-.5-2.3-11.8 16.6-22 37.2a72.5 72.5 0 0 1-9.5 15.5c-1.5 1-4.7 4.6-7.1 8l-4.5 6.4.7-8.8c.8-10.3-.4-58.2-1.7-70.2-1.2-10 5.2-57.1 11.5-84.8 5.5-24 9.6-36.7 19.3-59.4 7.2-17 9-23.4 4.7-17.2a31 31 0 0 1-6.6 6.4 59 59 0 0 0-10.7 17.3l-6.5 14.6 3.3-28.5c1.9-15.6 4.2-31.4 5-35l1.8-6.5-4.7 3.4-4.6 3.5 3.1-23.2c2.2-15.5 2.6-23.3 1.3-23.4-2.8-.2-1.1-16.9 5.2-52.2 10-56.1 17.5-88 26.2-110.9a391 391 0 0 0 14.3-55.8c1.8-10.8 1.7-12.6-.8-11.9-4.3 1.3-13.2 13.4-16.5 22.4-3.9 10.8-5 8.3-1.6-3.8a92.2 92.2 0 0 0 3-16c.2-5-.2-4.5-3 3.5l-3.2 9.3.6-10c.4-5.5 3.7-19.9 7.4-32 9.5-30.9 9.8-32.6 4-22.7-2.7 4.8-5.6 8.6-6.4 8.6-.7 0-.4-12.6.9-27.9 3.6-44.4 14.8-73 57.8-148a305.3 305.3 0 0 0 11.5-21c.2-3-11.9 12.9-19.3 25.3-4.6 7.7-8.8 13.6-9.3 13a95 95 0 0 0-14.3 18 377.6 377.6 0 0 1-13.8 19.2c-.3 0-.2-5.3.2-11.8.5-10 4.8-26.5 9.5-36.2.7-1.6.5-2.9-.6-3-1.1 0-2.6 1.3-3.3 3.1-3 7.7 3-18.3 11.8-50.3 7-25.3 14-45.3 26.3-74.4a672.9 672.9 0 0 1 55.7-110 444 444 0 0 0 23.3-42.1c.7-9.8-55 75.5-63.5 97.3-1.7 4.4-3.7 7.9-4.5 7.8-2.4-.2-11.9 17.8-19.1 36.3-3.7 9.4-7 16.9-7.3 16.5-.3-.3 2-14.6 5.1-31.7 3.1-17 7.3-48.3 9.3-69.4 5.2-54.6 13-96.5 21.7-117 14.2-33.3 24.3-69.4 19.6-69.8-3-.2-4.2 1.8-11.9 22.3a128.5 128.5 0 0 1-9 20.7c-1 1.2-3.4 5.8-5 10.4l-3.2 8.4-.6-13.4c-.3-7.4 1-27.6 2.9-44.8L880.9 502c4.4-41.3 9.8-86 12-99.6l6.7-43c2.3-15.3 3.3-18.4 6.2-19 2.3-.6 7.8-9.5 16.2-26.1 17.7-35.3 33-63.2 36.3-66.4 6.7-6.5 13-20.5 21.6-47.8 5-16 10-30 10.8-31 1-1 2.6-5.1 3.7-9.3 1.1-4 2.7-8.5 3.5-9.8zm-41.5 203.7c-2.1.8-9 14.3-21.8 42.5-14.2 31-24.8 56.7-23.8 57.9.8 1 22.5-38.4 34-61.7a149 149 0 0 0 10.7-27c1.8-8.1 2.2-12.2 1-11.7zm117.3 261c-2.8.3-6 1.2-7.6 2.2-4.3 2.8-45.2 73.6-49 84.7-1 2.7-.8 4.8.3 5 1 0 2.6-1.9 3.4-4.2.8-2.4 3.3-6.2 5.6-8.5 2.4-2.3 4.4-5.3 4.5-6.7 0-1.4 1-2.5 2.2-2.4 1.1.1 1.6-.7 1-1.8-.6-1.1-.2-2 .8-1.9 1 .1 2.4-1.7 3.2-4a166 166 0 0 1 12.8-20.5l19.4-28.1c4.4-6.5 8.2-12.4 8.4-13.2.2-.9-2.2-1-5-.6zM847 653.4c1.7-2.9-5 49.7-8.1 63.4-10.4 46.4-16 84.7-30.7 212a5741.6 5741.6 0 0 1-21.2 163c-3.2 22.6-6 56.4-8.2 95-3.9 70-10 138.5-14.5 162.6-11.4 60.7-34.3 311.8-40 439.1-7.9 178.3-8.4 222.7-3.8 300.4a634 634 0 0 1 .6 59.4 1152 1152 0 0 0-.6 113c.8 14.7 1.5 32 1.7 38.4.5 28 3.2 91.7 4.6 107.6 2.7 32.6 3.7 57.7 3.2 77.9-.3 11-.2 25.3.4 31.6.5 6.3 1.5 24.5 2.3 40.3a2653.9 2653.9 0 0 0 23.8 245H911c-1.5-2.4-2.8-4.8-4.7-7a70 70 0 0 0-26-19.1c-5-2-16.6-4.1-27.2-5-22-1.8-36 .8-51.4 9.5-7.6 4.3-10 6-12.5 8l-.8.7c-1.1-5.7-2.4-11.1-3.2-17.2-2-15.9-5.4-32.5-6.2-48.3v-.2l.3-.2 1-1.2-1.3 1.4c-.3-.2 1.6-2.1 2.1-3l2.7-1.6a222 222 0 0 0 14.1-10.6 515.5 515.5 0 0 1 46-32.7 76.6 76.6 0 0 0 9.2-7c1.3-1 3-2 4.9-3.2a321 321 0 0 1 13.4-8 220.2 220.2 0 0 0 16.9-10.7s.1-.1 0 0l-.2.7c0-.9.4-1 .6-1.3l.6-.6 1.5-1.2 5-3.3c4.1-2.6 9.8-6 16-9.4 37.7-21 71-45.4 85.8-62.7a80.3 80.3 0 0 1 8.4-8.4l1-.7.3-.5 1.3.1c1.4.1 2.8.8 3.5 2 .8 1.1.8 2.4.7 3.7-.4 2.7-1.8 5.6-4 9a118.2 118.2 0 0 1-21 23.5l-17.8 15.8a105 105 0 0 1-13.8 9.7c-6.2 4-13.7 8.3-21 12.2-29 15.8-43.8 25-56.6 35.4a292 292 0 0 1-24.4 16.8 377.3 377.3 0 0 0-23.6 16c-4.7 3.5-13 9.2-18.5 12.7a166 166 0 0 0-20.3 16.1l-3.7 3.8c4.3-3.3 12-8 19.4-12.2a115 115 0 0 1 18-8.8c2.4-.8 10.2-4.6 16.3-8.2 29-17.4 62.8-31.7 93.1-39.3 11.7-3 26.7-7.4 33-9.9a135 135 0 0 1 13.6-4.6c3.6-1 6-1.4 8.3-.8a4 4 0 0 1 2.6 2.2c.5 1.2.3 2.3 0 3.4a27 27 0 0 1-5 7.6c-2.3 3-5 5-11.7 7.3-6.8 2.3-18 5.1-38.3 10-48 11.6-52.2 13.4-112.5 46.6-5.7 3.1-9.8 5.5-13.8 7.8 34.4-13.5 87.7-22 122.4-19.2 3.8.3 17.9-.4 30.4-1.5 15-1.5 22.6-2.2 26.8-2 2.1.1 3.7.4 4.8 1.8 1.1 1.3.9 2.7.8 3.9 0 1.1-.6 2.4-1.6 3.3a11 11 0 0 1-3.9 2c-3.4 1-8.7 1.7-17.8 3-11.8 1.4-26 2.7-32 2.7l-24 .1a278 278 0 0 0-61.3 9 84.6 84.6 0 0 1-10 2.9 8 8 0 0 1-2.1.2c-.1 0-1.2.1-2.3.5l-3.4 1.5a701.9 701.9 0 0 1-26 11.2 103 103 0 0 0-25.4 13c1.4-.1 3.2-.5 6.3-1.9a195 195 0 0 1 26.3-8.5 93.8 93.8 0 0 1 18-3.1h.1c5.7-.3 12 0 22 .8 10.8 1 16.8 1.5 21.6 2.7a51 51 0 0 1 14.3 6.6 84.7 84.7 0 0 1 34 35.9h248.7c17.3-.7 377.7-.6 382.6 0 4.2.6 5.4 1.2 6.4 3.4 3.7 8.1 3.7 389 0 397.2-1 2.2-2.2 2.8-6.4 3.3-4.9.7-364.8.8-383.1.1a326804.7 326804.7 0 0 0-350.3-.4h-2c5.3 26.5 10.7 52.9 13.8 71.5 1.5 9 5.3 28 8.4 41.9l8.3 38a2889.7 2889.7 0 0 0 32.6 139c2.3 9.5 3.9 19.1 3.6 21.4-1.2 9.7-8.2 28.8-13.9 38.1l-6 9.9-4.3-12c-2.3-6.6-9.8-35-16.6-63.3l-20-82.5a885.5 885.5 0 0 1-11-51.6c-4.3-25.3-12-60.4-21.7-97.5a191 191 0 0 1-6.7-35.9c.2-2.3-1.8-10.6-3-17H774c-276.6.2-595.3.7-616.3 1.3-7 .2-15-.1-18.2-.7-4.6-.8-5.9-1.5-6.9-3.6-3.7-8.1-3.7-389.1 0-397.2 1-2.2 2.2-2.8 6.4-3.4 4.9-.6 365.3-.7 382.7 0h68.8a68.9 68.9 0 0 1 22-15.9 36.3 36.3 0 0 1 20.2-3.5c3.1.1 6.9.4 11.6.8 19.4 1.6 22.8 2.4 36.4 9.4 8.2 4.2 11.8 6.5 16.2 9.2H729c-2.2-21-4.3-41.6-9-78.4-4.6-36.5-6.3-68.4-9-97.7-1.3-12.7-1.7-25.3-2-26-.4-.7-1-18.4-1.4-39.4-1-46.7-1.7-62.8-4.3-90.1-7-76.4-10-174.7-8.4-283.2.3-24.7.4-67.8.1-95.7-.6-69.3.5-107.4 6.2-205.1 2.7-46 4.4-84.5 4-85.5-1.5-2.7 12.3-220.6 18.7-296a6610 6610 0 0 1 14-141.4l12.6-116.8c11.5-110.8 19.5-177.9 24.3-203 1-5.1 4.2-23.4 7.1-40.5a29390.7 29390.7 0 0 0 56.9-309.4 618 618 0 0 1 8-40.5zm-195.5 66c.4 8.1 1.8 16 4.2 24.7 1.9 6.4 2.1 8 3.3 12.3-122.7 0-269.7-.1-289.4-.5a1119 1119 0 0 0-59.9 0c-5.4.6-19 .6-30 .2a937.7 937.7 0 0 0-74.9-.6c-22 .8-27.5.3-33.7-2.9-1.4-.7-3.2-1.3-4-1.3-3.1 0-13.5-4-26.1-10.1-7-3.3-15-6.8-18-7.7-6.1-1.8-16.2-2-18.3-.3-2.2 1.8-2.8 10.2-1.2 16.8l1.4 6-4.4.6a27 27 0 0 1-7.2 0c-2-.3-3.2 0-4.2 1.1-1.2 1.6-1.8 260.1-2 942.1v49l-18.5.3-18.5.3v-513.8c0-282.6.4-514.4.8-515 .5-.8 314.3-1 600.6-1.1zm590.3.4c175 .2 407.2.2 407.5.7.4.7.8 109 .8 240.8 0 237.5 0 239.4-2 235.2-4.7-10.4-13-16.2-23-16.2-4.4 0-4.8-.2-5.3-2.8-.3-1.5-.3-9 0-16.8a62 62 0 0 0-2.6-25.1c-1.6-6.2-3.2-11.7-3.5-12.2-.4-.5-.9-82.8-1.2-182.8a7278 7278 0 0 0-1.6-182.8c-.5-.6-2.8-1-5.1-1l-22.8-.3-18.6-.2-1.8-4c-2-4.5-4.1-6.7-7-7.2-1.1-.2-3.4-2.6-5.1-5.3-4.6-7.3-8.9-11.5-11.6-11.5a45 45 0 0 0-8.8 2.2c-7.2 2.5-10.3 6-11.5 12.5-.3 2-1.6 5.8-2.8 8.3l-2.2 4.5-20.5-.5c-22-.6-42-.3-73.1.8-10.8.4-24 .4-29.5-.1-5.6-.5-32.3-.5-61.4 0h-86.5c.3-12.6 0-25-.8-36.2zm294 23.2c.5 0 3 4 5.4 8.7 2.6 4.8 7.4 14 10.7 20.6 3.4 6.4 8.4 15 11.2 19 17.2 24.6 21.5 34.2 24 53.8 1 7.2 1 10.2-.5 18.8-2.6 16-3.2 16.8-14 20.3l-8 2.6-8.5-3.4c-4.6-1.8-8.5-3.5-8.6-3.6-.2-.2-1-6-2-12.9a58.3 58.3 0 0 1-.3-20.5c1.9-11.6 1.6-19.4-.6-21-1-.8-2.3-1.1-2.7-.8-.5.3-.9-.2-.9-1 0-2.2-3-2-3.1.1l-.3 13.8c-.2 13-1.3 18.2-8.8 39.3-3.6 10.2-4.4 11.6-7.8 13.7-6.7 4.2-19 7-20.5 4.5-.3-.6-2.6-1.5-5-2.1a18 18 0 0 1-9-6c-3.9-4.2-4.5-5.4-4.5-9.1 0-6.4 2.5-15.7 5-18.7a58.4 58.4 0 0 1 12-14.6c5.7-5.4 7-7.6 13.7-21.3 7.3-15 12.3-28.2 12.3-32 0-1.1.7-2.3 1.5-2.6 1.2-.4 1.5-2.5 1.5-10 0-7.2.5-11 2-14.9 1.1-2.8 2-6.4 2-7.8 0-3.4 2.9-13 3.9-13zm-1414 4.7c1.7-.6 6.8 1.8 16.7 6.7 9.4 4.6 18.8 8.7 21 9a78.3 78.3 0 0 1 19.9 6.8c7.2 3.6 23 18.5 28.7 27.2l7.3 10.8c6 8.4 7.3 24.7 2.7 34a74 74 0 0 1-7.4 10.8l-5.3 6.5-6.5-.2c-6.3-.3-6.5-.4-11-5.2-4.4-4.8-8.6-11.5-17.5-28.6-4.6-8.9-6.4-10.6-9.1-9-2.4 1.6-2.7 6.8-.9 13.4 1.2 4.3 1.3 7 .7 11.8a24 24 0 0 0 1.8 15c.6 1.2 1.1 3.3 1.1 4.7 0 1.8.4 2.4 1.4 2 1-.4 2.5.9 4.2 3.5 3.2 5 2.8 7.6-2 12.5-4.3 4.2-8.7 5.6-18.5 5.6-7.3 0-7.4 0-11.1-4-4-4.1-6-9.1-8.5-20.5-2-9.5-2-37.2 0-48.7 2-10.8 2.3-29.1.8-37.8-.6-3.6-3-10.5-5.3-15.3-3.3-7-4.9-10.5-3.2-11zm523 35.2c.8.5 1.2 1.7 1.2 3.3 0 3.4-1.3 6.1-4.9 10.3-1.4 1.6-5.7 7.6-9.4 13.2-6 9-6.8 10.5-6.2 13.3.6 2.6.3 3.7-1.8 5.8a35 35 0 0 0-5 8.2c-1.4 3-4 8.8-6 12.8s-3.9 9.4-4.3 11.9a29 29 0 0 1-5.2 11.2 70.1 70.1 0 0 0-6.4 11.5 46 46 0 0 1-25.3 23.6c-.5 0-3.6-1.2-6.9-2.5-5.4-2.2-7.5-3.8-7.6-5.8 0-.4-.9-.7-2-.7-4.1 0-5.2-2.8-4.7-12 .6-12.4 4.3-20.4 23.2-50.8 3.2-5.1 5.5-9.6 5.2-9.9-1-1-11.1 7.4-18 15-3.6 4-10.2 11.7-14.7 17.2a66.6 66.6 0 0 1-22.7 19.1c-4 1.7-18.4 1.8-20 .2-.8-.7-1.3-4.2-1.3-8.8 0-8.6 1.6-12.6 10.5-26.5A74.6 74.6 0 0 1 542 816l17.2-9.3a136 136 0 0 1 36.2-14.3l11.2-3c6.5-2.2 24-5.5 29.2-5.5 2.5 0 5.3-.4 6-1 1.2-.7 2.2-.7 3-.1zm716.2 1.4c5.2.2 9 1 11.7 2.4l9.8 5.1c3.3 1.7 7 3.2 8.2 3.2 2.6 0 12.9 7.6 19.5 14.5a43.2 43.2 0 0 1 11.4 20.3c2.2 8.6 1.4 36.6-1.4 47.2a120 120 0 0 0-2.6 14 65.9 65.9 0 0 1-14.4 35.6c-3.2 4.3-8.4 10-11.5 12.8-7.8 6.6-7.5 7.7 1.6 5.4 16.7-4.1 25.8-5.2 46.2-5.1 16.2 0 20.7.3 23.8 1.6 2.3 1 5 1.4 6.8 1 4.9-1 14.2 3.8 42.6 22a79.9 79.9 0 0 1 27.7 32.1 173.3 173.3 0 0 1 19.5 56.4c1.5 9.7 1.5 27.2 0 27.2-.9 0-16.8-9-18.8-10.7-.2-.2-1.2-7-2.2-15.3-2-17.2-3.7-23.8-7.7-30a581 581 0 0 1-7.7-12.7 111 111 0 0 0-23-26c-5.6-4.3-14.7-8.7-30.5-14.8-22.5-8.8-35.4-11-51.5-8.6-16.7 2.5-30 5.4-39.3 8.6a121.6 121.6 0 0 0-31.9 15.8c-6.5 4-14.3 8.8-17.3 10.5a88 88 0 0 0-10 7c-22.3 18-25.5 21.6-32.8 35.2-5.9 11-12.2 30-13.3 39.7-.5 4.5-1.9 11-3 14.5-2.1 5.7-2.3 8.1-2.3 24.8 0 26.2 3.7 48.7 12.3 75 5.7 17.2 19.6 44.4 23.8 46.1.5.2 4 5 7.7 10.7a334 334 0 0 0 56.3 62.2 373 373 0 0 0 20.8 15 649 649 0 0 1 28.8 20.8 176 176 0 0 0 16.8 12.2c.6 0 4 2.4 7.5 5.5 3.6 3 13.2 10.2 21.3 16a385 385 0 0 1 19.7 14.8 514.2 514.2 0 0 1 42.2 44.3c.3-.3-1-3.6-2.8-7.3a46 46 0 0 1-3.4-8.2c0-.9-.7-2.6-1.3-3.7a147 147 0 0 1-4.8-12l-6-16-8.8-23a793 793 0 0 0-8.5-21.5l-5.4-12a205 205 0 0 0-8.5-16 375 375 0 0 1-23.8-47.4c-3-7.7-6.6-16.3-8-19-7.1-15.5-12.5-34-12.5-43.3 0-4.4 1.6-16.2 2.2-16.7.2-.2 1.8 0 3.6.2 3.4.5 5 2.4 6.3 7.8 1 3.8 3 9.4 4.1 11.8.5 1 1.1 8.2 1.3 16 .4 16 2 22.5 7.7 32.2 7.1 12 21.2 34 24 37.6 1.5 2 4.3 6.5 6.2 10 4.2 8 9 16.3 14.6 25.4a522 522 0 0 1 27 55.5l4 11a1331.7 1331.7 0 0 1 11.5 32c5 13.4 10.8 32.4 13 42.5 1 4.4 4.1 15.2 7 24a370.2 370.2 0 0 1 12.2 45.5c3.2 13.5 5.7 42.6 5 58-1.2 23-6.2 45.7-13 58.8l-9.6 19.2a213.3 213.3 0 0 1-27.7 43.2 133.3 133.3 0 0 1-32.6 32.2c-5.6 4.2-12.5 9.5-15.3 11.8-2.7 2.2-12.3 7.6-21.1 12-9 4.2-19.5 9.7-23.5 12.1-4 2.4-22.6 11.9-41.3 21.2-27.8 13.7-35.4 18-42 23.3a299.8 299.8 0 0 0-50.5 51.7 758 758 0 0 0-53.6 77c-4 8.5-7.1 19.1-7.9 26.5-.4 5-.4 5.3 1 3.5.8-1 1.4-2.8 1.4-3.8 0-2.4 9.5-15.6 19.4-27a70 70 0 0 0 7.6-9.5c0-.5 5-5.8 11-11.6a234.9 234.9 0 0 1 44.4-32.1 275 275 0 0 1 54.7-19.4c9-1.4 33.1-3.1 47.4-3.3a67 67 0 0 1 22.5 2.5 130 130 0 0 1 43.8 19.5c12.6 7.8 16.2 11 29.2 24.8 19.4 20.7 29 35.8 41.7 65.6 12 28.3 13.4 35.9 10.8 60.4-2.4 23-9 45-19.6 65.4a129.4 129.4 0 0 1-27.3 36.8 114.7 114.7 0 0 1-38.5 28.1c-8.3 4.5-16.2 8.7-17.4 9.5-3.3 2-18.4 6.2-33.7 9.2a98.3 98.3 0 0 1-31.5 2c-26.3-1-26.4-1-37.7-6.9a57.7 57.7 0 0 1-18.7-14.4 131.9 131.9 0 0 1-34-64.8c0-1.3-1.3-5.4-2.7-9.1-2.5-6.7-2.6-7.4-2.1-25 .4-16.7.6-18.2 3-22.4 1.3-2.5 3.4-7.2 4.7-10.5a91 91 0 0 1 19.3-27.2c5.7-4.3 29.1-17 34.7-18.8 2.5-.8 10-1.9 16.5-2.4a106.2 106.2 0 0 0 15.5-1.9c0 1.6-6.4 14.4-7.6 15-.7.5-1 1.5-.8 2.2.7 1.7-.4 2-12.4 4-5.1 1-11.9 2.6-15 3.8-14.1 5.2-33 23.1-37.7 35.9l-3 7c-5 9 2.6 51.8 12.7 72.9 4.9 10 5.7 11.1 18.7 24 13.5 13.4 13.7 13.5 25.6 19l12 5.5 12.5-.2c21.6-.2 34.6-1.9 46.1-5.9 27.5-9.6 45.5-23 63.9-47.8a157.6 157.6 0 0 0 25.4-46.9c7.8-21.7 10.5-34 10.7-50.2.3-14.7.2-15.1-6-36a96.6 96.6 0 0 0-15.7-33c-19-28.9-38.7-46.7-64.6-59-12.9-6.1-16.5-6.8-37.8-6.7-15.9 0-20.3.4-31.4 2.7a182.6 182.6 0 0 0-40.7 14c-3 1.5-9.2 5.5-13.9 9l-24 17a265 265 0 0 0-72.1 80.5 66.7 66.7 0 0 0-10.3 24c-4.8 18.3-4.8 45 0 65.5a221 221 0 0 0 9.4 33 409 409 0 0 0 12 30c4.4 9.5 17.8 30.2 34.5 53.5 18.3 25.3 19.9 28 25.3 41.2a244.6 244.6 0 0 1 14.7 49.8 168 168 0 0 0 6.4 26.8c2.6-20.9 4.4-29.6 8.6-42.8 1.3-4.1 4-14.8 6-23.6 6-27.2 14.7-56 18.1-60.3.8-1 13.6 2.4 14.4 3.8 1.4 2.7-2 35.2-5.5 52a144.6 144.6 0 0 0-4 29.2c.4 1.5 0 5.4-1 8.7a541.3 541.3 0 0 0-11.1 76.6 179 179 0 0 0 2.7 42.2c.7 1.6 1.5 7.2 2 12.4 2 23.6 4 35.8 11 69.7 1 4.9 1.6 5.6 12.7 15.5 26.9 23.8 32.3 27.5 42.8 28.8a23 23 0 0 1 10.4 3c2.4 1.8 11.4 7.9 30.7 20.7 4.5 3 9 6.6 9.8 8a10 10 0 0 0 4 3.3c1.3.5 5.2 4.4 8.6 8.7 3.3 4.3 6.8 8.3 7.6 9 .8.6 1.6 3.4 1.9 6.4.6 7-2.2 12.7-9.7 19.1l-5.6 4.8-6.9-6.8a252.8 252.8 0 0 0-33.7-25.5c-4.8-3.1-6.6-3.7-11.1-3.7-9.7 0-23.8-6.2-40-17.4a61.4 61.4 0 0 0-10.8-6.6c-.8 0-2.3.6-3.3 1.4-1.4 1-2.5 1-4.1.3a6 6 0 0 0-4-.3c-1.4.5-1.3.8.7 2.4 2 1.7 2.3 3 3 15.8a203 203 0 0 0 7.5 48.9l.6 2-1.6-2c-1.7-2-1.7-2-1 .5a61.2 61.2 0 0 0 3.4 9.5c0 .8-24.9 10.1-50.7 19a170 170 0 0 0-19.6 7.4c-.8.6-2.7.8-4.6.5-2.4-.5-3.7-1.6-5.2-4.8a56.8 56.8 0 0 0-6-8.8c-2.1-2.6-3.9-5-3.9-5.5s-3.6-3.9-8-7.6l-8-6.8-4.3 1.5a88 88 0 0 0-14.1 8 232 232 0 0 1-24.1 13.6c-13 6.3-15.2 7-25.3 8.4-6 .9-12.2 2-13.7 2.6a199 199 0 0 1-13.9 3.7c-9 2.2-13.2 2.7-22 2.5a76 76 0 0 1-27.5-3.8c-3-1.5-4.2-1.5-10.3-.4a156 156 0 0 1-38.3-1.2c-5.7-1-24.5-7.2-31-10.3a210 210 0 0 0-9.4-4c-12.2-4.8-20.7-11.3-18.3-13.7.7-.7 1.2-3 1.2-5.3 0-4.6.6-5.7 3.8-7.4 1.6-.9 2.8-.9 4.2-.1 1.4.7 3.2.8 5.5.1 3.8-1 5.3-.4 12.4 4.7a16 16 0 0 0 7.3 3.2c2.5 0 2.8.3 2.8 3 0 3.3 3.8 8 6.5 8 .8 0 6.3 1.4 12.3 3.1a64.8 64.8 0 0 0 23.7 3.2 47 47 0 0 0 19-2c5.1-1.9 7-2.1 12.5-1.4 3.6.5 6.8.6 7.2.4a52 52 0 0 1 6.5-1.4c5.7-1 23.2-7.8 32.7-12.6 2.7-1.4 6.7-4.5 8.9-6.9 2.2-2.4 4.8-4.6 5.9-5 2-.6 4.8-6 8.9-16.4 1.1-3 2.8-7 3.6-8.7 2.3-4.8 1.4-6.5-5-9.7-11-5.6-30.9-4.5-64.8 3.4-25 5.9-47.7 9.3-57.3 8.7-7.7-.5-8.3-.4-28 6.3-25 8.5-27.6 9.6-35.2 15.3a24.8 24.8 0 0 0-9.6 11.9c-5 10.2-6 14.2-6 21.2 0 8 1.7 11.2 10.4 19.7a59 59 0 0 0 24.8 14.6c5.7 2.2 8 2.5 18.6 2.5 12.3 0 14.4-.5 18.7-4.3 5.6-5 16-12 18.1-12 2.6 0 5.6 3 5.6 5.4 0 1.1.8 1.7 2.4 1.7 1.3 0 3.1.9 4.1 2 1.8 2 1.7 2-3.6 4.4a41 41 0 0 0-12 9.2c-9.2 9.6-11.4 10.5-28.9 11.5-8 .4-16.3 1.3-18.5 1.8a296 296 0 0 1-13.7 3l-5.7-1.5a66.2 66.2 0 0 1-39.7-31.9c-3.8-7.7-3.9-8.2-3.9-18.5 0-10 .3-11 4-20a93 93 0 0 1 18.5-29.5c3.6-3.7 6-7.3 6.5-9.3.8-3.8 4.7-7 12.8-10.7 7.2-3.2 16.1-5 35.7-7 8.5-.9 18-2 21-2.6 3-.5 9.4-1 14.4-1a55 55 0 0 0 22.2-4c.5-.5 2-.6 3.1-.3 4 1 30.7-6 49-12.7a58.6 58.6 0 0 1 11.1-3.5 284 284 0 0 0 38.7-20.1l7-4.8 3.8-12a693.3 693.3 0 0 0 13.4-50.5c1.5-7.2 1.8-13.2 1.8-39 0-34.7-.7-41.1-8-76.5-6.1-29.9-9.7-39-20.5-51.4-10.6-12.4-19.6-14.8-37.4-10.2-7.7 2-9.6 3-13.7 6.8a63 63 0 0 0-14.5 19.5c-1 2.7-2.1 4.2-2.5 3.5-.4-.6-1 .1-1.4 1.8a282.8 282.8 0 0 0-12.5 40.4c-2.4 3.7-3-1.5-2.7-20a66 66 0 0 1 20.8-53.9c16.5-16.6 30.4-23.5 48.7-24.2l9.2-.5-3.4-6.5a773 773 0 0 1-21.7-52.3 252.6 252.6 0 0 1-21-58 438.8 438.8 0 0 1-7-54.3c-1-19.2.7-47.7 4.3-66.2 7.8-40.7 14-63.6 28.7-105.5a491.5 491.5 0 0 1 13.1-36 141 141 0 0 0 8-27.8c0-1.5 1.1-5.5 2.5-8.8 1.4-3.6 2.9-10 3.5-15.7.6-5.4 2.3-15.8 3.7-23.2a122 122 0 0 0 2.5-33.5c-.1-11-.9-25-1.6-31-3.6-28-3.8-31-3.2-40.9a261 261 0 0 1 2.6-21.5c1.1-6.2 2-12.4 2-13.8 0-2.3.1-2.3 5.3 1.5 2.9 2.2 6.2 4.4 7.3 5 2 1 2.2 2.1 3 24.4.4 12.8.7 30.4.6 39.1a102 102 0 0 0 1.4 23.5c1.4 6.3 1.7 13.2 1.7 37.7v30l2-3c12.3-16.5 45.8-46.6 83.7-75.1 5.8-4.3 11.4-8.7 12.5-9.7a6 6 0 0 1 3.2-1.7c.7 0 3.7-1.5 6.6-3.3a68 68 0 0 1 8.2-4.4l14-5.3a180.8 180.8 0 0 0 27.5-12.3c.8-.7 3.3-1.9 5.5-2.6 4.2-1.4 7.8-3 20.5-8.8 7.3-3.4 20.1-12.2 35.7-24.6 27.9-22.1 35.1-30.6 41.8-49.2 2-5.5 4-10.5 4.6-11a55 55 0 0 0 3.5-8.1c2.5-6.6 2.7-7.8 2.7-27 .2-23.6-1.5-36-7.3-53.4-4.8-14.8-10-25-20.5-40.7a159.5 159.5 0 0 0-33.3-37.8 171.6 171.6 0 0 0-64.2-27.2c-7-1.5-13.3-1.8-35.5-1.8-28.9 0-29 0-54.8 6.6-14 3.6-30 11.5-48.2 24-5.1 3.5-8.7 7-13.1 13.1a203.9 203.9 0 0 0-25.8 42.8c-2.2 4.1-3.8 9.5-9.2 31a69.6 69.6 0 0 0-1.7 19 75.7 75.7 0 0 0 6.8 34.3 25 25 0 0 1 3.5 11c0 8.1 11 23.1 24.3 33 12.7 9.5 14 10 31.2 10.4 12.2.3 15.9.7 19.7 2.3 6.7 2.8 32.6 2.9 44.3 0a74 74 0 0 0 30.7-13.7c20.4-13.4 30-23.5 31.4-33 .4-2.9 1.8-5.8 4-8.5a56.6 56.6 0 0 0 13.6-34.3l1.5-15.7c.3-3 0-6.4-1-9-.9-2.4-1.8-6.4-2.2-8.9-.3-2.5-2-7.4-3.6-11-3.6-7.5-15.2-24-20.6-29-2.1-2.1-5.6-7-7.8-10.9-2.1-4-5.3-8.8-7.1-11-1.8-2-4.2-6-5.2-8.9l-2-5.1 2.5-2c5.3-4.2 10.5-2 17.9 7.1 7.9 9.9 10 13 13.5 19.4 1.8 3.3 4.6 8 6.1 10.4 1.6 2.5 2.8 5.3 2.8 6.4 0 1 .9 3 1.9 4.5 4.8 6.9 12.7 25.6 17.2 41.2 3.8 12.7 1.8 28.1-6.2 49.5a83.3 83.3 0 0 1-17.3 29.3 50.5 50.5 0 0 0-8.6 12c-4.1 9.7-15.3 17.3-36.8 25.4a109.5 109.5 0 0 1-31.5 8.8l-15.7 2c-10 1.7-45.8 3-50.7 2a82 82 0 0 1-24.3-11.8c-11.7-7.4-13-8.7-23.7-23.7a171.2 171.2 0 0 1-28.4-64 111 111 0 0 1 1.1-37.6c0-2 .9-6.5 2-10l4.4-15a54.3 54.3 0 0 1 5-12c1.3-1.9 4.6-8 7.4-13.4 2.7-5.5 7-12.5 9.4-15.5 2.4-3 6-7.8 7.8-10.5 5.4-7.8 20.8-23.3 28.6-28.5 19.1-13 32-18.3 61.4-25.4 24-5.7 27.5-6.1 53.5-6 25.5 0 31 .7 51 5.9 36.5 9.5 62.7 24.3 80.7 45.4a135.2 135.2 0 0 1 19.3 28.6c2.1 3.8 4 6.4 4.3 5.7.4-1.2-1.8-11-4-18.2-6-19.3-16-39.8-25.9-53.3a290.9 290.9 0 0 0-29.4-30.7 155 155 0 0 1-18-15 510.8 510.8 0 0 0-70-53.4 181 181 0 0 1-14-10c-5-4-11.3-8.9-14.2-11-3-2-5.3-4.2-5.3-4.7s-.7-1-1.6-1c-4.5 0-20-15-36.2-35a278.2 278.2 0 0 1-56.4-104 191 191 0 0 1-10-60 91 91 0 0 1 3.7-30.4c8-32.2 22.5-64.2 40.6-89 15.7-21.8 29.5-35 59.7-56.9 8.6-6.3 17.5-13.3 19.7-15.5 2.1-2.3 4.5-4.1 5.1-4.1a95 95 0 0 0 16.7-20.5c3-6 11.7-27.3 13.3-33 .8-2.7 1.4-6.3 1.4-8 0-1.7.7-5.5 1.5-8.5 3.2-11.8 1.2-22.1-7-36-4-6.9-5.6-8.6-11.8-12.7a89.7 89.7 0 0 0-33.3-12c-6.6-.6-17 .8-24.7 3.3a106.4 106.4 0 0 0-32 22.5 41 41 0 0 1-10.7 8.9c-2.6 0-8 10.5-8.7 17.3-.3 3-1.2 5.6-2 6-1.7 1-1.4 6.1 1.4 29 .8 7 1.3 13 1 13.3-.2.2-1.6-1.8-3-4.6-2-3.7-2.5-5.4-1.8-6.8.7-1.2.2-4.7-1.5-11.7a77 77 0 0 1-2-34.5 71 71 0 0 1 39.6-47c3.1-1.2 4.7-2.5 5-4.1.7-2.8 1.6-3 23.5-5.5a142 142 0 0 1 20.5-1.1zM205.6 862c.7 0-1.6 3.8-2.8 4.6-.6.3-.3-.6.6-2 1-1.4 2-2.6 2.2-2.6zm134.8 7.8c12.1-.8 48.7 4.8 63.5 9.8a158 158 0 0 1 41 21.6 121 121 0 0 1 23.5 19 197.7 197.7 0 0 1 34 47.7c1.5 3 3 5 3.5 4.5.4-.5 1-4 1.3-8 1.7-21.6 5-47 6.2-48.2a4 4 0 0 1 1.7-.6c2.5-.3 3.8-1.7 3.8-4a50 50 0 0 1 4.5-13.7c1.7-2.7 4.6-3.8 7.1-2.7 5.1 2.3 5.5 10.3 1 20.2-2.6 5.7-5.6 29-5.6 44 0 4.5-.5 10.1-1.1 12.6-2.7 11.2-.5 35.2 3.6 40.1 1.6 2 2.4 4.5 2.8 9 .7 7.4-.6 35.6-2.2 50.9l-2.2 20.5c-2 19-6.7 33.1-20 59-8.5 16.8-11.2 21-21.7 33.8-3.5 4.3-7.8 10.4-9.6 13.5a130.8 130.8 0 0 1-15.6 22.7 362.2 362.2 0 0 1-37 35.5 57 57 0 0 0-8.9 6.8c-2.5 2.4-8.4 7.3-13 11a381.7 381.7 0 0 1-59.8 43.2c-.5 0-3.3 1.7-6.1 3.9-6.3 4.6-5.3 5.5 4.6 4.2 3.7-.5 17.3-1.3 30.2-1.6 19.6-.6 25-.5 32.1.9a362.3 362.3 0 0 1 49.9 15 196.8 196.8 0 0 1 41.5 28.5c6.5 6 22.5 29 28.3 40.7A158.4 158.4 0 0 1 539 1476c1.2 16.4 1.1 16.6-1.9 35.5-4 25.2-6.8 32-23.7 57.5a112 112 0 0 1-18.5 22.3 108 108 0 0 1-13.4 11.4 30 30 0 0 0-4.9 3c-2.4 2.2-3.4.9-4.5-6.2l-1-6 6.4-6.5a154 154 0 0 0 27-39l5-12.5a72 72 0 0 0 3.8-11.5l2.2-13.3a100 100 0 0 0 .5-28.7c-1.8-29.7-4.7-42.5-13.2-59.5a104.8 104.8 0 0 0-30.8-38.3l-13.5-11.4c-4.7-4-25.6-13.2-39.2-17.3a178.8 178.8 0 0 0-53.9-7c-16 0-19.4.3-31 2.8-28.1 6-60.8 19.8-78.8 33.3-12.3 9.3-32.4 28-39.8 37.2a295.2 295.2 0 0 0-37.5 64.7c-8.2 23.8-11.2 46.8-8 61 .8 3.3 1.7 9.1 2.1 13 .7 7.1 3.1 17.3 6.7 28.5 2.5 8 15.6 32.7 21.2 40.3 4.6 6 18.9 22 28.1 31.2a1454 1454 0 0 0 66.5 60c9 8.3 22 19 34.8 28.5 6.6 5 18 15.2 29.5 26.7 21 21 20.5 21 17.2 5.1a377.1 377.1 0 0 1-7.6-73.8c.1-18.5.2-19.5 2.3-21.8 1.7-1.7 3.1-2.2 5.7-2 6.6.6 8 5 11.1 34.8a335 335 0 0 0 4.5 26.5 374 374 0 0 1 4 22.5c1.6 15 11 46 17.3 57.5a33 33 0 0 0 10.7 12c14.4 10.9 41.7 41.6 55.7 63a302 302 0 0 1 34.3 73.6c3.8 13 9.4 41 12 59.8 3.7 26.6 1.1 54.7-8.1 89-7.4 27.6-25 72.5-31 79-1.3 1.5-26.4 51.3-26.4 52.4 0 .3-1.6 2.8-3.5 5.7a22 22 0 0 0-3.5 6.5c0 .9 2.3 1.5 7 2 6.6.6 7.2 1 13.4 6.3 7.2 6.2 9.5 10 15 25.2 4.6 12.7 5 16 3.1 25.5a391.7 391.7 0 0 0-7.1 47.5c-.7 10.4-2.5 15-5.5 14.2-2.9-.7-5.2-8.1-4.5-14.4 1.4-12.3 1.8-42.8.6-49.7a74 74 0 0 0-11.3-25.9c-3.1-3.4-9-4.7-12.7-2.7-1.6.8-3.7 2.6-4.5 4a7.9 7.9 0 0 1-4 2.9 40 40 0 0 0-13.5 15.3c-.6 1.8-1.7 3.3-2.4 3.3-1.2 0-3.6 4-3.6 6a22 22 0 0 1-3.4 5.7c-1.8 2.6-5.7 9.5-8.6 15.3-6 12.3-9 18.1-13.5 27a152.6 152.6 0 0 0-12.1 50.5c-.6 8 .2 15.6 3.2 31 .8 4.4 1.9 11.6 2.4 16a969.8 969.8 0 0 0 6.9 44.5 49 49 0 0 1 1 9.2c.1 2.7 1.2 9 2.6 14a153 153 0 0 1 3.5 21.8c1 12.2 2.1 20 4.2 29 .5 2.5 1.4 7.4 1.8 11a113 113 0 0 0 11.9 41.8 160 160 0 0 1 6.6 14.7c1 2.7 2.3 6.2 3.1 7.7 1.4 2.5 1.3 2.7-1.2 4-1.5.7-4.1 3.3-5.8 5.8a28.8 28.8 0 0 1-11 9c-16.8 9.5-28.8 11.4-35.5 5.7a13.2 13.2 0 0 0-4.2-2.7 43.4 43.4 0 0 1-18.4-19.1c-2.4-4.6-7-7.7-13.8-9.5a13 13 0 0 1-4.6-2.5c-1.6-1.6-2.9-1.8-6.3-1.3-7.5 1-25.6 12-38.1 22.8-5 4.4-10.4 8-15.4 10.2l-13.8 6.4c-17 8.2-26.3 12.2-29 12.5-6.7.7-28.7 12.4-37.5 19.9a54.5 54.5 0 0 1-24.5 12.2c-8.5 1.5-15.5 1.7-17.5.4-.8-.6-3-1-5-1a52.5 52.5 0 0 1-35.8-19.6 89.9 89.9 0 0 0-6.7-9.4c-9.4-11.4-10.2-26.7-2.2-41.7 3.7-6.9 19.3-24.5 23.8-26.9l2.7-1.3.6 7.6c.6 6.4.5 8-.8 8.9-.9.6-1.6 1.7-1.6 2.5s-1 3.2-2.4 5.3c-2 3.2-2.2 4.5-1.4 6.5.6 1.4.7 5.4.4 8.8-.5 4.6-.2 7 .9 9.2 3.6 7 11.7 12.4 25 16.7l7 2.2 4.8-2.6a38 38 0 0 0 8-6c8.7-9.5 16.3-16.2 18-16.2 1 0 3.9-4 6.8-9.3 2.9-5 7-11.9 9.2-15.1 3.8-5.6 4-6.5 4.2-13.7.2-5.5.8-9 2.3-12a171 171 0 0 0 8.7-32.1l3-15.8a114 114 0 0 0 2.1-14.5 593 593 0 0 0 3.9-57c.4-13.2 1.1-26.3 1.7-29l1.8-12.5c.5-4.1 1.5-9.8 2.3-12.5l5-16.5c3.8-12.6 9-26.9 11.3-31.3a120.6 120.6 0 0 1 10-24.2c1.3-3.2 2-6.2 1.7-7.9-.3-1.6 0-3.4 1-4.4a28 28 0 0 0 3.1-6.2c1-2.5 4.9-10 8.7-16.6 3.8-6.6 7-12.9 7-14a5 5 0 0 1 1-3 96 96 0 0 0 2.1-17.9c1.2-17.6 0-51.2-2.3-64.5-5.5-33-8-41-22.4-70.8a559.6 559.6 0 0 1-10-21.2c-.3-1-2.9-5.9-5.7-10.7a90 90 0 0 1-11.8-35.4c-2-12.1-2-13.1-.5-15.5 1.7-2.6 4.2-3.9 9.7-5 2.8-.4 3.6-.1 4.8 1.8.7 1.2 1.5 4.5 1.5 7.3.3 9.6 18.6 53 29.1 69.1 4 6.2 11.7 21.3 14 27.8a68 68 0 0 1 2.5 10.5c.5 3.6 2.5 11.3 4.4 17 6.5 20.3 7.3 25.8 8.4 54.5.5 11.9 1.1 22 1.5 22.3.3.3 1.3 0 2.1-.7a278 278 0 0 0 17.1-27.7l3.4-5.8c.5-.6 4-7.3 7.9-15 3.8-7.8 9-16.8 11.6-20a639.3 639.3 0 0 0 45.4-74c9-15.4 15-63.2 10.7-83.4-.8-3.6-2.2-10.7-3-15.6a194.4 194.4 0 0 0-13.8-41.7c-3.5-7.2-5.9-10-17.2-21.4-18.3-18.2-27.9-27-31.4-28.8a162 162 0 0 1-10.8-7.2 51.9 51.9 0 0 0-23.2-10.8 174 174 0 0 0-68.3 1c-1.3.3-2-1.3-3.9-8.7-1.2-5-4-12.7-6.1-17a80.4 80.4 0 0 1-3.9-8.8c0-1.2 26.8-7 35.3-7.6 19-1.5 54 5.1 76.7 14.5 8.2 3.3 33 17.8 33 19.2 0 .5-.4.6-1 .3-.5-.4-1-.4-1-.1 0 .3 1.4 1.3 3.1 2.1 3.3 1.8 18.5 16.4 29 28 9 10 16 21.2 27.4 43.8l10 19.8.6-6.8a112 112 0 0 0-1-35.3 307.8 307.8 0 0 0-24.4-65.2c-6.4-13.5-17-29.7-26-39.5a229 229 0 0 1-12.2-14.8 230.3 230.3 0 0 0-18.8-20.5c-7.1-6.9-19.7-19.5-28-28a1350.8 1350.8 0 0 0-61.4-60.2 1167 1167 0 0 1-39.8-35 544.5 544.5 0 0 0-62-49.3c-19.8-13.1-20.5-13.5-24.1-13.5-6.6 0-21-6.1-22-9.4a7.5 7.5 0 0 0-2.2-3.3c-1.4-1-1-1.3 2.7-2.4 3.6-1 4.6-2 6.7-6.1 1.4-2.6 2.9-4.8 3.4-4.8s4 1.1 7.6 2.5c3.7 1.4 7 2.3 7.2 2 .3-.2 1.3 0 2.4.6 2.8 1.5 3.7-1.8 1-3.7-1.2-.9-2.2-2-2.2-2.5s-2.7-6.5-6-13.3a276 276 0 0 1-16.8-47.6c-.6-3-1.3-9.1-1.6-13.5-.3-4.4-1-13.4-1.8-20-.7-6.6-1.2-17.9-1.1-25a80 80 0 0 1 3-24.5 237.1 237.1 0 0 1 51.8-95.3c13.6-14.9 26.8-26.6 61.5-54.5 3.6-2.9 9.4-6.8 13-8.6 6.4-3.3 28.3-16.4 39-23.5 3-2 6.7-4.1 8.2-4.8 1.4-.6 5-3.1 8-5.5s9.4-7 14.4-10.3a98 98 0 0 0 38.7-43.6c8-16 9.1-21 8.3-38.7-.7-14.3-.7-14.4-5.2-24.5-5.7-12.6-5.3-12-6.8-10.8-1 .8-2.1-1-5-7.7a48.8 48.8 0 0 0-14.3-21.7 17 17 0 0 1-4.2-3.8c-.2-1.6 2.1-.5 6.2 3l4.2 3.8-4.3-5.2c-5.1-6.2-10-10-24.3-18.3-8-4.7-12-7.8-16.6-12.8-9.6-10.9-10.6-12.5-10-16.9.3-3.1-.5-5.8-4.8-14.8-9.3-19.4-10.2-24-5.6-28.6 5.7-5.6 13.3-2.6 14.6 5.8.4 2.6 1.6 6 2.6 7.4 1 1.5 2 3.8 2 5.1 0 3.7 4 9.1 15.3 20.6a287 287 0 0 0 34.2 29.6 81.4 81.4 0 0 1 23.8 28.2c3.2 6 6.8 11.8 8 12.9 4.5 3.8 11.5 25.4 14.1 43.2 2.3 15.1 1.5 36.6-1.5 39.8-3 3.2-2.4 3.7 1.8 1.6 4.6-2.4 11.2-7.4 26.4-20.2a180 180 0 0 0 30-31c3-4 6.6-8.3 7.8-9.4 2.7-2.4 14.9-19 21.6-29.5 2.7-4.1 5.6-8.4 6.6-9.5 1-1 4-6.1 6.5-11.3 2.8-5.6 5.4-9.7 6.5-10 2-.5 2.6-2 3.4-9.2a59 59 0 0 1 2-10c1.4-4.6 1.4-19.4 0-46-.8-14.7-4.6-34.8-9.2-48.7a148 148 0 0 0-20-39.2c-2.3-2.6-6.3-9-8.8-14.1a156 156 0 0 0-23.1-33.6c-10.6-10.9-35.7-24.9-58.4-32.5-11-3.7-12.2-4-24-3.9-7 0-19.6.7-28 1.4a87 87 0 0 0-27.2 5.5c-19.4 6.7-24.2 8.7-30 12.3-3 2-7.1 3.8-9.3 4-2.5.5-5.9 2.3-9.5 5.2-8.6 7-15.9 11-19.8 10.8-4.8-.2-6.6-1.9-5.9-5.6.8-4 3.3-6.6 14.3-14.8 5-3.7 9.5-7.3 9.8-7.8a81.3 81.3 0 0 1 21.4-12.5c25.5-11 50.8-18.7 65.6-19.7zM191.8 876c2.7 0 14.2 12.9 18 20 2.4 4.5 3.3 7.6 3.7 13.6a43 43 0 0 0 5 17.3c2.4 5.1 4.4 9.8 4.4 10.3 0 1.7 11.4 20.3 15 24.5a87 87 0 0 1 8 12.3c6.9 12.4 9.8 16.3 12 15.7 1.2-.3 2-.1 2 .3 0 1.4-4.2 4-6.4 4-1 0-1.6.3-1.3.6 1 1-1.1 4.4-2.7 4.4-.7 0-2-1-3-2-1-1.1-2.9-2-4.1-2-3.1 0-9.2-7-18.2-20.8-4.1-6.5-8.6-12.8-9.9-14.2a92.7 92.7 0 0 1-14-34.2c-.4-.6-1-4.7-1.4-9-.6-6.5-1.5-9.5-5.2-17.1-3.7-7.4-4.5-10-4-12.7.2-2 .8-4 1.3-4.6.4-.5.4-1.6-.1-2.5-1.5-2.3-1.1-4 1-4zm463.4 8.1c-.2 0-.4.7-.5 1.9-2 19.2 7.4 63.8 20.6 96.8a506 506 0 0 1 11.6 33.6c6 20.3 14.3 41.6 16 41.7 3.8.3-7.2-38.8-22.4-79.3a385.6 385.6 0 0 1-22.2-79.4c-1.5-10.4-2.5-15.4-3.1-15.3zm876.2 13.1c.2.2-.4 4-1.2 8.4-1.4 7.5-2 8.8-7 15-3 3.8-5.9 7.7-6.4 8.6-1.2 2.2-1.4 2.2-6.6-.5-3.8-1.9-5.8-4.7-3.4-4.7.5 0 6.1-6.1 12.6-13.5a219 219 0 0 1 12-13.3zM1009.7 945c-.2 0-.7.4-1.7 1.3-7 6.3-57.1 72.5-76.6 100.9-21.5 31.5-47 73-47.3 76.9 0 .9 4.2-5 9.3-13 5.2-8 16.6-24.3 25.2-36.2 8.7-12 19.4-27 23.8-33.5 4.4-6.5 12.4-18 17.8-25.4 5.4-7.4 14.6-20.9 20.4-29.9a461 461 0 0 1 19.8-28 61.2 61.2 0 0 0 9.3-13zm-814.5 9c.7.5 2.5 3.4 4 6.4l3 5.4-2.7 5.9a125 125 0 0 1-11.6 17.4c-20 25.8-31 55.5-29.5 80l.8 15c.2 3 .8 6.6 1.4 8 .6 1.4 1.4 5.2 1.8 8.5 1 8.8 4.2 23 6.6 29.4 1.1 3 5 11.1 8.7 18a67.1 67.1 0 0 0 19.7 24.3c1.7 1.3 6 5.3 9.4 9 7 7.4 13.3 11 22.1 12.8 3 .7 8.9 2.3 13 3.7 6.3 2.1 9.5 2.6 19.5 2.7a64 64 0 0 0 24-3.3 89.9 89.9 0 0 0 32-14.8 51.9 51.9 0 0 0 16.2-15c1.1-1.8 1.2-1.8 2.7.2a38.2 38.2 0 0 1 6.5 13.2c0 1-4.6 6-10.2 11.2a46.4 46.4 0 0 1-15.2 11c-2.7 1-8.3 3.5-12.4 5.5a97.6 97.6 0 0 1-33.8 9l-10.8 1c-1.6.3-6.4-.6-10.5-1.9l-15.3-4.6a73 73 0 0 1-15.2-6.8c-4-2.5-11.6-6.9-16.7-9.6a102 102 0 0 1-31.7-29 274 274 0 0 1-30.2-64.5c-3.3-10.4-3.3-10.7-3-28 .5-31.5 4.2-48.6 13.6-62.2a265 265 0 0 0 12.4-21.8 69.4 69.4 0 0 1 19-26.4c8.3-8 11.5-10.6 12.4-9.8zm1252.2 28 7 1.4 7.8 1.5c1.9 0-.7 2-5.9 4.7-3 1.5-11.5 7.5-18.7 13.2a459 459 0 0 1-27.2 19.6c-30.7 20.1-35.5 28-35.5 58.9 0 13.6.3 17 3 29.2a91 91 0 0 0 6.3 19.8c4 7.6 14.7 18.5 20.7 21 2.5 1 7.4 3 10.9 4.7a61 61 0 0 0 11.5 4l9.1 2c2.2.4 10 .8 17.5.8a63 63 0 0 0 24.9-3.3 72.7 72.7 0 0 0 14-5.4c1.4-1 4-2.6 5.7-3.5a61 61 0 0 0 16.2-14.4c1.4-2.1 5.5-7.3 9-11.5 4.8-6 7.1-7.9 9.5-8.3 4.6-.9 11 1.6 12.5 4.8 1.1 2.3 1 3.2-1.1 7.4-4 7.8-15.6 22.6-23.2 29.5a134.6 134.6 0 0 1-25.3 17.8c-.5 0-3 1-5.7 2.1-9.3 4-28.5 5.6-49 3.9a95 95 0 0 1-15.5-2.9l-13.3-3.8c-15-4.3-43.6-29.7-48.8-43.4-3.7-9.6-6.9-29.3-6.9-42 0-23.3 6-40.7 19.7-56.4 2.4-2.7 4.3-5.4 4.3-6a36 36 0 0 1 8.6-6.3c4.6-3 15.3-10.7 23.8-17.2 8.4-6.5 19.5-14.1 24.7-16.9l9.4-5zM303 999.7c21.2-.2 31.4 3.2 53.1 17.5 14.5 9.4 14.7 9.7 19.8 17.8a105 105 0 0 1 16.1 60.2c0 15.4-1 23.1-4.5 35.5-.9 3-2 5.3-2.4 5.3-1 0-10-11.8-12.2-15.8-1-2-1-2.8.4-5.1 1.8-3 3.2-11.5 4.2-24.9.6-7 .3-9.5-2-17.2-5-17.8-15.3-35.2-24.6-42-5.5-4-17-8.6-30.3-12.2-17.5-4.7-18.9-4.7-40.7 1.2a48 48 0 0 0-25.5 22.8c-3.5 8.5-5.4 21.3-5.4 37.1 0 20-1.4 32.6-4.4 41a189.7 189.7 0 0 1-13.4 30.4c-1 1.2-3.1 4.1-4.6 6.5-2.8 4.6-6 8.2-7.4 8.2-.4 0-1.7-.7-2.8-1.5-3.4-2.4-2.6-8.6 2.3-18a61.8 61.8 0 0 0 7.3-21.8c0-1.4 1.2-7.4 2.6-13.4a143 143 0 0 0 3-19.3c1-27.5 2.4-44 4.2-50.5 3.9-13.8 6-17.1 17.4-26.2 8-6.3 13.8-9.2 26.3-12.8 7.8-2.3 11-2.7 23.5-2.8zm1215 81c7-.2 9.3.2 13 2 2.5 1.2 8.8 3.3 14 4.8 5.2 1.4 12.4 3.9 15.9 5.5 3.5 1.7 7.1 3 8 3 3.2 0 10 5.8 16.6 14.2 3.6 4.5 6.5 8.8 6.5 9.5 0 .8 1 3.2 2 5.4 4 7.6 6 18.5 6 32a45 45 0 0 1-3.1 21.3c-2.6 7-3.7 8.8-6.2 10-4 2-4 2-3.3-1.2 2.2-10 3.7-24 3.4-31.7a30 30 0 0 0-4.2-16.8 34.8 34.8 0 0 0-4.5-7.7c-.4 0-1.7-2-3-4.5-3.8-7.6-16.9-17.3-33.6-25a58.3 58.3 0 0 0-34.2-5.7l-15.2 2.6a46.7 46.7 0 0 0-26.8 13.2 69.3 69.3 0 0 1-11.8 11.8 25 25 0 0 0-8.3 15c-.7 3.7-1 4.2-4.4 5-5 1.2-11-1-12.2-4.6-1-3.1 1.1-9.7 5-15a71 71 0 0 0 4.4-7.1 36 36 0 0 1 14.3-13.6c2.6-1.3 7.6-4.2 11.1-6.6a114.4 114.4 0 0 1 50.6-15.8zm-500.5 33.7c-2-.1-14.2 17.4-32.6 47.2l-26.7 42.8c-11.2 18-11.3 18.8-.3 4l14.3-19.1c5-6.5 17.4-25.7 27.8-42.8 20.8-34.1 19.6-31.9 17.5-32zm-490.6 55.2a5 5 0 0 1 2.1.7c2.5 1.2 2.5 1.6 3.7 19.2.6 9.9 1.2 22 1.2 26.7a75 75 0 0 0 2.6 18.2c1.3 5.2 3 13.7 3.5 18.8l2 15.3c.8 6.5.7 8.6-1.6 18.3-3.3 13.8-10.1 23.6-20.2 29-6.3 3.4-9.6 3.8-15.2 1.9-5.2-1.8-6.1-4.5-5.7-16.7.3-8.4 1.1-12.8 4-22 4.2-14 7.5-23.6 9.5-27.3.8-1.6 1.2-3 .9-3.4-.7-.6-6.7 5.4-6.7 6.7 0 .5-1 2.5-2.3 4.4a53.4 53.4 0 0 0-4.7 10.7 51 51 0 0 1-6.2 12.6c-2 2.9-3.8 6-3.8 6.8 0 .9-2.3 4-5.1 7l-5.2 5.5-5-.6c-7-.9-11.2-2.7-13.2-5.7-2.4-3.8-2.4-19.7 0-25.7a69 69 0 0 1 16.8-24.4c19-17 26-25.1 31.7-36.6 5-9.8 11-24.8 12.7-31.5 1.5-5.8 2.5-7.9 4.2-7.9zm1090.3 26.4c6.9-1.3 13.1.7 15.2 4.9a52.4 52.4 0 0 1 3.3 23.3c-.5 9.9-1.1 11.8-7.2 21.3-7 10.8-17.3 30.4-20.4 38.3-3.4 8.9-5.5 21.7-6.6 40.3-.6 10-.8 10.7-3.1 11.8a13 13 0 0 1-3.3 1c-.5 0-3.2-3.4-6.2-7.7-2.9-4.2-7-9.8-9.2-12.4a412.2 412.2 0 0 1-25.1-44.3c-4.2-8.4-9.6-27.6-10.3-36.3-.6-7.2 1.7-16.3 5.1-20.1 3-3.3 9.4-6 14.2-6 5-.1 8.1 2.8 12 11.4 2.4 5.2 3 7.8 3.6 19.5 1 19.8 3.2 33.2 8 50.8 2.1 7.4 4 8.7 2.1 1.5-1-4-1.6-13.8-2-31-.5-24-.4-25.5 1.7-32.5 2.9-9.5 7-18.7 11.1-24.3 3.7-5.1 9-8 17.1-9.5zm-1415.4 12.8c4.4-.5 3.7 4-2.4 16.3-7.5 14.9-9.3 16.9-15.4 16.9-4 0-5-.4-6.5-2.6-1.6-2.6-1.6-2.7 1.3-5.8 2.8-2.9 3-3.6 2.9-9.9-.2-6.4 0-6.9 2.8-9.2 1.7-1.3 4.4-2.5 6-2.5 1.7 0 4.3-.7 5.8-1.5 1.6-.8 4-1.6 5.5-1.7zm1446.9 23.5c1.5-4.2 1.7 147.9 1.5 1479.2 0 327.4-.5 595.8-1 596.5-.6 1-176.3 1.3-779.3 1.5-5.5-25.2-5.4-26.4-7.7-37.4 251.8 0 510.9-.2 517.4.2h21.5c9.6 0 29 .4 42.9 1 14 .6 26.3.9 27.5.6 4.1-1 59.7-2 98.8-1.9 35.4.2 39.8 0 41-1.4 1-1.4 1.3-163.4 1.5-981.2.2-716.9.5-981 1.3-984.6a49.6 49.6 0 0 1 7.9-18.5 844 844 0 0 0 26.7-54zm-400.8 7.7c1.5 0 2.5 1.8 4.7 7.7a211 211 0 0 0 15.1 35.5 127.3 127.3 0 0 0 32.3 39.7c.5 1 2.9 3 5.2 4.4a61.3 61.3 0 0 1 22.6 27.6 46.2 46.2 0 0 1 0 21c-1.5 5.4-7.9 9-15.5 9-5.5 0-6.4-.3-13.2-5-6.5-4.6-13-11.7-13-14 0-.6-2.5-5-5.5-10-3-4.9-6.6-12.2-8.1-16.2s-3.6-9.4-4.8-12.1l-2.1-4.9-.8 3.4c-1.3 6 3.8 27.3 9 37.4 6 12 11 25.3 11.2 29.5.4 9.5 0 11.5-2.5 14.2-2.7 3-4.6 3.2-12.5 1.7-7.9-1.5-8.7-1.8-12.9-5.2l-7.1-5.6c-3.9-3-7.5-10.1-8.8-17.2-1-6 0-37.6 1.8-60 .6-7.4 1-21.4.8-31-.2-13 1-40 2.2-49.7 0-.1.9-.2 2-.2zm-1096.4 3.7c4.2-.2 8.2.5 9.9 2.2 2 2 2.1 3.3 2.5 20.4.2 13.8 0 20-1.3 25.7-2.1 10.2-3.4 17-3.1 17 .1 0 2.7-3.5 5.7-7.8 4-5.5 6-9.6 7.3-14.6 3-11.7 11.4-25.6 15.5-25.6.8 0 4-1 7-2 7.8-2.8 10-2.5 14.8 1.5 5.8 5 7.7 10.6 7.7 23 0 9.7-.1 10.2-3.7 16.5a84 84 0 0 1-35.8 34.9 400.5 400.5 0 0 0-31 17.6 85 85 0 0 0-8.5 6.6c-7 6.3-25.2 17.9-28 17.9-.2 0-.5-1.7-.5-3.8a86 86 0 0 1 7.5-27c2-4.1 3.5-8.2 3.5-9.2s1-5.8 2.1-10.7c2.2-9 2.2-9 .3-31.6-.7-7.9 1-24.2 3.2-31 1.6-4.8 8.2-13 13.7-17a22 22 0 0 1 11.2-3zm330.7 65.4c1.1-.2 2.1.3 3.2 1.5 2 2 2.1 1.5-1.3 8.3a92.7 92.7 0 0 0-4 9.4c-1 3.2-7 9.7-8.9 9.7-.4 0-2.2-1-4-2-4.8-3-6-6.3-3.7-10.6 2.1-4 8.8-10.4 10.8-10.4.7 0 2.5-1.4 4-3 1.7-1.7 2.9-2.6 4-2.9zm-42.2 69.4c5.1 1.6.2 11.6-20.8 42.9-13.2 19.5-13.5 20.1-27 50a240.2 240.2 0 0 0-16.2 44.5c-2.5 11 1 55.7 5 65.8.5 1.2 1.5 7.2 2.1 13.2 1.4 13.3.3 19.6-4.3 24.1-3.2 3.3-5.9 3.8-7.8 1.5-.7-.8-1.7-1.5-2.4-1.5-2 0-3.6-7.4-4.1-20-.5-12.4-1.6-21.1-5.6-44.5-2.8-16.1-2-39.3 1.8-53 4.5-16.6 10.6-34 15-43 7.6-15 38.2-59 52.3-74.7 4.2-4.8 8.2-6.5 12-5.3zm639 9.5c1-5.6-19.5 20.6-36.4 46.4-8.9 13.5-24.8 37.2-35.5 52.6-33.6 48.4-65 96.4-64.1 97.5.4.5 7.3-7.4 15.3-17.6a1410 1410 0 0 0 94.6-136.5c14.3-23 26-42.1 26-42.4zm216 1.4c.3-.4.7 0 1.7.8a8 8 0 0 0 4.6 1.8c3.7 0 22.6 17.1 23.4 21.2.3 1.5 1 3 1.4 3.4.5.3 1 1.3 1 2.3 0 2-3.2 4.4-7.2 5.4l-4.2 1.2c-.8.4-3-.8-5.2-2.7-2.3-2-5-6-6.8-9.8a65 65 0 0 0-5.5-10 16 16 0 0 1-3-9c-.2-2.7-.3-4-.1-4.6zm-942.2 48c8.1-.2 16.8-.2 19.4.3l4.7.8-5.6 8.7-5.6 8.8h-7a74 74 0 0 0-43.3 13.6c-12 7.6-16.3 12-24.4 25a112.3 112.3 0 0 0-19.7 55.4c-.6 11.5 1.6 26 4.3 28.7.8.8 1.4 2.6 1.4 4.1 0 3.7 6.3 18.6 9.7 23a125 125 0 0 0 20.6 20.6c7 4.8 20.9 10.7 33.2 14 8.6 2.4 12 2.8 24 3 15.7 0 24.9-1.6 37-6.6 14.3-6 19.5-7.8 21-7.2 1.7.7 2 4 .5 5-.6.3-1 1.3-.8 2.2.5 2.9-4 11-7.4 13.5a80.8 80.8 0 0 1-32.9 12.7 287 287 0 0 1-43.9.9c-13.4-2-38.6-14.3-49.8-24.4-13.3-12.2-21.2-24.3-30.4-46.5a65.9 65.9 0 0 1-7.2-30.5c-1-19.5.5-36.5 3.9-44.5a155.9 155.9 0 0 1 25.1-43 91.8 91.8 0 0 1 28.4-24.8c15.6-9 26.4-12 44.8-12.7zm64.1 21a66 66 0 0 1 16 19.5c1.6 3 5 12.7 7.6 21.5l4.8 15.9-.7 21c-.8 22.9-.6 24.5 5.3 57.2A373 373 0 0 0 469 1655c3.8 9.4 5 14 7.5 30 3.2 20.1 3.2 20-.4 20-1.7 0-4-1-5.5-2.3-2.9-2.6-8.6-13-8.6-15.8 0-1-.8-2.6-1.9-3.6-2-1.9-11.4-29.4-15-43.9a480 480 0 0 1-13-69c-.5-2.7-1.5-12.8-2-22.4-1.7-27.5-7-52.5-12.4-58.4C410 1481 406 1475 406 1472c0-6.9 6.6-15 11-13.6zm237 4.5c-.6.5 20.6 43.2 22.9 45.9 3.9 4.7 1.4-4.3-6.3-22.8-5.1-12.4-9.6-20.5-12-21.6-2.2-1-4.2-1.7-4.5-1.5zm669 50.2c1-.1 2 1.8 3.9 5.7a80.7 80.7 0 0 1 7.3 29.2c1.6 15 1.3 48.4-.6 56.6-3.6 15.6-10.5 29.6-17.7 35.7-7.3 6.2-9.9 7.1-16.8 6-7.4-1.2-9.4-3.3-13-14-1.7-4.7-1.7-5.8-.6-9 1.2-3.4 10-20.3 14.1-27.3a65 65 0 0 0 6.5-14c0-.7-3.3 1.8-7.3 5.6a219.7 219.7 0 0 1-29.2 24.6c-6 3.2-11.4 2.8-16.4-1.1-4.5-3.6-6.7-9-7.7-19.3-.6-5.1-.3-6.3 3.4-14a64.3 64.3 0 0 1 41.6-33c10.2-1.7 19-9.7 27.5-25 2.4-4.3 3.8-6.5 5-6.7zm-73.3 51.9c.2 0 .4.4.4 1l.1.3c0 .5-.5 1-1 1-.6 0-.8-.5-.5-1 0-.2-.2-.2 0-.3.3-.6.7-1 1-1zm19 64.5c.6 0 1.1.3 1.9.8 1.7 1.3 1.7 1.6.2 6.3a129.3 129.3 0 0 0-7 28.6l-1.2 3.7-5-4.3-5-4.4 1.7-4.4c7.5-19.4 9.6-23.6 12.5-25.5.8-.6 1.4-.8 2-.8zm-364 6.2c-2.7-.2-42 56-60.6 86.5-21 34.8-52.1 96-57 112.1-1 3.4-2.5 6-3.4 6-.9 0-2.4 2.6-3.4 6l-12 36.8c-10.2 30.3-15.4 58.4-11.3 59.8 1 .4 2-3 2.1-7.5.3-7 7.2-30.5 18-61.2A865.4 865.4 0 0 1 877.5 1681c11.4-16.2 22.2-32 24.1-35 3.5-5.5 4.9-10.2 3-10.3zm-402.7 65.2 7.6 2c4.4 1.2 9.2 3.2 11.3 4.8 2 1.6 5 3.7 6.5 4.6 3.9 2.4 9.6 14.3 10.3 21.4.8 7-1.8 23.3-5 31.8a378 378 0 0 0-9.5 33.5 212 212 0 0 1-11.6 32.5c-2.5 2-7.9 26.5-9 41-1 10-2 11.9-5.7 9.1-1.2-.9-2-3.8-2.8-8.7-.6-4-1.5-8.8-2-10.4-.5-1.7-1.4-5.5-2-8.5a177.4 177.4 0 0 0-18.1-40.6c-3.3-5.2-8.1-13.1-10.8-17.7a125 125 0 0 0-11.6-15.7 48 48 0 0 1-13-21.5c-1.8-6.3-2-16-.5-21.4.5-1.7 3-5.6 5.5-8.6 7.3-8.4 13-9.5 23.5-4.2 6.8 3.3 8.8 5.5 16.2 17.5 2.6 4.1 4 8 4.7 12.3 1.3 8.3 3 21.5 3.5 25.8.4 4.3 2.3 5.2 3.2 1.5 1-3.6-.2-20.7-2-31.4-1.6-9.5-1.4-33.3.3-39.7.9-3.1 2-4.3 6-6.6l5-2.8zm1075 36.2c1.2-1.1 1.9 1.6 3.5 11.4l2.7 14.2c1.3 5.7 1.2 40.5-.1 47.8-.6 3.3-2.1 9.4-3.4 13.5a78.8 78.8 0 0 0-3 14c-.8 10-4.1 21.6-8.8 30.8l-4.3 8.3-7.4 3.5c-8 3.7-10.6 4-16.4 2-2.1-.8-4-1.6-4.2-1.8a101 101 0 0 1-2.1-9c-2-9.5-1.5-13.8 2.7-22.4 1-2.2 2-4.4 2-4.8 0-.3 1-2.3 2.3-4.4 8.5-13.6 20.6-38.6 19.3-40-.5-.3-10 11.6-13 16.4-7.5 12-24.7 29.9-33.4 34.8-6 3.4-18.2 6.9-22.3 6.3-6.1-.8-15.2-5.8-17.4-9.6a31.9 31.9 0 0 1 .2-22.8c2.6-5 11-12.6 17.7-15.8l17.5-8.3a76 76 0 0 0 18.7-11.5c3.4-3 8.1-6.9 10.5-8.5 6.8-4.8 18-16.9 25.1-27.3 3.7-5.3 7.3-10 8.2-10.3a12 12 0 0 0 3.7-4.2c.7-1.1 1.2-2 1.6-2.3zM64.3 1763.4c.8-.4 8.6.3 17.3 1.5l27.2 3.7a281 281 0 0 1 43 9.5c3 1 11.6 5.2 19 9.2a72.9 72.9 0 0 1 22 15.8c7 7 9.5 10.3 12.5 16.5 5 10.4 6.8 18.3 6 24.7-1.6 12.8-10.3 22.5-19 21.1-6.7-1-10.6-3.2-17-9.3-3.3-3.2-6.4-6-7-6.2a51 51 0 0 1-6.3-7.1 171.9 171.9 0 0 0-24.3-23.8c-.9 0-.4 1.3 3.4 10 1.3 3 3.8 10.1 5.6 15.8 2.9 9 4 11 8.2 15.2 5.3 5.5 5.5 6.2 6.3 20.8.4 7.6.2 9.2-1 9-.7-.2-2.2 1.2-3.1 3.1-3.5 6.9-12.5 9-19.5 4.8a54.7 54.7 0 0 1-17-20.3c-3.5-8-8.8-29.8-8.8-37 0-6.4-9.8-29.8-15.7-37.7a38.7 38.7 0 0 1-4.8-7.7c-.4-1.3-2.6-4.4-4.9-7-2.3-2.5-5.9-6.7-8-9.3a83 83 0 0 0-9.8-9.8c-4.4-3.7-5.5-5-4.3-5.5zm-14.4 8.8 4.3 3c7 4.9 22.2 21 27.6 29.4l5.1 8v59.5c0 32.8.3 75.6.7 95.2l.6 35.5-5 15a278 278 0 0 0-12.5 46c-.5 2.7-1.2 13.6-1.5 24a91.5 91.5 0 0 0 1.1 25.2 51 51 0 0 1 1.6 9.4c0 3.6 2.1 11.1 8.8 32.4a331 331 0 0 1 5.2 18.5c.8 4 1.1 157.6 1.4 550.7.2 438 .5 545.5 1.5 546.7 1.1 1.3 6.4 1.5 40.4 1.3 21.6-.1 52.5.3 68.7.8 29.9 1 46.7 1 82-.4 10.7-.3 23.8-.4 29-.1 5.2.2 30.7.1 56.5-.3 16.1-.3 219.6 0 421.8.1 2.1 10 3.7 18.2 7.1 32.1l1.2 5.3H53.3c-1.2-.2-2.4-1-2.7-1.8-.4-1-.9-1059.5-.6-1465.2v-70.3zm126 98.8c1 0 2 .5 2 1 0 .6.5 1 1.2 1 .7-.2 1.7-.2 2.4-.1 1.1 0 8.2 9 18 22.5 2.8 3.9 6.4 8 8 9.3 10.4 7.5 25 59.6 28.2 100.3 1.1 13.6 1.4 13-8.9 15.6-6.8 1.6-6.5 1.6-7.7.1-.6-.7-1.3-6.7-1.6-13.4a143.3 143.3 0 0 0-4.3-30.3 445.6 445.6 0 0 0-25.6-74.5c-2.6-6.5-9.2-18.5-11.7-21.5a9.6 9.6 0 0 1-2-6.2c0-3.2.3-3.8 2-3.8zm1333.2 1 1.5 2.8c1.8 3.4 1 10.9-2 18.6-1.6 4.4-2.5 5.6-4.3 5.6a6 6 0 0 1-3.8-1.8c-2.6-2.9-2-5.4 3.5-15.6l5.1-9.6zm-36.5 65c2.2 0 4.3.5 5 1.2 2.5 2.4 1 6.3-6.5 17.7-4.2 6.4-8.7 12.7-10 14.1a762.3 762.3 0 0 0-30.8 64c-3.1 7.8-3.6 9.9-2.7 12.1.8 2.1.1 6-3.4 19.5-5.4 20.8-8.8 39-10.4 55.4a68 68 0 0 1-2.1 13.7 73 73 0 0 0-3 24.3c0 11-.7 15.1-2 12.6-1-1.5-1.2-1.5-3.2-.1-3.2 2.2-5.5 1.8-8.8-1.4-3.4-3.5-3.8-7.7-.9-11.4 1.8-2.2 2-4 2-14 0-11.7 1.3-19.3 6.5-39.2 1.4-5.5 3-14 3.5-19 1.6-14.9 6.2-30 21.3-69.5 9.8-25.7 16.9-41.5 21.8-48.8 1.8-2.6 6.1-10.2 9.7-17a64.6 64.6 0 0 1 8.2-13.2 14 14 0 0 1 5.8-1zm-1295.2 3.7c1.4-.4 2.2-.2 3.6.3 7 3 12 12.8 12.1 23.8 0 8.5.3 8.3-10.5 14.2a180.7 180.7 0 0 0-39 39.7c-4 4.7-15.3 28.9-18.7 40a128.2 128.2 0 0 0-7.4 43.8 111 111 0 0 0 13 56.4 55.8 55.8 0 0 0 20.4 26.5c14 11.7 37.1 24 50.3 26.7 16.5 3.4 49.4 2.1 54.1-2 1.1-1 4.2-2.1 6.8-2.5l4.8-.6 2 4.4c1 2.4 2.2 7 2.5 10.3l.7 5.9-11.4 3c-6.3 1.8-14.5 3.7-18.3 4.4-9.5 1.5-29 1-41.8-1.1a98.9 98.9 0 0 1-35.5-10.8 120.8 120.8 0 0 1-47.4-39c-16.7-22.2-25-45-28-76.5-3-34 6.6-69.4 28.6-104.6 8.8-14.1 11-17 24.6-32.5 13.1-14.9 19-20.5 27.8-26 3.4-2.1 5.3-3.3 6.7-3.8zm1232.4 65.3c.5 0 1 .4 1 1 0 .5-.2 1-.4 1-.3 0-.7-.5-1-1-.4-.6-.2-1 .4-1zm46.6 19 6 2.8a55 55 0 0 1 19.3 13.4c1 1.8 4 5.2 6.5 7.5 3.8 3.5 5 5.6 7.1 12.5a75 75 0 0 1 3.1 36.3 139 139 0 0 0-1.6 16.3c0 3.7-1 12.5-2 19.7-1.1 7.1-2.5 18-3 24-1.4 13.3-2.8 15.8-7.1 12.2-3.8-3.2-4.5-10.6-3.5-34.7.3-7.4 1-19 1.6-25.5 2.2-23.9 2.3-27 1-32.7-1.4-7.2-8.2-17-18-26-6-5.8-7.7-6.8-11.3-7-3.8-.3-4.3-.6-5.3-3.8-1.1-3.3-1-3.7 2.2-7a23 23 0 0 0 4.1-5.8l.9-2.2zm-1203.6 13.3c7.4-.7 23.1 1.1 30.5 3.4a100.6 100.6 0 0 1 39.2 24.6 60.2 60.2 0 0 1 18 25.8 83 83 0 0 1 7 38.4c-.9 14.2-3.8 27.9-7.7 36.3-5.8 12.4-26.8 39.2-30.8 39.2-.5 0-1.2-2.6-1.5-5.7-.4-3.8-1.6-7.2-3.6-10.5l-3-4.9 3.3-4.3c7-9.3 9.9-18.1 11.8-37.1 1-9.5 1-14 0-19.8-2-13-4.4-17.8-13.8-27.7-14.1-14.8-26-21-41.2-21.8a52.3 52.3 0 0 0-38.4 11.5l-8.6 6.8a44 44 0 0 0-7.3 7.7 4124 4124 0 0 1-8.4 11.6 75.2 75.2 0 0 0-11.7 21c-1.1 4.7-3.8 29.5-3.8 34.8 0 4.2-.1 4.5-2.2 3.8-7-2-12-5-17.2-10.4-5.5-5.6-6-6.3-6.4-11.5-.2-3 0-8.4.7-11.8 2-10.8 10.2-34.9 15-44.2 4-8.1 6-10.6 19.6-24 24.4-24.4 33.1-29 60.5-31.2zm466.7 99.8c-.6 1.8-1 5.2-.7 7.6.3 2.4.8 1 1.2-3.2.3-4.2.1-6.2-.5-4.4zm774.6 77.4a5 5 0 0 1 2.3 1.7 27 27 0 0 1 6.3 11.4c1.6 5.9 6.5 43.9 6.7 51.9.1 3.8.8 10.5 1.4 14.8 1 6 1 8 0 9.2-1.5 1.8-3.4 1.9-4.7.2a25 25 0 0 1-2.2-6.7c-.6-3-2-7-3.1-8.8a253.7 253.7 0 0 1-17.7-61.4c-.5-8.3-.5-8.6 1.8-10 1.3-1 4-1.9 6-2.2 1.4-.3 2.4-.3 3.2 0zm-1329.2 35c.4-.3 3.1.6 5.8 2 4.9 2.4 7.7 3.2 11.3 3.4 4 .2 4.8 2.8 4.8 13.9 0 5.9-.4 13.4-1 16.7-5.1 33.9-5.9 37.3-8.7 38.2-.7.3-1.7-.6-2.2-2-2-5.3-6.3-26.8-7.2-35.7a619 619 0 0 0-1.8-17c-1.6-12.6-2-19-1-19.5zm1374.5 29c6.3.2 12.8 3 17.2 7.7 7.8 8.4 8.3 34.2 1 60.9l-3.5 14.1c-.3 1.5-1 2.8-1.4 2.8-.5 0-.9 1.2-.9 2.7 0 1.4-.7 3.4-1.6 4.4-.8 1-2.4 6.1-3.4 11.5-6 31.1-7.3 37.5-10.6 49.1-2 7-4.2 14.1-4.9 15.8a45 45 0 0 0-2.4 16.8c0 2.9-.6 5.9-1.5 7.3-1.8 2.7-2.9 3-4.3 1.1-2.5-3-6.9-13.4-11.3-26.2-11.7-34.3-15.6-43.4-23.6-55.8-2.4-3.7-9.2-16.3-15.1-27.9-10.4-20.3-10.8-21.4-11.1-28.5-.5-8.3 1.3-15 5.5-21.5 2-2.9 4.5-4.8 9.8-7.4a36 36 0 0 1 9.7-3.4c2.9 0 11.6 7.1 18.1 14.8a133 133 0 0 1 17.3 39.7 311 311 0 0 1 3.4 33.8c0 .4.5.5 1 .2.6-.4 1-3 1-6s.5-7.7 1.1-10.5c.9-4 .8-6.7-.4-12.8-.9-4.2-1.9-12.9-2.2-19.2-.4-6.3-1.3-14.9-2-19a119 119 0 0 1-1.5-17.7c0-12 2.2-19.2 7.3-24 3-2.8 3.7-3 9.3-2.9zM141 2316.7l6.6.7c6 .6 7.2 1.1 10.5 4.3 5.7 5.5 7.3 8.7 9.2 18.8 1.9 9.6 1.6 13-2.6 37.2-.8 4.7-.8 6.6 0 7.5 2 2 3.3-.7 5.8-12a83.6 83.6 0 0 1 22.1-41.3l7.4-1c8-1.2 13.7.5 19.3 5.8 4.5 4.3 6 9 5.2 17.1-1.4 15.3-5.9 22-31.9 47.6a241.1 241.1 0 0 0-40.3 48.6c-6 9-8.2 11.4-10.8 11.7-2 .2-3-.3-3.8-2.2-1-2-1-4 0-7.9 1.8-9 3.4-24.6 2.8-29-2-16.7-6.3-39.4-8.5-45.7-2.4-7-2.6-8.7-2.7-24 0-20 1.4-25.9 7.6-32.1l4-4zm379.4 69.3c1.4.1 2.8.5 4.7 1.3a35.5 35.5 0 0 1 16.5 15c2.5 4.7 2.7 6 2.6 16 0 8.8-.5 12.2-2.1 16.6a62 62 0 0 0-2.8 9.5 52 52 0 0 1-2.5 8.5c-1 2.5-2.3 9-3 14.5-.7 6.4-2 11.8-3.6 15.2a47.6 47.6 0 0 0-3 8.5c-.4 1.8-2.6 8-4.9 13.8-2.3 5.8-4.8 13-5.4 16-2 8.8-4.8 11.9-7.9 8.8-.6-.7-1.2-3.2-1.2-5.5 0-2.8-.6-5-1.8-6.1a47 47 0 0 1-5-12 47.7 47.7 0 0 0-7.1-15c-2.1-2.7-6.3-8.7-9.4-13.5a102.6 102.6 0 0 0-22.2-24.3c-8.3-7.2-13.5-16.1-13.5-23a42 42 0 0 1 6.3-22c3.8-4.4 5.4-5.2 11.4-6 8.8-1.2 9.3-1 17 7 5.3 5.6 7.4 8.6 8 11.3a27 27 0 0 0 2 6.2c.7 1.4 1.3 3.6 1.3 4.8a27 27 0 0 0 6.3 11.8c1 1 2.1 3.3 2.4 4.8.6 3 2.5 4.3 4.2 3.2.7-.4.7-1.5 0-3.3-.6-1.5-1.2-3.6-1.4-4.7l-1-5.5a220.6 220.6 0 0 1-3.6-39.4c.6-1.2 1.5-3.3 2-4.8 1.3-3.6 4.6-5.6 11.4-7 2.3-.5 3.9-.7 5.3-.7zm595 16.9a46 46 0 0 1 18.6 9.3c5.5 5.4 6.9 11.1 7 28.2.1 14.5 0 15.2-3.1 24-1.8 5-4.3 11-5.5 13.5-3.6 7.2-6.1 16.9-4.8 18.1 2.2 2.3 4-.2 10-14.3 6.5-15.3 8.2-20.8 10.7-35.8a75 75 0 0 1 4-14.9c1.4-3 2.5-6 2.5-7 0-2.6 9.1-15.1 11-15.1 3 0 5-1.1 5-2.8 0-3.5 14 1.2 20.7 7 4.6 4 6.7 11.7 6 21.7-.2 4.2-1.1 9.2-2 11-.9 2-2 5.4-2.6 7.6-1.4 5.5-14 24.6-21.4 32.2-3.3 3.4-10 9.7-15 14-4.8 4.3-12 11.6-15.7 16.4-3.7 4.7-8.9 10.3-11.5 12.5-2.6 2.1-7.5 6.7-11 10a32.7 32.7 0 0 1-9.1 7 20 20 0 0 0-4.9 2c-2.7 2-5.1 1.7-7.5-.6-2.6-2.6-2.5-4.2.5-10.4s4.2-12.2 5.4-28.4c.6-6.7 1.2-12.6 1.5-13 1.6-2.7-4.3-36.2-10-55.8-2.5-8.9-1.2-21 2.8-26.6a42 42 0 0 1 18.4-9.8zm-548.6 96.7c1-.2 1.5.1 1.8.4l.8.6a180.5 180.5 0 0 1 8.2 13.9c9.2 17.5 34.8 46.5 49 55.6 6 3.9 18.7 13.2 28.4 21l13 10.1 4 3.2c.4 1.3 1.7 3.9 1.2 3.5 8 25.8 13.3 46.5 17.2 64.6l-.6.3.8.7c2.7 12.6 4.3 23.5 6 34.5l-2 .5a73.5 73.5 0 0 0-17.7-24.5c-2-1.6-3.8-2.4-4.5-2.5-2.7-.2-5-2-5.7-4.6 0 0-.7-1.1-2-2.3a51.8 51.8 0 0 0-5.8-4.2 320.9 320.9 0 0 0-66.6-30c-8.3-2.5-14.9-4.5-19.8-6.3a48 48 0 0 1-10-4.4c-1-.6-2-1.3-2.2-3 0-.7.4-1.6.8-2 .5-.5 1-.8 1.5-1 2-.8 5-1 9.3-1.3 16.1-1 37.7 4.4 58.7 13a187.9 187.9 0 0 1 54.4 33.2 305.8 305.8 0 0 0-43.5-42.9 185.2 185.2 0 0 0-26.8-16.8 206 206 0 0 1-10.7-5.5c-3-1.7-5-2.9-6.3-4-1.2-1.1-6.2-5-10.6-8a152.5 152.5 0 0 1-26.7-26.3c-.2-.4-.5-.7-.5-1.6 0-.4.2-1.2.8-1.7.5-.5 1.2-.5 1.6-.5.6 0 .8.2 1 .3l1 .4 2.7 1.5a401.8 401.8 0 0 0 41.3 22.9c29.1 14 47.8 27.1 63.9 44.7l2.2 2.4c-1.8-3-4-6.2-8.3-10.5a457.5 457.5 0 0 0-29.4-25.5 307.5 307.5 0 0 1-44-46.1c-13.2-16.7-23.4-32.8-26.6-43.8-.7-2.5-1-4-1-5.4v-1.1c.2-.5.8-1.3 1.7-1.5zm-145.4 89.2c.5.3 1.3 1.2 2.5 2.8a14 14 0 0 1 2.9 5.2c0 2 10 17.8 11.5 18.4.8.3 3.1 3 5.3 5.9 2.2 2.9 9 10.7 15.4 17.3a94.3 94.3 0 0 1 23.4 33.1c3 6.5 6.5 13.2 7.8 14.8a154 154 0 0 1 7 12c7 13 12.6 21.2 15.3 22.7 1.3.7 2.2 1.8 1.9 2.6-.3.7 3.3 4.3 8.9 8.7 12 9.6 12.2 10 5.4 9.2-5-.6-6.3-.3-14 3-8.2 3.8-8.6 3.8-18.9 3.5-11.9-.3-18.4-.3-35.5.1-12 .3-12 .3-22-3.7l-13.4-5.2-3.3-1.2 2.4-3.1a234 234 0 0 1 9.4-11c4-4.3 8.8-9.8 10.9-12.3 2-2.5 5.8-6.2 8.3-8.3 3.9-3.2 4.7-3.6 6.4-2.5 1.6 1 2.4 1 4.3-.3l2.4-1.6-4.6-8.3-9.3-17.3c-2.5-5-6-11.2-7.9-13.8a122 122 0 0 1-7.7-14.9 488.1 488.1 0 0 1-18.4-45c-2.6-8-2.6-8.7-1-8.7 1 0 2.3-.7 3-1.5.6-.7 1-1 1.6-.6zm1110 .6 9.3 5c12.2 6.5 16.3 10.4 19.8 18.5a58 58 0 0 1 1.7 32.7c-2 6.6-9.5 15.2-17.6 20.5-2.6 1.7-4.8 3.7-4.8 4.3 0 1.5-4.2 3.2-9.6 3.8-2.2.2-6.3 1.5-9 2.9a307.7 307.7 0 0 0-32.8 18.5c-6.6 4.7-8.5 5.2-11 2.5-.8-1-1.6-3-1.6-4.3 0-2.9 5.1-9.5 8-10.4 1.5-.5 1.9-1.2 1.5-2.9-1-4 2.3-6.5 11.8-9.2a59 59 0 0 0 18.7-9c10.4-6.8 14.8-11 18-17.4 1.7-3.2 2-5.9 2-15.1v-11.2l-3.5-4.4c-3.8-4.5-6.3-5.3-10.8-3.2-1.9.8-3 .7-5.5-.5-1.7-.9-3.7-1.4-4.5-1-1.5.5-4.7-2-4.7-3.8a14 14 0 0 0-3-4.5c-3.6-4-3.7-5.4-.7-8.9 2.3-2.6 2.5-2.7 15.3-2.8l13-.1zM132.6 2606c3.2 0 11.2 6.9 15.3 13.3 5.9 9 8 16.8 8 29.8 0 10.1.1 11.4 2.8 16.7 1.6 3.1 4.8 8.1 7 11.1 4.9 6.5 5.3 10 1.5 13-3.5 2.7-5.1 2.6-9.7-.6-2-1.5-5.3-5-7.3-8a53.2 53.2 0 0 1-8.4-29.3 114.5 114.5 0 0 0-8.3-38.5c-2.8-5.7-3-7.5-.9-7.5zm844.5 10c1.5-.2 2.7 0 2.7.8 0 1.6 5.3 3.3 14.7 4.7 12 1.8 17.5 4.2 19.3 8.3 1 2.7 1 3.5-.4 5.7-2.2 3.3-5.9 3.2-11.8-.5a68 68 0 0 0-23-6.7c-7-1-9.8-6.3-5.8-10.3a9 9 0 0 1 4.3-2zM167 2638.1l1.5.6c1.1.7 4.6 1 8 .7 5.4-.5 6.5-.2 9 1.9 1.6 1.3 4 2.7 5.2 3.1a9 9 0 0 1 3.9 3.2c1.5 2.2 1.4 2.6 0 4.2a6 6 0 0 0-1.7 3.4c0 3.9-7 6-13 4.1l-5.6-2-4.1-1.4-.5-7.4c-.3-4.2-1-8.2-1.9-9.1-.6-.8-1-1.2-.8-1.3zm988 2.9c9.7-1 41.7 6.3 43.4 10.7 1.1 3-1.5 4.4-8.4 4.3-11 0-29.5 1-31.6 2l-11.6 3.5c-9 2.5-10 3-15.5 8.6a32 32 0 0 1-6.9 5.9c-.6 0-1.8-.7-2.6-1.6-1-1-4.6-1.8-9.8-2.3-4.5-.5-8.4-1.1-8.7-1.4-1.2-1.2 3.7-8.5 8.9-13.4a52.3 52.3 0 0 1 33.4-14.3c3.4 0 6.5-.5 6.8-1 .3-.5 1.3-.9 2.6-1zm299.5 2c2.6 0 10.2 4.7 10.8 6.7.7 2.2.2 6.5-.8 8.2a25 25 0 0 1-5.3 4c-6.8 4.2-18 15.7-18.6 19.1-.4 2-1.7 3.5-3.8 4.5-3 1.6-6.7 4.6-13.7 11.2a15.2 15.2 0 0 1-4.4 3.3c-.5 0-7.3 3.8-15.1 8.4a213 213 0 0 1-44.7 21.5c-4.1 1-11 3-15.5 4.4a75 75 0 0 1-32.5 2.3c-3.6-.8-9.6-2-13.5-3-3.8-.9-8-1.6-9.3-1.6-1.2 0-4.5-1.1-7.2-2.5a25.9 25.9 0 0 0-6.3-2.5c-2.2 0-21-9.6-23.4-12-4.3-4-3-7.2 5.2-12 5-3 17.5-3.7 21.5-1.2a19 19 0 0 0 4.5 2c1.1 0 5.4 1.3 9.6 2.7 9.3 3.1 30.8 7.4 37 7.4 3 0 7-1.1 12.4-3.5a591 591 0 0 1 24.5-10 675 675 0 0 0 28-11.9c6.3-2.9 13.7-6 16.3-7 3.6-1.3 4.7-2.2 4.7-3.8 0-1.1 2.3-4.3 5.5-7.3 3.2-3.1 5.5-6.2 5.5-7.5 0-2 7.3-9.7 13.5-14.4 3-2.3 12-5.5 15.1-5.5zm-1116.3 20.5c1.8-.4 3.8 0 6 1.3 1.8 1 4.4 2.2 5.8 2.5 7.7 1.8 6.6 19-1.6 27.3-3.1 3.1-4 3-10.5-1.1-3.9-2.5-6.6-3.5-9.4-3.5-4.3 0-11.8-3-13.1-5-.4-.8-.9-2.4-1-3.6-.2-1.8.3-2.4 2.6-3 4.2-.9 14.1-7.7 16.4-11.3 1.3-2 3-3.2 4.8-3.6zm160.7 17c.8 0 2 .5 4.4 1.5 3.5 1.6 6.3 2 11.4 1.8 6.1-.2 7 0 11 2.9 2.3 1.7 5.7 5.2 7.5 7.9 5 7.5 16 12.7 34.5 19a149.8 149.8 0 0 1 52.1-9.3c3.8 0 7.5.2 11.4.5 31.1 2.6 51 11.7 67.7 31.4 1.7 1.9 2.3 2 3 2.6 2.7 16.2 5 29.8 7.5 43.7l-2 .5c-1-3.3-2-8.4-2.7-9.9-3-7.7-6.4-14.7-9.1-19.6a48 48 0 0 0-5-7c-.3-.3-.4-.3 0-.2-.8-.1-1-.3-1.3-.5l-1.2-.6c-1-.5-2-1.3-3.5-2.2l-10-6.8a106.7 106.7 0 0 0-21.1-12c-14.8-4.7-36.9-5.1-59.9-1.9 4.1 1.3 9.5 3 10.3 3.5 1.9 1.2 4.8 1.5 11.2 1.5l8.7-.2 2.7 4c2.5 3.6 2.6 4 1.1 6.3-1.2 1.8-3.1 2.6-7.9 3.5-6.4 1.3-32.3 2.3-36.8 1.5l-8.5-1.5c-3.3-.6-8.8-2-12.2-3-4.8-1.6-6.6-1.8-8.2-1-2.3 1.3-5.7-.3-9.6-4-2.5.4-5.4 1-7 .9-1.3-.2-2.3-.2-3.4-.6-.5-.1-1.3-.4-1.7-1.5a2.5 2.5 0 0 1 .6-2.6c.9-.9 1.8-1.4 3.4-2.2l4.4-2.3c.2-3-.4-4.2-3.6-7.4a57 57 0 0 0-10.3-7.5 22 22 0 0 1-10.4-10.4c-3.6-6-4.5-6.8-8-7.6-9.3-1.9-11.6-2.8-12.7-5.3-1-2.1-.8-2.8.8-4.5 1-1 1.5-1.5 2.4-1.5zm-53.2 4.8c2.6-.4 4.4.2 5.3 1.8.8 1.6.7 2.6-.5 4.5-1 1.3-2 2.4-2.4 2.4a171.3 171.3 0 0 1-34.1 23c-.6 0-4.4 2.2-8.3 4.9-6.6 4.4-13 8.4-26.6 16.3-5.7 3.3-12.3 3.5-22.7.6-3.8-1-8.1-2.6-9.5-3.4l-11-5.6c-12-5.9-18.9-10.5-20-13.1-1.2-3.4-21.5-11.5-33-13.3l-4.3-.7 3.1-1.3c1.8-.7 5.1-2.6 7.5-4.2a45.9 45.9 0 0 1 14.2-7.2c1.7 0 20.7 9 21.5 10.1 1 1.3 19.3 9.6 23.5 10.7a73.5 73.5 0 0 0 28.5 1.8c8-1.5 17-5 22.3-8.9a98.8 98.8 0 0 1 26-11.1c3.8-1 8.2-2.4 10-3.3a32 32 0 0 1 10.5-4zm1094.4.9c.5-.2.8 3.9.8 9.1v9.5l6 6.6c3.3 3.6 6 7.5 6 8.6 0 4.4-6.1 7.3-11 5.2-1-.4-5.6-4-10.4-8.2-5.9-5-9.6-9-11.2-12.3-1.3-2.6-2.9-4.7-3.4-4.7-2.1 0-.8-1.8 1.8-2.5a84 84 0 0 0 11.7-5.8c5-2.9 9.3-5.4 9.7-5.5zm-105 17.6a2 2 0 0 1 1.8.2c6.4 3.4 13 4.5 34.8 6 17.2 1 22.7 2.7 19.8 5.9-.9 1-1.6 2.2-1.6 2.7 0 1.6-4 5-8.5 7.2-7.6 3.8-35.6 7.9-37.8 5.6-.5-.5-10.1-1-21.5-1a163 163 0 0 1-22-.8c-1-.6.2-1.7 4-4a264 264 0 0 0 31-21.8zm-1146.5 11c6.8-.1 9.8 1 16.7 5.9a66.3 66.3 0 0 1 15.6 14.9c0 .6-1.3 1.4-3 1.7-2.1.5-3.3 1.5-4.4 4-1.5 3.6-9.9 10.2-11.6 9.2-.5-.3-2.8.4-5.1 1.6-9.1 4.6-35.6 6-57.5 3-12.3-1.7-13.4-2.1-19-7.6a86.2 86.2 0 0 0-4.6-4.1c-.7-.6-2-3-2.7-5.3-1.3-3.7-1.2-4.3.4-6.1 1-1.1 2.5-2 3.2-2 .8 0 2.9-.8 4.6-1.7 2.5-1.3 6.5-1.8 18.7-2 15.5-.3 30-2.3 35-4.9 1.4-.7 3.7-2.4 5.2-3.8 2.2-2 3.8-2.6 8.5-2.7zm350.4 81a56.4 56.4 0 0 0-27.8 6.3H666a83 83 0 0 0-27-6.3zm210.7 21c-343.9 0-687.7.4-690.3 1-2.2.7-4.5 2.2-5.5 3.8-1.6 2.5-1.7 13.2-1.7 180.7 0 168.2 0 178.3 1.7 180.8 1 1.5 3.2 3.1 5 3.6 4.8 1.4 1376 1.4 1381 0 2.2-.5 4.5-2 5.5-3.6 1.7-2.5 1.8-13.2 1.8-180.8 0-167.5-.1-178.2-1.8-180.7a10 10 0 0 0-5.5-3.7c-2.6-.7-346.4-1.1-690.2-1.1zm677 18.5.4 3c.7 4 .2 330.3-.4 330.7-.8.5-441.6-1.2-522-2-99.2-1-373.7-.4-387 .9-6.7.6-91 1-227.8 1.2l-217.2.2-.5-3c-.7-4-.2-330.2.5-330.6.7-.6 441.5 1.1 522 2 99.1 1 373.7.4 387-.9 6.6-.6 91-1 227.7-1.2l217.3-.3zm-458.7 43.5c-1.3 0-17.4 13.4-34.3 28.5a57.5 57.5 0 0 1-11 8.5c-.9 0-7.6-6.2-15-13.9a428.1 428.1 0 0 0-17.3-17l-3.7-3.2-5.6 4.3-9 7.3-3.6 3 12 14c6.6 7.7 13.6 15.3 15.6 16.9 2 1.6 5.2 5 7 7.5a41 41 0 0 0 6.6 7c4 3 4.8 2.7 16.8-7.5 15.7-13.2 21.2-17.4 23.2-17.4s2 1.7 2 98.8c.1 54.3 0 100.3 0 102.1l-.2 3.4 4.3-3.2 12.1-8.9 7.8-5.6V2919l5.2 3.4a95.7 95.7 0 0 1 19 15.2c2.8 2.9 6 5.2 7 5.2a238 238 0 0 0 26.4-24.4c27-26.9 26-25.3 19.3-31-2-1.6-4.3-2.6-6.4-2.6-3 0-4.3 1.2-13 11.1a140.2 140.2 0 0 1-13.8 14c-3.7 2.7-4.2 2.8-6.6 1.5-4-2.1-14.7-10.2-23.5-17.9-8.3-7.2-19-14.7-21.3-14.7zm408.2 1.9-3 2.6a123 123 0 0 1-11.8 7.7l-8.7 5.2v55.2l-4.3 3.5c-16 13.3-41.6 32-43.8 32-1 0-23.9-15-47.7-31.3l-6.2-4.3v-33c0-23-.4-33.4-1.2-34.2-1.3-1.4-3.1-.7-8.3 3l-9.3 6.4-5.2 3.6V3120l2.2-1.2c1.2-.7 6.6-4.1 12-7.7l9.7-6.4.3-30 .3-30 3.6-3c15-13.2 39.6-31.8 42-31.8.4 0 3.3 2 6.4 4.6 3 2.5 9.6 7 14.6 10s13.2 8.5 18.2 12.1a212 212 0 0 0 12.9 8.7l3.7 2.1v73.6l5.8-3.3 11.7-7a39 39 0 0 1 6.7-3.9c1 0 1-216.7 0-222.3l-.6-3.8zm-898.2 2.1c-.3 0-4 2-8.2 4.2l-11.6 6.4-4 2-.3 113.3-.2 113.2 2.2-1.2a51 51 0 0 0 6.8-5.1 44 44 0 0 1 8-5.8c8.3-4.5 8-3.3 8-26.8 0-13.2.3-21.3 1-21.7.5-.3.8-1 .5-1.4-.8-1.2 7.1-8.3 47.1-42 28.2-23.9 31.9-28.8 29.5-39.5-1.3-5.5-6-13.2-8.7-14.2-.9-.4-5 1.7-9.7 4.7-4.5 3-9.7 6-11.4 7l-3.2 1.7 3.4 3.7c6.8 7.4 7 16.6.7 22l-12.6 11c-18.3 16.1-31.5 25.6-34.5 24.9-2.1-.6-2.1-.7-2.1-27.4 0-17.1.3-27 1-27.5.5-.3.8-1 .5-1.4-.8-1.2 7.1-8.3 47.1-42 28.2-23.9 31.9-28.8 29.5-39.5-1.3-5.5-6-13.2-8.7-14.2-.9-.4-5 1.7-9.7 4.7-4.5 3-9.7 6-11.4 7l-3.2 1.7 3.4 3.7c6.8 7.4 7 16.6.7 22l-12.6 11c-18.3 16.1-31.5 25.6-34.5 24.9l-2.1-.6v-39.4c0-21.6-.3-39.4-.7-39.4zm-143.3 0-4.3 2.4-10.2 5.6a91 91 0 0 0-7.3 4.3c-1 .8-1.2 24.5-1.2 112.7 0 61.4.3 112 .6 112.4.4.3.8.6 1 .6.7 0 17-11.8 19.1-14l2.3-2v-87.2l3.6.7c9 1.7 24.2 11.4 34 21.7 6.5 7 16.2 19.7 18.8 24.7a201 201 0 0 1 13.1 35.6l4 14.4c.9 2.4 14.4-9 18.6-15.8 1.4-2.2 1.3-3.2-.3-10.5-1.8-7.8-8-26.2-12-35.5-3.5-8-11-18.4-20.8-28.4-8.8-9.1-19.5-17.7-22-17.7-.6 0-1-.4-1-1 0-.5-1.5-1.7-3.3-2.6a14 14 0 0 1-4-2.7 54 54 0 0 1 10.3-12.1c6-6.1 15-16.4 20-23 10.2-13.5 12.8-19.7 13.7-33.3a44 44 0 0 0-5.5-25.4c-4-8.8-8-12.5-20.8-18.6l-8-3.8-13.4.2a50 50 0 0 0-19.3 2.2l-5.7 2v-5.9zm767 0-4.3 2.4-10.2 5.6a91 91 0 0 0-7.3 4.3c-1 .8-1.2 24.5-1.2 112.7 0 61.4.3 112 .6 112.4.4.3.8.6 1 .6.7 0 17-11.8 19.1-14l2.3-2v-87.2l3.6.7c9 1.7 24.2 11.4 34 21.7 6.5 7 16.2 19.7 18.8 24.7a201 201 0 0 1 13.1 35.6l4 14.4c.9 2.4 14.4-9 18.6-15.8 1.4-2.2 1.3-3.2-.3-10.5-1.8-7.8-8-26.2-12-35.5-3.5-8-11-18.4-20.8-28.4-8.8-9.1-19.5-17.7-22-17.7-.6 0-1-.4-1-1 0-.5-1.5-1.7-3.3-2.6a14 14 0 0 1-4-2.7 54 54 0 0 1 10.3-12.1c6-6.1 15-16.4 20-23 10.2-13.5 12.8-19.7 13.7-33.3a44 44 0 0 0-5.5-25.4c-4-8.8-8-12.5-20.8-18.6l-8-3.8-13.4.2a50 50 0 0 0-19.3 2.2l-5.7 2v-5.9zm-308.9 1c-.6 0-6 3-12.1 6.8l-11 6.7v110.3c0 100.7 0 110.2 1.6 110.2s13.8-8.4 18.6-12.8l2.8-2.5v-30.1c0-16.5.3-30.6.7-31.2.4-.6 2.1-1.1 3.8-1.1 6.6-.2 12.3-4 25.7-17 20.8-20.3 26.1-26.3 34.7-39.2 10.6-16 13.5-24.4 13.5-39 0-9.7-.2-11-2.8-16-11.4-22-19.4-30.4-33.6-35.6a74.1 74.1 0 0 0-18.8-4.4c-4.7 0-13.4 3.5-18 7.4-2.2 2-4.3 3.5-4.6 3.5-.3 0-.3-3.6 0-8 .5-5.6.3-8-.5-8zm-189.7 0-10.2 6.7-10.2 6.6v109.6c0 60.3.3 110.6.6 111.9.3 1.2 1.2 2.2 1.9 2.2s5.8-3.3 11.4-7.5l10-7.5v-174l5.8 5.8c5.7 5.7 8.3 8.6 26 29.3 9 10.5 12 13.6 12.6 12.8l9.2-10.9c5-5.7 10.5-12.5 12.4-15a438 438 0 0 1 13.8-16.1c5.7-6.4 11.8-13.6 13.6-16l3.2-4.3.2 102.8.3 102.7 6.7-3.7c3.7-2 9.3-5.5 12.5-7.6l5.8-3.8v-110.4c0-71.5-.4-110.7-1-111a40 40 0 0 0-11.3 3.4c-10.2 4.1-10.3 4.1-17.2 12.7a934.5 934.5 0 0 1-38 44c-.6.1-2.2-1.4-3.7-3.4s-9.3-10.7-17.5-19.3a872 872 0 0 1-23.5-25.5 259 259 0 0 0-11-12.2l-2.4-2.2zm-403.1.2c-1.3-.3-3.6.9-10.6 4.8-12 6.7-12.9 8-10.2 16.4l1.7 5.6-2.5 5.8a151.2 151.2 0 0 1-9.2 21.3 301 301 0 0 0-8.5 18.4 869 869 0 0 1-10.8 24c-8.4 18-17.7 40-25.8 61.3a311 311 0 0 1-7.8 19c-2.3 4.5-4 8.7-12.2 30.1a50.2 50.2 0 0 1-10.2 18.6 15.6 15.6 0 0 0-3.2 5.2c0 .7-.5 1.3-1 1.3-.6 0-1 .5-1 1.1 0 1.5 6.3.3 11-2.1 8.5-4.3 17.8-19.3 26-41.5 4.2-11.6 14.5-33.5 15.8-33.5a43.8 43.8 0 0 0 9 5.5c16.4 8.7 22.3 17.7 27 41.5 1.7 8 3.3 16.6 3.6 19.1.8 6 2.5 8.4 5.3 7.5 2-.6 3.3-5.2 4.6-17.6.7-6.5 4.7-24 6.7-29.4 4-10.9 21.5-33.6 28.8-37.5 2-1 2.4-.6 5.5 5.7 1.9 3.7 4.6 10.6 6.2 15.2 1.5 4.7 4.1 11.7 5.7 15.5l10.2 24.5a827 827 0 0 0 10.2 23.7c2.4 5 3.2 6 4.6 5.2a101.1 101.1 0 0 1 12.4-9.4c7.6-5.4 9.2-7 8.5-8.3-.5-1-4-9-7.6-18.2-3.6-9-7.7-18.7-9-21.5a6863.8 6863.8 0 0 0-15.6-37 3041.8 3041.8 0 0 1-34-86.5 3740 3740 0 0 1-9.3-23.5 171.9 171.9 0 0 0-13.3-29.6 2 2 0 0 0-1-.7zm149.6 19.5c4 0 6.8.5 10 2.2a49.3 49.3 0 0 1 15.6 14.3c3 5.7 6.5 18.3 6.5 23.6 0 6.4-4 16.2-10 25a217.3 217.3 0 0 1-29.2 29.9c-3.6 3-6.8 5.3-7.2 5.3-.8 0-.8-92.3 0-94.4 1-2.8 8.2-5.8 14.3-5.9zm767 0c4 0 6.8.5 10 2.2a49.3 49.3 0 0 1 15.6 14.3c3 5.7 6.5 18.3 6.5 23.6 0 6.4-4 16.2-10 25a217.3 217.3 0 0 1-29.2 29.9c-3.6 3-6.8 5.3-7.2 5.3-.8 0-.8-92.3 0-94.4 1-2.8 8.2-5.8 14.3-5.9zm-309.3 10.7c3.8-.6 8.3.2 14.9 2.2 7 2.1 9 3.3 13.7 7.7a45 45 0 0 1 10.3 42.3c-2.1 9.7-5 15.8-12.4 27.2a189 189 0 0 1-29.8 32.1c-2.8 1.4-2.3 1.6-6.1-1.6-2.9-2.5-3.4-3.6-4.2-10.3-.5-4-1-26-1-48.5v-41l3.7-3.7c4-3.7 7-5.8 10.9-6.4zm-615.6 20.7c.6-.1 1 .4 1 1.4 0 .9.3 1.5.7 1.5.4 0 1.6 2.4 2.6 5.2 1 2.8 4.6 11.5 7.9 19.2 3.3 7.8 7 17.2 8.3 21 1.3 3.7 4.9 12.3 8 19 3 6.9 5.5 13 5.5 13.5 0 1-1.4 1.5-3.3 1.3-.4-.1-.7.3-.7.8 0 .6-.6 1-1.3 1-3.3.1-17.5 12-23.7 20-3.6 4.6-7 8.5-7.5 8.7-.6.1-2.6-2.4-4.5-5.7a80.5 80.5 0 0 0-28.3-24.8c-2.6-1.3-4.7-2.6-4.7-3 0-3.6 33.6-72.9 37.3-77 1.1-1.2 2-2 2.7-2zm1160.3 34c.4 0 .7 11 .7 24.4a198 198 0 0 1-.8 24.5c-.9 0-15.4-9.1-27.8-17.4l-8.9-5.9 5.5-4.9c4.8-4.3 29.6-20.8 31.3-20.8zm-101.8 11c.2-.1 6.9 4.3 14.8 9.8 8 5.6 15.5 10.5 16.7 11 2 .7.4 2.2-13.5 13.2-8.6 6.8-16 12.6-16.4 12.7-.8.3-2.3-45.8-1.6-46.6z" />
</svg>