<svg xmlns="http://www.w3.org/2000/svg" xml:space="preserve" viewBox="0 0 2048 512">
  <path fill="#aaa" d="M1429.58 430.91c-3.5-.43-10.93-2.1-16.5-3.72a263.94 263.94 0 0 0-12.62-3.44c-1.38-.27-5.7-1.2-9.61-2.06-6.82-1.5-7.68-1.47-21 .84a1307.2 1307.2 0 0 0-22.4 4.07c-10.56 2.07-47.91 2.41-65 .6-24.83-2.64-68.91-9.38-71.4-10.92-.52-.32-15.15-.65-32.52-.74-27.04-.14-33.48-.48-44.83-2.32a323.74 323.74 0 0 1-17.62-3.26c-3.84-.97-5.7-.72-15.74 2.08-16.79 4.7-35 6.3-63.88 5.67-37.42-.82-67.11-4.22-85.07-9.73l-12.8-3.93-2.99 3c-2.92 2.92-5.43 3.54-12.14 3.01-3.63-.29-52-12.9-57.32-14.94a18.62 18.62 0 0 0-5.55-1.08c-1.5 0-10.8-2.25-20.63-5-9.84-2.75-18.64-5-19.56-5-1.3 0-1.61.84-1.44 3.87.12 2.12.53 4.38.92 5 .39.63.41 2.07.05 3.2-.7 2.21-2.08 2.2-13.47-.06-2.48-.5-8.55-1.65-13.5-2.58-4.95-.93-17.12-4.51-27.05-7.96-17.83-6.2-18.16-6.27-26.5-5.77-14.91.9-46.08-4.75-54.95-9.96-31.63-18.58-70.38-52.2-92.1-79.9-12.02-15.34-19.1-23.23-23.54-26.22a134.01 134.01 0 0 1-6.78-5.01c-6.65-5.28-4.87-1.89 3.97 7.56a270.3 270.3 0 0 1 14.46 16.84c3.15 4.14 6.52 8.18 7.48 8.98.97.8 4.42 5.41 7.66 10.23 3.25 4.83 6.31 8.78 6.82 8.78.5 0 4.3 5.06 8.42 11.25 12.55 18.84 26.75 35.26 36.65 42.37 2.73 1.96 4.96 3.99 4.96 4.5 0 4.01-9.97-1.23-19.06-10.03-2.6-2.53-6.67-6.4-9.03-8.6-2.36-2.2-8.1-9.84-12.75-17-9.46-14.52-14.99-21.96-21.01-28.25-2.25-2.34-6.62-7.7-9.74-11.9a196.7 196.7 0 0 0-9.36-11.75 155.9 155.9 0 0 1-7.4-9.02c-4.44-5.91-15.57-16.2-15.26-14.1.12.82 1.14 2.5 2.26 3.75 3.55 3.96 11.21 15.29 12.34 18.25.6 1.58 2.9 5.37 5.1 8.44 10.27 14.29 19.13 31.28 24.34 46.67 2.03 6 5 13.62 6.6 16.92 5.44 11.23 4.96 13.8-1.7 9.25-3.04-2.08-3.88-4.02-10.77-24.91-8.1-24.56-9.31-26.9-29.2-56.97-9.87-14.9-12.6-17.75-7.35-7.65 8.85 17.05 16 45.85 15.99 64.43 0 2.28.95 9.48 2.11 16 2.78 15.59 2.79 15.85.46 15.85-1.64 0-2.27-1.62-4.26-11-1.28-6.05-2.55-13.48-2.81-16.5l-1.08-12.5c-.77-8.9-4.78-26.2-7.4-31.97-1.11-2.43-2.02-5.02-2.02-5.76 0-.73-.68-2.29-1.5-3.46-.82-1.18-3.92-7.02-6.88-12.98-5.23-10.5-8.88-15.41-10.35-13.94-.4.4.46 2.83 1.9 5.41s3.9 8.52 5.47 13.2c2.51 7.47 2.86 9.94 2.86 20.5 0 11.41-.16 12.32-3.19 18.72-3.97 8.4-11.28 16.35-17.81 19.41-9.66 4.53-24.5 2.2-31.16-4.88-5.58-5.95-5.04-7.14 1.68-3.74 7.86 3.97 16.55 6.2 21.18 5.44 8.5-1.4 19.2-12.34 22.31-22.82.87-2.92 1.49-9.04 1.49-14.73 0-11.64-2.06-19.18-7.36-27-6.69-9.89-5.73-9.29-12.84-8.06-3.47.6-10.8 1.79-16.3 2.65-11.52 1.8-27.5 5.09-32.27 6.62-1.8.58-10.58 2.56-19.5 4.4-27.74 5.73-39.94 8.5-48.23 10.96a4935.74 4935.74 0 0 1-42.5 12.55 829.75 829.75 0 0 0-19.5 6c-14.2 4.54-32.97 9.74-40 11.06-4.55.86-10.98 2.73-46.5 13.56a890.4 890.4 0 0 0-26 8.53c-7.98 2.76-21.7 7.46-30.5 10.44a885.6 885.6 0 0 0-22.92 8.05c-6.76 2.58-7.12 2.61-16.27 1.41a356.24 356.24 0 0 1-23.58-4.33c-13.08-2.85-15.9-3.11-34.73-3.28-11.28-.1-20.95-.26-21.5-.36-1.9-.35 7.02-4.25 16.5-7.23 15.62-4.9 19.91-6.37 33-11.33 15-5.7 79.81-27.37 95.99-32.1a1414.6 1414.6 0 0 0 32.5-10.26c11.56-3.79 23.48-7.45 26.5-8.15a612 612 0 0 0 22.5-6.26c26.44-7.76 40.86-11.6 55.5-14.75 7.43-1.6 21.38-4.74 31-6.99 9.63-2.24 24.7-5.6 33.5-7.47 8.8-1.88 24.1-5.3 34-7.62 9.9-2.31 21.38-4.77 25.5-5.47 4.13-.7 6.38-1.36 5-1.47-2.05-.17-1.8-.4 1.35-1.23 5.45-1.44 16.05-11.63 19.77-19 8.62-17.07 7.64-33.95-2.54-44.14-10.61-10.6-32.62-13.83-46.76-6.85-7.53 3.72-15.52 11.59-19.4 19.1-2.55 4.97-2.65 5.6-1.31 8 .8 1.44 3.63 4.08 6.29 5.87 5.54 3.72 4.67 4.23-1.93 1.12-5.49-2.58-7.47-5.19-7.45-9.85.02-7.86 12.9-22.9 24.44-28.54 19.21-9.4 46.72-1.1 56.38 17.02 2.43 4.54 2.67 6 2.67 16 0 10.16-.26 11.6-3.31 19-5.31 12.84-6.43 14.63-11.41 18.35-2.6 1.94-4.6 3.66-4.45 3.81.87.88 22.33-5.96 28.67-9.13 7.89-3.95 14-8.07 14-9.46 0-.45 2-4.15 4.44-8.21 2.44-4.07 4.9-9.41 5.48-11.88 2.67-11.6.31-30.19-5.95-46.8-2.19-5.8-3.97-11.92-3.97-13.61 0-2.9.21-2.73 3.65 2.93 9.41 15.5 13.35 28.7 13.35 44.8 0 16.17-3.81 26.57-13.17 35.95-2.6 2.6-4.17 4.75-3.47 4.75 2.5 0 12.24-3.22 18.26-6.02 6.3-2.94 14.36-10.86 14.37-14.13 0-.9.67-1.9 1.47-2.2 3.56-1.37 13.26-25.5 16.55-41.15 3.73-17.75 5.26-20.45 6.5-11.47 2.22 16.17-7.21 45.58-19.48 60.76-4.64 5.73-4.83 6.15-2.12 4.75 3.75-1.94 18.38-18.86 24.75-28.63a97.03 97.03 0 0 0 7.73-14.92c1.59-4.12 3.43-8.17 4.08-9 .65-.82 2.36-3.52 3.79-6 2.6-4.5 12.67-16.17 12.71-14.73.02.42-1.29 3.12-2.9 6-1.61 2.88-5.29 11.3-8.16 18.72-6.1 15.72-12.04 25.87-20.41 34.91l-6 6.48 4.45-2.44c4.58-2.5 7.92-6.44 19.21-22.67 11.45-16.44 32.81-36.26 43.46-40.3 4.83-1.85 3.47-.37-4.07 4.4-9.04 5.73-22.97 20.2-27.34 28.39a238.59 238.59 0 0 1-9.63 15.59 1085.9 1085.9 0 0 0-7.16 10.79c-.35.57 1.16-.1 3.36-1.5 7.02-4.43 13.22-9 13.22-9.74 0-.4 3.44-3.57 7.65-7.06 12.98-10.74 18.8-16.16 20.15-18.77 4.63-8.89 7.47-11 12.35-9.2 2.47.91 4.48-.17 12.27-6.61 2.17-1.8 4.6-3.25 5.42-3.25.82 0 7.01-1.8 13.77-4 15.27-4.97 22-5.96 40.64-5.98 21.12-.03 50.16-4.5 64.75-9.97 8.96-3.37 37.67-13.05 38.67-13.05.18 0 .33.9.33 2 0 1.87.94 2.42 3.63 2.1.62-.08 3.25.77 5.84 1.88 2.6 1.12 9.66 2.92 15.7 4A270.06 270.06 0 0 1 886.3 120c2.02.54 12 1.08 22.17 1.18 17.58.18 18.87.06 26-2.4 4.12-1.43 11.32-3.5 16-4.59 4.67-1.1 16.37-3.88 26-6.2 9.62-2.3 20.42-4.56 24-5 3.57-.45 11.45-1.51 17.5-2.36 6.05-.85 13.7-1.57 17-1.6 3.3-.04 7.8-.72 10-1.5 5.34-1.91 15-3.13 39-4.93 36.15-2.7 47.08-2.91 56.5-1.12 11.67 2.23 43.76 5.56 53.5 5.56 4.4 0 10.7-.47 14-1.03 3.3-.57 11.85-1.7 19-2.5 7.15-.82 16.82-2.57 21.5-3.9 12.8-3.62 15.9-4 16.67-1.98.35.92-.07 3.08-.94 4.8a22.69 22.69 0 0 0-1.96 6.22l-.38 3.11 7.05-3.32c3.88-1.82 9.3-3.83 12.06-4.46a166.5 166.5 0 0 0 12.5-3.62 102.66 102.66 0 0 1 13.91-3.47 59.7 59.7 0 0 0 12.89-3.9c6.79-3.09 10.62-3.69 11.76-1.85.37.6.7 3.33.75 6.06.06 4.5.27 4.92 2.13 4.46a724.6 724.6 0 0 1 14.56-3c11.34-2.26 14.44-2.47 33.5-2.2 15.75.21 22.87.72 28.5 2.05 8.77 2.06 16.33 2.32 24 .8 3.3-.65 5.88-.72 6.45-.17.52.5 5.16.9 10.3.9 5.15 0 12.37.44 16.06.97l17.69 2.51c10.3 1.45 21.47 4.27 39.62 10 6.33 2 31.38 7.38 36.88 7.92.82.08 2.5.71 3.73 1.4 2.3 1.3 4.44.74 20.27-5.27a53.28 53.28 0 0 1 25-3.5c11.53 1.02 22.87 2.96 26.5 4.53 1.65.72 11.6 2.27 22.13 3.45 15.17 1.7 23.58 2.08 40.54 1.82l21.4-.32 5.3 4.61 5.3 4.62 9.16.54c15.54.91 54.7 11.6 68.72 18.76 2.53 1.28 7.34 2.34 13.05 2.87 4.97.46 9.5 1.3 10.06 1.86.7.7.48 2.18-.7 4.67-.95 2-1.55 3.78-1.34 3.95.2.17 4.43 1.31 9.38 2.53a355.23 355.23 0 0 1 23.71 7.27c13.97 4.8 14.8 5.23 16.6 8.68l1.88 3.64 10.4.55c9.58.52 11.49.99 23.9 5.9 22.4 8.87 23.12 9.09 28 8.5 2.48-.29 6.76-.05 9.5.53 2.76.59 6.8 1.34 9 1.67 7.41 1.13 9.37 4.94 5.17 10.02-4.18 5.05-7.41 11.72-8.03 16.6-.82 6.54-2.95 10.36-9.02 16.25a60.89 60.89 0 0 0-8.9 11.66 55.5 55.5 0 0 1-10.1 12.5 118.66 118.66 0 0 0-12.33 13.84c-3.26 4.39-8.5 10.16-11.64 12.83-5.07 4.32-13.63 15.19-13.65 17.34 0 .44-2.92 4.08-6.47 8.07-3.56 4-6.95 8.16-7.53 9.24-.58 1.09-2.27 2.26-3.77 2.62-1.5.36-3.2 1.02-3.77 1.47-.58.45-4.57.95-8.87 1.11l-7.83.3-2.74 9.26c-2.18 7.4-3.47 9.98-6.34 12.76-4.17 4.05-6.18 4.94-14.79 6.5-6.2 1.12-14.17 4.93-15.64 7.46-.4.7-4.8 3.69-9.74 6.63-6.78 4.02-10.06 5.38-13.28 5.49-2.36.08-5.06.8-6 1.62-.95.81-6 3.21-11.22 5.33-9.17 3.72-9.89 3.85-20.5 3.7-7.65-.1-11.62.26-13.02 1.17-1.12.73-4.04 1.66-6.5 2.07-6.17 1.02-7.98 2.16-7.98 5.03 0 3.35-5.24 5.54-15.5 6.48-10.32.95-35.56 5.48-42 7.54-6.82 2.18-23.09 3.05-29.02 1.56-3.78-.96-5.98-.9-11.34.28-13.76 3.02-43.46 4.62-50.14 2.7-1.38-.4-3.18-.4-4 .01-10.74 5.26-18.68 6.14-25.86 2.88-5.18-2.35-9.7-2.47-17.14-.47-7.6 2.03-15.01 1.86-21.76-.51l-5.72-2-4 3.05c-2.22 1.68-4.81 3.31-5.77 3.62-.96.32-1.75 1-1.75 1.52 0 1.66-13.04 6.92-20.9 8.42-8.11 1.56-33.3 1.7-44.98.27z"/>
  <path d="M1429.58 430.91c-3.5-.43-10.93-2.1-16.5-3.72a263.94 263.94 0 0 0-12.62-3.44c-1.38-.27-5.7-1.2-9.61-2.06-6.82-1.5-7.68-1.47-21 .84a1307.2 1307.2 0 0 0-22.4 4.07c-10.56 2.07-47.91 2.41-65 .6-24.83-2.64-68.91-9.38-71.4-10.92-.52-.32-15.15-.65-32.52-.74-27.04-.14-33.48-.48-44.83-2.32a323.75 323.75 0 0 1-17.62-3.26c-3.84-.97-5.7-.72-15.74 2.08-16.79 4.7-35 6.3-63.88 5.67-37.42-.82-67.11-4.22-85.07-9.73l-12.8-3.93-2.99 3c-2.92 2.92-5.43 3.54-12.14 3.01-3.63-.29-52-12.9-57.32-14.94a18.62 18.62 0 0 0-5.55-1.08c-1.5 0-10.8-2.25-20.63-5-9.84-2.75-18.64-5-19.56-5-1.3 0-1.61.84-1.44 3.87.12 2.12.53 4.38.92 5 .39.63.41 2.07.05 3.2-.7 2.21-2.08 2.2-13.47-.06-2.48-.5-8.55-1.65-13.5-2.58-4.95-.93-17.12-4.51-27.05-7.96-17.83-6.2-18.16-6.27-26.5-5.77-14.91.9-46.08-4.75-54.95-9.96-31.63-18.58-70.38-52.2-92.1-79.9-12.02-15.34-19.1-23.23-23.54-26.22a134.01 134.01 0 0 1-6.78-5.01c-6.65-5.28-4.87-1.89 3.97 7.56a272.6 272.6 0 0 1 14.46 16.84c3.15 4.14 6.52 8.18 7.48 8.98.97.8 4.42 5.41 7.66 10.23 3.25 4.83 6.31 8.78 6.82 8.78.5 0 4.3 5.06 8.42 11.25 12.55 18.84 26.75 35.26 36.65 42.37 2.73 1.96 4.96 3.99 4.96 4.5 0 4.01-9.97-1.23-19.06-10.03-2.6-2.53-6.67-6.4-9.03-8.6-2.36-2.2-8.1-9.84-12.75-17-9.46-14.52-14.99-21.96-21.01-28.25-2.25-2.34-6.62-7.7-9.74-11.9-3.1-4.2-7.32-9.5-9.36-11.75a155.9 155.9 0 0 1-7.4-9.02c-4.44-5.91-15.57-16.2-15.26-14.1.12.82 1.14 2.5 2.26 3.75 3.55 3.96 11.21 15.29 12.34 18.25.6 1.58 2.9 5.37 5.1 8.44 10.27 14.29 19.13 31.28 24.34 46.67 2.03 6 5 13.62 6.6 16.92 5.44 11.23 4.96 13.8-1.7 9.25-3.04-2.08-3.88-4.02-10.77-24.91-8.1-24.56-9.31-26.9-29.2-56.97-9.87-14.9-12.6-17.75-7.35-7.65 8.85 17.05 16 45.85 15.99 64.43 0 2.28.95 9.48 2.11 16 2.78 15.59 2.79 15.85.46 15.85-1.64 0-2.27-1.62-4.26-11-1.28-6.05-2.55-13.48-2.81-16.5l-1.08-12.5c-.77-8.9-4.78-26.2-7.4-31.97-1.11-2.43-2.02-5.02-2.02-5.76 0-.73-.68-2.29-1.5-3.46-.82-1.18-3.92-7.02-6.88-12.98-5.23-10.5-8.88-15.41-10.35-13.94-.4.4.46 2.83 1.9 5.41s3.9 8.52 5.47 13.2c2.51 7.47 2.86 9.94 2.86 20.5 0 11.41-.16 12.32-3.19 18.72-3.97 8.4-11.28 16.35-17.81 19.41-9.66 4.53-24.5 2.2-31.16-4.88-5.58-5.95-5.04-7.14 1.68-3.74 7.86 3.97 16.55 6.2 21.18 5.44 8.5-1.4 19.2-12.34 22.31-22.82.87-2.92 1.49-9.04 1.49-14.73 0-11.64-2.06-19.18-7.36-27-6.69-9.89-5.73-9.29-12.84-8.06-3.47.6-10.8 1.79-16.3 2.65-11.52 1.8-27.5 5.09-32.27 6.62-1.8.58-10.58 2.56-19.5 4.4-27.74 5.73-39.94 8.5-48.23 10.96a4935.86 4935.86 0 0 1-42.5 12.55 829.33 829.33 0 0 0-19.5 6c-14.2 4.54-32.97 9.74-40 11.06-4.55.86-10.98 2.73-46.5 13.56a890.4 890.4 0 0 0-26 8.53c-7.98 2.76-21.7 7.46-30.5 10.44a885.6 885.6 0 0 0-22.92 8.05c-6.76 2.58-7.12 2.61-16.27 1.41a356.32 356.32 0 0 1-23.58-4.33c-13.08-2.85-15.9-3.11-34.73-3.28-11.28-.1-20.95-.26-21.5-.36-1.9-.35 7.02-4.25 16.5-7.23 15.62-4.9 19.91-6.37 33-11.33 15.71-5.96 80.48-27.58 96.49-32.21 6.6-1.91 21.23-6.53 32.5-10.27 11.28-3.74 22.98-7.36 26-8.05 3.03-.68 13.16-3.5 22.5-6.24 26.44-7.76 40.86-11.6 55.5-14.75 7.43-1.6 21.38-4.74 31-6.99 9.63-2.24 24.7-5.6 33.5-7.47 8.8-1.88 24.1-5.3 34-7.62 9.9-2.31 21.38-4.77 25.5-5.47 4.13-.7 6.38-1.36 5-1.47-2.05-.17-1.8-.4 1.35-1.23 5.45-1.44 16.05-11.63 19.77-19 8.62-17.07 7.64-33.95-2.54-44.14-10.61-10.6-32.62-13.83-46.76-6.85-7.53 3.72-15.52 11.59-19.4 19.1-2.55 4.97-2.65 5.6-1.31 8 .8 1.44 3.63 4.08 6.29 5.87 5.54 3.72 4.67 4.23-1.93 1.12-5.49-2.58-7.47-5.19-7.45-9.85.02-7.86 12.9-22.9 24.44-28.54 19.21-9.4 46.72-1.1 56.38 17.02 2.43 4.54 2.67 6 2.67 16 0 10.16-.26 11.6-3.31 19-5.31 12.84-6.43 14.63-11.41 18.35-2.6 1.94-4.6 3.66-4.45 3.81.87.88 22.33-5.96 28.67-9.13 7.89-3.95 14-8.07 14-9.46 0-.45 2-4.15 4.44-8.21 2.44-4.07 4.9-9.41 5.48-11.88 2.67-11.6.31-30.19-5.95-46.8-2.19-5.8-3.97-11.92-3.97-13.61 0-2.9.21-2.73 3.65 2.93 9.41 15.5 13.35 28.7 13.35 44.8 0 16.17-3.81 26.57-13.17 35.95-2.6 2.6-4.17 4.75-3.47 4.75 2.5 0 12.24-3.22 18.26-6.02 6.3-2.94 14.36-10.86 14.37-14.13 0-.9.67-1.9 1.47-2.2 3.56-1.37 13.26-25.5 16.55-41.15 3.73-17.75 5.26-20.45 6.5-11.47 2.22 16.17-7.21 45.58-19.48 60.76-4.64 5.73-4.83 6.15-2.12 4.75 3.75-1.94 18.38-18.86 24.75-28.63a97.04 97.04 0 0 0 7.73-14.92c1.59-4.12 3.43-8.17 4.08-9 .65-.82 2.36-3.52 3.79-6 2.6-4.5 12.67-16.17 12.71-14.73.02.42-1.29 3.12-2.9 6-1.61 2.88-5.29 11.3-8.16 18.72-6.1 15.72-12.04 25.87-20.41 34.91l-6 6.48 4.45-2.44c4.58-2.5 7.92-6.44 19.21-22.67 11.45-16.44 32.81-36.26 43.46-40.3 4.83-1.85 3.47-.37-4.07 4.4-9.04 5.73-22.97 20.2-27.34 28.39a238.56 238.56 0 0 1-9.63 15.59 1085.9 1085.9 0 0 0-7.16 10.79c-.35.57 1.16-.1 3.36-1.5 7.02-4.43 13.22-9 13.22-9.74 0-.4 3.44-3.57 7.65-7.06 12.98-10.74 18.8-16.16 20.15-18.77 4.63-8.89 7.47-11 12.35-9.2 2.47.91 4.48-.17 12.27-6.61 2.17-1.8 4.6-3.25 5.42-3.25.82 0 7.01-1.8 13.77-4 15.27-4.97 22-5.96 40.64-5.98 21.12-.03 50.16-4.5 64.75-9.97 8.96-3.37 37.67-13.05 38.67-13.05.18 0 .33.9.33 2 0 1.87.94 2.42 3.63 2.1.62-.08 3.25.77 5.84 1.88 2.6 1.12 9.66 2.92 15.7 4A270.16 270.16 0 0 1 886.3 120c2.02.54 12 1.08 22.17 1.18 17.58.18 18.87.06 26-2.4 4.12-1.43 11.32-3.5 16-4.59 4.67-1.1 16.37-3.88 26-6.2 9.62-2.3 20.42-4.56 24-5 3.57-.45 11.45-1.51 17.5-2.36 6.05-.85 13.7-1.57 17-1.6 3.3-.04 7.8-.72 10-1.5 5.33-1.91 14.98-3.13 39-4.93 34.15-2.56 47.98-2.82 57-1.05 11.01 2.15 43.28 5.5 53 5.49 4.4 0 10.7-.47 14-1.03 3.3-.57 11.85-1.7 19-2.5 7.15-.82 16.82-2.57 21.5-3.9 12.8-3.62 15.9-4 16.67-1.98.35.92-.07 3.08-.94 4.8a22.69 22.69 0 0 0-1.96 6.22l-.38 3.11 7.05-3.32c3.88-1.82 9.3-3.83 12.06-4.46a166.5 166.5 0 0 0 12.5-3.62 102.65 102.65 0 0 1 13.91-3.47 59.7 59.7 0 0 0 12.89-3.9c6.79-3.09 10.62-3.69 11.76-1.85.37.6.7 3.33.75 6.06.06 4.5.27 4.92 2.13 4.46a724.6 724.6 0 0 1 14.56-3c11.34-2.26 14.44-2.47 33.5-2.2 15.75.21 22.87.72 28.5 2.05 8.77 2.06 16.33 2.32 24 .8 3.3-.65 5.88-.72 6.45-.17.52.5 5.16.9 10.3.9 5.15 0 12.37.44 16.06.97l17.69 2.51c10.3 1.45 21.47 4.27 39.62 10 6.33 2 31.38 7.38 36.88 7.92.82.08 2.5.71 3.73 1.4 2.3 1.3 4.44.74 20.27-5.27a53.28 53.28 0 0 1 25-3.5c11.53 1.02 22.87 2.96 26.5 4.53 1.65.72 11.6 2.27 22.13 3.45 15.17 1.7 23.58 2.08 40.54 1.82l21.4-.32 5.3 4.61 5.3 4.62 9.16.54c15.54.91 54.7 11.6 68.72 18.76 2.53 1.28 7.34 2.34 13.05 2.87 4.97.46 9.5 1.3 10.06 1.86.7.7.48 2.18-.7 4.67-.95 2-1.55 3.78-1.34 3.95.2.17 4.43 1.31 9.38 2.53a355.23 355.23 0 0 1 23.71 7.27c13.97 4.8 14.8 5.23 16.6 8.68l1.87 3.64 10.41.55c9.58.52 11.49.99 23.9 5.9 22.4 8.87 23.12 9.09 28 8.5 2.48-.29 6.76-.05 9.5.53 2.76.59 6.8 1.34 9 1.67 7.41 1.13 9.37 4.94 5.17 10.02-4.18 5.05-7.41 11.72-8.03 16.6-.82 6.54-2.95 10.36-9.02 16.25a60.89 60.89 0 0 0-8.9 11.66 55.5 55.5 0 0 1-10.1 12.5 118.66 118.66 0 0 0-12.33 13.84c-3.26 4.39-8.5 10.16-11.64 12.83-5.07 4.32-13.63 15.19-13.65 17.34 0 .44-2.92 4.08-6.47 8.07-3.56 4-6.95 8.16-7.53 9.24-.58 1.09-2.27 2.26-3.77 2.62-1.5.36-3.2 1.02-3.77 1.47-.58.45-4.57.95-8.87 1.11l-7.83.3-2.74 9.26c-2.18 7.4-3.47 9.98-6.34 12.76-4.17 4.05-6.18 4.94-14.79 6.5-6.2 1.12-14.17 4.93-15.64 7.46-.4.7-4.8 3.69-9.74 6.63-6.78 4.02-10.06 5.38-13.28 5.49-2.36.08-5.06.8-6 1.62-.95.81-6 3.21-11.22 5.33-9.17 3.72-9.89 3.85-20.5 3.7-7.65-.1-11.62.26-13.02 1.17-1.12.73-4.04 1.66-6.5 2.07-6.17 1.02-7.98 2.16-7.98 5.03 0 3.35-5.24 5.54-15.5 6.48-10.32.95-35.56 5.48-42 7.54-6.82 2.18-23.09 3.05-29.02 1.56-3.78-.96-5.98-.9-11.34.28-13.76 3.02-43.46 4.62-50.14 2.7-1.38-.4-3.18-.4-4 .01-10.74 5.26-18.68 6.14-25.86 2.88-5.18-2.35-9.7-2.47-17.14-.47-7.6 2.03-15.01 1.86-21.76-.51l-5.72-2-4 3.05c-2.22 1.68-4.81 3.31-5.77 3.62-.96.32-1.75 1-1.75 1.52 0 1.66-13.04 6.92-20.9 8.42-8.11 1.56-33.3 1.7-44.98.27zm31.45-13.81a156.43 156.43 0 0 0 14.8-4c12-4.18 18.55-11.12 11.93-12.64-7.68-1.76-18.55-5.38-35.8-11.94-10.45-3.96-23.7-8.9-29.46-10.97-5.75-2.07-12.1-4.84-14.1-6.17s-15.53-7.96-30.04-14.73c-33.9-15.83-51.72-24.77-60.13-30.2a210.39 210.39 0 0 0-16.8-9.33c-5.54-2.74-12.64-6.84-15.77-9.1a208.4 208.4 0 0 0-13.5-8.66c-4.29-2.51-7.62-4.74-7.4-4.96.57-.57 8.1 2.9 16.7 7.7 28 15.6 43.96 23.9 74.83 38.91 19.25 9.36 35.27 17.03 35.6 17.03.32 0 6.95 2.97 14.73 6.6 28.45 13.3 40.46 17.39 86.34 29.4 36.1 9.46 40.44 10.35 43.88 9.04 1.41-.54 7.39-.54 14.75 0 6.8.5 12.93.9 13.62.93 2.73.06.98-1.78-4-4.2-5.75-2.8-5.35-2.64-18.25-7.26-9.49-3.4-45.15-21.4-50.1-25.3a165.9 165.9 0 0 0-8.9-6.2c-5.64-3.7-13.46-9.89-10.78-8.54.67.33 7.2 4.22 14.5 8.62a363.85 363.85 0 0 0 46.01 23.28c23.97 9.88 54.91 15.9 65.2 12.66a81.95 81.95 0 0 1 6.07-1.6l3-.65-3-1.3c-1.65-.73-6.32-2.3-10.38-3.51-4.06-1.2-9.01-3.16-11-4.33l-3.6-2.13 2.99-.56 2.99-.56-4.5-2.32a160.25 160.25 0 0 1-11-6.54l-12-7.8c-3.03-1.95-10.13-5.6-15.8-8.1-9.76-4.33-16.78-8.4-15.93-9.24.88-.88 62.76 28.81 72.45 34.76 12.04 7.38 47.89 15.64 56.51 13.02 1.8-.55 6.88-1.26 11.3-1.59 4.4-.33 13.54-1.5 20.3-2.6 9.47-1.54 13.56-1.79 17.96-1.08 3.14.5 6.1.54 6.57.09 2-1.9-13.28-7.49-23.36-8.53-17.33-1.8-65.35-16.24-93-27.98a593.6 593.6 0 0 0-15-6.1c-8.6-3.32-25.03-11.08-31.96-15.1-7.4-4.3-21-13.65-20.54-14.12.2-.2 5.24 2.23 11.19 5.4 15.28 8.18 25.8 13.28 32.25 15.65 3.06 1.13 6.02 2.41 6.58 2.85 1.35 1.06 18.7 7.44 29.98 11.02a1001.2 1001.2 0 0 1 17.5 5.77c4.67 1.6 16.37 4.78 26 7.07a719.31 719.31 0 0 1 20.5 5.08c1.65.51 7.05 1.63 12 2.49 4.95.86 12.21 2.16 16.14 2.9 4.83.9 11.84 1.16 21.7.83 13.87-.47 14.57-.6 14.86-2.61.26-1.85 1.05-2.15 6.3-2.37 10.25-.44 14.92-1.39 16.85-3.42 1.02-1.08 1.7-2.08 1.5-2.24-.2-.16-3.73-1.56-7.85-3.12-4.13-1.56-8.18-3.38-9-4.04-.83-.67-8.27-4.6-16.55-8.72-8.28-4.13-15.65-8.23-16.37-9.11-2.2-2.63.28-1.93 10.53 2.99 12.95 6.2 29.7 12.41 34.75 12.85 2.27.2 8.13 1.08 13.02 1.96 4.88.89 10.4 1.6 12.26 1.6 3.84 0 25.08-10.2 30.2-14.5 3.38-2.85 4.02-4.5 1.76-4.5-.76 0-1.6-.56-1.87-1.24-.59-1.53-6.08-3.14-19.23-5.66-5.5-1.05-16.53-4.37-24.5-7.38a542.49 542.49 0 0 0-17-6.21c-2.65-.78-20.7-8.65-35.14-15.32-4.74-2.2-12.4-6.2-17-8.92-4.6-2.71-15.79-9.12-24.86-14.23-17.83-10.06-18.78-10.66-15-9.54 6.93 2.04 24.58 10.28 33 15.4 12.72 7.74 19.98 11.73 23 12.63 1.37.41 7.81 3.61 14.3 7.11 6.5 3.5 15.73 7.73 20.5 9.41 26.6 9.33 32.44 11.23 40.03 13.06 10.11 2.44 25.2 4.15 34.67 3.92 8.04-.2 11.78-2.5 11.38-7-.13-1.39.16-4.1.63-6.02.96-3.92 1.12-4.78 1.34-7.18.08-.93.8-2.33 1.58-3.11 1.25-1.25.88-1.62-2.75-2.81-3.86-1.28-40.85-19.82-39.64-19.88.99-.05 26.33 9.02 38.96 13.94 9.11 3.55 14.93 5.16 21.46 5.94 8.73 1.05 9.07 1.01 12.69-1.38a32.95 32.95 0 0 0 6.53-6.1c1.55-2 4.66-5.96 6.9-8.78 3.53-4.43 4.03-5.67 3.64-8.92-.3-2.5-1.15-4.15-2.53-4.89-2.59-1.38-24.08-9.37-32.2-11.96-3.3-1.05-6.9-2.97-8-4.27a20.37 20.37 0 0 0-5-3.95l-3-1.6 3.5.62c5.53.97 30.04 9.78 41.68 14.97l10.6 4.73 5.11-2.76c5.93-3.2 15.43-13.6 13.4-14.68-.7-.37-3.08-1-5.28-1.4-2.2-.39-4.45-1.07-5-1.52-.55-.44-8.05-2.4-16.66-4.34-14.61-3.3-22.17-6-25.88-9.25-1.82-1.6-17.04-8.37-36.18-16.12-9.04-3.65-13.92-6.16-14.3-7.34-.47-1.49-2.16-1.89-10.27-2.42-5.34-.35-15.56-1.1-22.71-1.66-7.15-.57-30.78-1.5-52.5-2.06a120154 120154 0 0 1-56-1.47c-9.08-.24-19.65-.05-23.5.42l-7 .86 4.5 1.28c2.47.7 5.02 1.7 5.65 2.23.64.52 5.68 2.24 11.22 3.82 11 3.14 12.13 3.63 12.13 5.24 0 2.48-19.3-1.27-37.28-7.26-11.05-3.68-33.25-5.95-62.01-6.34a522.6 522.6 0 0 1-36.66-1.9c-9.04-.9-16.58-1.5-16.76-1.33-.17.17 3.86 1.57 8.95 3.1 9.97 3.01 19.76 7.2 19.76 8.44 0 .42 1.91 1.34 4.25 2.04 11.74 3.5 58.69 28.94 53.55 29.02-.93.01-11.28-4.66-23-10.39-26.55-12.98-33.02-15.62-59.8-24.41-15.7-5.16-26.49-8-40-10.54-17.08-3.2-30.9-5.28-26.75-4.02.96.3 1.75 1 1.75 1.57 0 .57-.7.77-1.53.44-5.27-2.02-14.05-3.58-19.33-3.44-3.38.1-6.14.28-6.14.4 0 .13 4.76 3.01 10.57 6.41 5.82 3.4 10.34 6.42 10.05 6.71-.29.3 2.94 2.23 7.18 4.3 6.8 3.34 15.6 9 14 9-.33 0-5.48-2.3-11.45-5.11-40.97-19.28-56.37-23.9-79.73-23.9-8.04 0-14.61.34-14.6.76 0 .4 2.15 1.76 4.75 3 5.4 2.56 4.52 2.48-12.03-1.17-6.46-1.42-14.11-2.54-17-2.49l-5.24.1 5 1.28c4.28 1.1 4.55 1.3 1.88 1.4-1.7.07-5.5-.33-8.4-.88-6.48-1.23-7.77-.55-1.95 1.02 4.85 1.3 11.54 5.44 12.4 7.65.48 1.28-.44 1.42-6.18.94-8.43-.7-23.15-3.24-29.75-5.13-12.33-3.53-29.3-6.1-59-8.94-18.73-1.79-27.5-1.95-27.5-.5 0 .68-4.1.8-12.25.35l-12.25-.68 2 2.3 2 2.28-3.5-.6c-1.93-.34-10.25-.85-18.5-1.15l-15-.54 7.87 2.8c4.33 1.53 8.61 3.7 9.51 4.82a16 16 0 0 0 3.63 3.17c3.4 1.98-.04 1.33-9.2-1.71-12.26-4.08-19.09-5.7-31.81-7.52-14.73-2.11-39.6-3.46-44.8-2.43-6.18 1.22-31.18 3.88-36.56 3.88h-4.64l3.5 2.08c1.92 1.15 3.96 2.67 4.52 3.37.56.71 4.38 2.64 8.5 4.3 11.16 4.47 21.56 9.55 20.38 9.94-.58.2-3.49-.72-6.47-2.02-2.99-1.3-11.06-4.02-17.93-6.05-6.88-2.03-16.78-5-22-6.62-20.07-6.21-27.32-7.04-43.72-4.98-4.49.56-16.22 1.62-26.08 2.35-18.23 1.35-21.9 2.1-18.83 3.81 4.68 2.62.74 2.94-29.62 2.39l-31.25-.57 16 3.5c19.07 4.18 19.17 4.22 17.76 5.63-1.08 1.08-7.97.34-34.26-3.69-7.3-1.11-12.94-1.39-18.5-.9-4.4.4-13.11.72-19.36.73l-11.36.01 7.86 4.28c13.27 7.21 14.05 7.74 12.2 8.16-.92.21-7.45-1.42-14.5-3.63-15.77-4.93-24.89-6.55-32.23-5.71-16.1 1.82-38.72 3.44-41.2 2.94a14.9 14.9 0 0 0-5.5.1c-2.44.62-2.08.94 4.52 4.1 3.95 1.9 8.27 4.75 9.6 6.34a21.5 21.5 0 0 0 6.1 4.63c2 .95 7.33 4.13 11.83 7.06 4.5 2.94 10.65 6.26 13.66 7.39 5.87 2.2 15.42 7.84 14.62 8.64-1.44 1.44-18.53-6.98-37.74-18.6-20.68-12.5-35.63-16.87-53.44-15.63-13.99.98-31.82 3.78-34.28 5.38-2.06 1.35-2.1 1.6-.66 3.8.97 1.5 3.54 2.95 6.91 3.93 2.95.86 5.67 2.05 6.04 2.66.95 1.52-1.65 3.01-4.07 2.35-8.21-2.27-16.7-3.69-27-4.52l-23.5-1.92c-29.68-2.47-32.56-2.5-34.1-.33-1.17 1.67-2.9 2.08-10.46 2.5-7.98.46-14.45 2.12-13.18 3.39.24.24 6 1.34 12.8 2.45 12.58 2.05 21.24 4.2 23.94 5.95 2.09 1.35 1.5 1.28-9.64-1.15-10.04-2.19-33.53-3.2-41.36-1.78l-3.5.63 3.02 1.4c1.66.77 5.44 2.98 8.4 4.9l5.37 3.5-4.4.5c-2.9.33-7.96-.4-14.9-2.14a302.49 302.49 0 0 0-14.32-3.3l-3.82-.68 5.72 6.81c3.15 3.75 14.76 16.65 25.8 28.68 19.18 20.89 32.5 33.24 50.63 46.93 4.12 3.12 9.3 7.19 11.5 9.05 2.2 1.86 10.75 6.56 19 10.44 12.32 5.8 16.95 7.44 25.9 9.16 5.99 1.15 11.11 1.87 11.38 1.6 1.45-1.45-3.83-5.89-13.44-11.28-12.12-6.8-13.88-8.07-30.84-22.26a688.44 688.44 0 0 0-20.75-16.67c-4.81-3.64-8.75-7.06-8.75-7.58 0-1.47 6.9 2.96 17.54 11.24l16.97 13.2a98.86 98.86 0 0 0 15.16 9.4 406.4 406.4 0 0 1 17.33 8.94c16.16 8.91 39.37 17.6 71.8 26.86 9.6 2.75 11.2 2.71 11.2-.26 0-4.69-2.38-6.66-15.86-13.14-27.51-13.22-52.7-29.2-78.14-49.55a301.18 301.18 0 0 0-20.16-14.77c-9.7-6.24-11.8-8.36-7.24-7.29 6.58 1.55 15.67 7.12 28.9 17.69 28.3 22.6 43.57 32.54 69.5 45.19 15.8 7.71 19.29 8.99 36 13.2a709.17 709.17 0 0 0 30.64 7.02c6.69 1.3 13.58 3.1 15.32 4 4.54 2.34 6.07 1.31 1.9-1.27a782.85 782.85 0 0 1-19.94-13.77c-9.03-6.38-19.8-13.62-23.92-16.08-9.15-5.45-12.66-8.05-11.9-8.8.85-.85 10.95 3.53 10.36 4.49-.27.44.53 1.1 1.77 1.49 3.15.96 21.26 11.92 26.2 15.86 7.35 5.86 33.49 23.65 37.32 25.4 2.06.95 5.79 2.94 8.28 4.42 2.77 1.66 7.41 3.17 12 3.9 4.1.66 10.84 1.97 14.97 2.91 4.12.94 7.62 1.6 7.78 1.47 1.58-1.33-8.01-15.93-12.42-18.9-1.73-1.16-11.4-7.93-21.5-15.06-16.93-11.93-24.35-17.6-43.36-33.09-16.02-13.04-37.87-26.58-48.47-30-7.66-2.49-9.95-3.87-8.62-5.2.98-.98 11.08 2.48 24.9 8.53 13.32 5.85 21.98 11.75 45.02 30.71 5.35 4.4 13.3 10.25 17.69 13 4.38 2.75 16.37 11.08 26.65 18.5 30.67 22.16 37.77 25.9 54.86 28.92 6.58 1.17 15.55 2.78 19.93 3.59 11.6 2.13 35.53 4.5 44.92 4.44l8.12-.05-12-4.28c-11.7-4.16-23.17-9.48-30.42-14.1-26.3-16.75-38.61-25.32-37.68-26.25.78-.78 29.97 15.52 34.6 19.32.82.68 6.23 3.73 12 6.78 11.66 6.16 23.15 9.61 40.15 12.09 20.35 2.96 30.2 3.07 47.82.51 8.84-1.27 15.73-2.63 15.3-3-.42-.37-4.82-1.91-9.77-3.42-21.72-6.62-30.01-10.1-31.16-13.1-.27-.71-2.2-1.97-4.28-2.8-2.08-.84-12.29-7.09-22.67-13.89a938.97 938.97 0 0 0-28.53-18.02c-5.3-3.12-16.55-11.21-25-17.99-8.45-6.77-20.76-16.3-27.36-21.17-15.19-11.2-15.8-11.86-6.05-6.6 19.65 10.61 41.5 25.01 61.2 40.35 4.12 3.2 8.8 6.28 10.42 6.85 1.6.56 2.64 1.48 2.29 2.05-.36.58-.03.82.75.56.76-.26 2.06.28 2.89 1.21.82.93 3.52 2.95 6 4.5 2.47 1.54 10.22 6.55 17.22 11.13 7 4.58 15.78 9.85 19.5 11.72 10.96 5.5 30.34 11.27 52.28 15.57 34.41 6.74 39.77 7.29 62.92 6.48 23.5-.81 22.94.2 5.6-10.4a940.7 940.7 0 0 1-19.88-12.56c-19-12.43-33.99-20.53-57.04-30.83-7.6-3.4-6.69-4.5 1.04-1.26a130.6 130.6 0 0 0 11.86 4.18c6.2 1.78 16.6 6.67 27 12.7 30.13 17.5 47.27 27.01 60 33.28 12.8 6.31 17.42 8 31.5 11.54 25.1 6.31 36.8 8.01 59.59 8.66 12.7.36 20.75.2 21.88-.43 1.47-.83.9-1.14-3.09-1.74-10.3-1.52-55.75-21.32-59.88-26.08-.55-.63-2.6-2.1-4.57-3.27a28.67 28.67 0 0 1-5.5-4.27c-1.06-1.18-4.18-3.17-6.93-4.42s-5.9-2.99-7-3.85c-2-1.58-2-1.58.09-1.62 1.15-.01 9.25 3.63 18 8.1l27.9 14.24c16.23 8.29 29.73 13.06 46.1 16.31l13.7 2.72 9.6-1.67c11.43-2 17.1-3.53 17.1-4.62 0-.44-6.18-3.65-13.74-7.13-28.09-12.93-63-30.98-59.9-30.98.44 0 9.62 4.1 20.39 9.11 10.77 5.02 24.12 10.83 29.67 12.92 5.55 2.1 15.26 6.11 21.59 8.93 6.32 2.82 14.65 5.99 18.5 7.04 15.37 4.2 24.23 7.1 29.03 9.5 10.3 5.15 32.98 6.83 48.04 3.56zm-216.07-72.9c-29.43-15.07-51.22-27.69-75.3-43.6-5.66-3.75-10.1-7-9.86-7.24.55-.55 26.96 13.87 53.66 29.31a1516.8 1516.8 0 0 0 29 16.3c14.2 7.72 28.75 17.35 25.75 17.04-.14-.01-10.6-5.33-23.25-11.8zm419.5-25.08c-3.58-2.05-10.55-6.07-15.5-8.94-4.95-2.87-10.01-5.47-11.25-5.79-1.24-.31-2.25-1-2.25-1.52s-.45-.67-1-.33-1 .14-1-.44c0-.59-.6-1.06-1.35-1.06-.74 0-2.4-.92-3.68-2.03a13.87 13.87 0 0 0-4.66-2.6c-1.27-.33-2.31-1.04-2.31-1.6 0-.57 1.1-.72 2.57-.35 5.96 1.5 44.64 19.87 46.3 21.99 1.22 1.56 2.3 6.6 1.4 6.49-.43-.06-3.7-1.78-7.27-3.82zm-273.5-14.64c-9.35-4.7-19.93-10.4-23.5-12.67-3.58-2.27-8.37-5.28-10.64-6.7-8.18-5.08-7.7-5.08 2.14.03 5.5 2.85 16.07 8.3 23.5 12.1 16.3 8.34 26 13.93 26 15 0 1.1 1.22 1.65-17.5-7.76zm98.49-7.76a235.42 235.42 0 0 0-15.5-9.15 450.55 450.55 0 0 1-16.5-9.37 624.6 624.6 0 0 0-14-8.22 885.61 885.61 0 0 1-18.5-11c-6.6-4.01-15.6-9.24-20-11.6-4.4-2.37-7.62-4.32-7.17-4.33 2.03-.04 24.82 11.55 42.18 21.45 15.66 8.92 52.36 32.31 55.95 35.65 2.07 1.93-.28.68-6.46-3.43zm-363.5-22.34a1142.6 1142.6 0 0 1-19.33-11.08c-32.65-18.96-71.64-35.37-105.16-44.23-16.49-4.36-29.1-7-32.74-6.83-2.33.11-4.13-.23-4-.75.56-2.26 15.47-.7 31.74 3.3 9.07 2.24 17.96 4.37 19.75 4.74 1.79.37 3.25 1.04 3.25 1.5 0 .47 1.46 1.16 3.25 1.53 8.68 1.84 41.94 15.46 61 25 16.71 8.35 47.75 26.55 47.75 27.99 0 .93-2.52.4-5.5-1.17zm670.97-26.4c-2.77-.37-9.3-2.37-14.5-4.43-12.67-5.03-34.13-14.68-33.67-15.14.56-.56 14.45 3.87 31.2 9.94 24.45 8.86 28.58 11.2 16.97 9.64zM159.2 346.15c4.81-1.6 13.92-4.7 20.25-6.89 10.05-3.48 29.8-9.7 51-16.04 3.57-1.07 12.35-3.77 19.5-5.99s16.82-5 21.5-6.17c13.06-3.27 28.61-7.62 50-13.98 41.1-12.23 83.04-23.2 128.27-33.55a2254.9 2254.9 0 0 0 42.13-10.1c40.01-10.16 104.51-22.3 151.1-28.41a937.62 937.62 0 0 0 20.96-2.96c3.28-.54 10.7-1.24 16.5-1.56 10.53-.57 23.6-2.18 40.54-4.99 8.2-1.36 41.37-5.5 56-6.98 3.3-.34 12.3-1.47 20-2.52 16.13-2.2 40.27-4.03 59-4.49 7.15-.17 21.1-1.46 31-2.86 40.34-5.71 63.58-7.3 157-10.76 66.72-2.46 198.83-1.23 231 2.15 12.8 1.35 48.8 1.62 85.5.64 20.3-.53 38.08-.46 50 .22l36 2.04c9.62.54 32.12 1.48 50 2.1 67.12 2.3 87.38 3.56 112.01 7.01 7.33 1.03 35.03 2.27 33.49 1.5-.55-.27-10.23-1.37-21.5-2.45-40.7-3.9-121.79-12.07-134.5-13.54-7.15-.83-20.43-2.18-29.5-3-9.08-.81-18.75-1.72-21.5-2.01-13.28-1.4-48.66-2.74-107-4.02-12.1-.26-39.78-1-61.5-1.63-21.73-.64-55.25-1.2-74.5-1.26-39.62-.12-153.95 1.94-155.34 2.8-.5.3-20.65 1.02-44.78 1.58-51.27 1.2-71.21 2.23-107.38 5.52a2536.5 2536.5 0 0 1-50 3.98c-56.7 3.8-107.94 9.52-147.5 16.5-14.17 2.5-22.55 3.57-46.88 6.04-10.93 1.1-20.16 2.19-20.5 2.4-.36.22-6.04 1.35-12.63 2.52-6.6 1.17-12.9 2.53-14 3.03-1.1.5-8.3 1.86-16 3.02-48.98 7.4-81.18 13.5-110.5 20.96-6.32 1.61-13.74 3.23-16.5 3.6-8.01 1.1-32.03 6.27-44.3 9.55a410.2 410.2 0 0 1-18 4.4c-3.68.75-14.8 3.42-24.7 5.93a783.27 783.27 0 0 1-27.74 6.54 214.8 214.8 0 0 0-21.57 6c-6.5 2.22-13.59 4.03-15.75 4.03-2.17 0-10.46 2.27-18.44 5.05-18.97 6.61-36.98 12.17-50 15.44a463.9 463.9 0 0 0-26.5 7.96c-8.8 2.93-27.8 9.22-42.22 13.97-14.42 4.76-28.96 9.87-32.32 11.37l-6.09 2.72 5.42 2.74c5.08 2.57 15.4 5.42 20.47 5.65 1.24.05 6.19-1.2 11-2.8zm698-145.81c1.25-.24 3.05-.23 4 .02.97.25-.05.44-2.25.43-2.2 0-2.98-.21-1.74-.45zm1065.57 53.22c3.73-1.56 9.48-8.05 8.23-9.3-.4-.39-1.93-.71-3.4-.71-1.69 0-2.65-.55-2.65-1.5 0-2.51-2.09-3.1-14.28-4.03-13.25-1.02-25.92-3.22-29.62-5.17-2.13-1.11.66-1.33 19.2-1.5 11.94-.12 24.06-.68 26.95-1.26 2.89-.57 7.39-1.46 10-1.96 7.84-1.5 10.25-2.77 10.25-5.36 0-4.27-1.57-4.72-16.14-4.72-7.56 0-14-.4-14.3-.89-.3-.49 3.17-1.43 7.7-2.09 11.17-1.63 22.9-6.25 27.27-10.76 3.76-3.87 4.5-5.91 1.72-4.74-.96.4-5.35 1.78-9.75 3.05-4.4 1.28-9.6 2.99-11.57 3.81-6.08 2.54-29.9 7.65-40.93 8.77-15.83 1.61-30.62.13-27.72-2.77.36-.36 8.2-.77 17.44-.92 10.16-.16 19.93-.9 24.78-1.85 8.58-1.7 31.46-8.4 32.82-9.63.46-.4-1.23-1.02-3.75-1.36l-9.12-1.24c-2.5-.35-5.12-1.2-5.81-1.89-2.27-2.26-9.12-5.3-15.7-6.97a197.1 197.1 0 0 1-11.94-3.48c-7.99-2.68-13.65-1.7-29.96 5.18-5.2 2.2-11.5 4.6-14 5.34l-4.54 1.34 2.5-1.94a78.85 78.85 0 0 0 4-3.32c.82-.76 5.7-3.96 10.83-7.13 5.14-3.16 8.96-6.11 8.5-6.57-2.75-2.7-39.34-13.94-45.44-13.94-1.44 0-4.33 1.36-6.43 3.02-6.61 5.26-8.79 1.55-2.9-4.95l3.67-4.07h-3.05c-5.1 0-16.08 2.73-27.68 6.88-14.99 5.36-22.95 9.06-35.41 16.46-18.09 10.73-19.36 11.37-28.4 14.19-6.51 2.02-9.11 2.45-9.94 1.62-1.38-1.38-2.09-.87 9.16-6.56a195.5 195.5 0 0 0 18.5-11c10.58-7.26 25.36-15.49 29.91-16.65 1.75-.45 7.49-2.6 12.76-4.77 5.27-2.18 12.13-4.5 15.25-5.14 3.12-.65 5.67-1.36 5.67-1.59 0-.22-2.14-1.52-4.75-2.88-2.61-1.36-4.08-2.52-3.25-2.57 1.88-.13-17.94-6.14-28-8.5-15.76-3.68-23.14-4.56-43-5.13-19.78-.57-21.13-.48-38.17 2.5-20.05 3.49-31.43 7.26-53.46 17.73a484.24 484.24 0 0 1-20.87 9.4c-8.12 3.23-49.5 14.17-49.5 13.08 0-.4 6.41-2.67 14.25-5.04 17.05-5.14 28.94-9.92 54.25-21.83 18.79-8.84 35.36-14.9 47-17.18 11.2-2.2 33.69-9.12 31.74-9.78-.7-.23-6.05.1-11.9.73-15.08 1.62-34.8.49-43.84-2.52-3.85-1.28-14.79-3.35-24.3-4.6-17.1-2.26-17.44-2.26-29.4-.53-10.97 1.59-30.38 7.6-37.48 11.6-1 .56-4.8 2.33-8.43 3.92a112.73 112.73 0 0 0-14.35 8.13c-4.27 2.88-10.07 6.27-12.9 7.54a54.28 54.28 0 0 0-8.52 4.85c-1.85 1.4-4.66 2.78-6.25 3.08-8.95 1.72-9.22 1.57-2.55-1.48 8.1-3.7 12.76-6.53 23.3-14.17a192.5 192.5 0 0 1 16.6-10.5c8.93-4.9 10.4-6.3 6.65-6.3-2.5 0-36-7.54-40.37-9.09-4.72-1.67-31.17-7.9-40-9.43-4.4-.76-10.28-1.81-13.06-2.34-8.94-1.68-22.42-1.59-30.44.22-18.86 4.25-40.06 10.16-45.91 12.79-3.53 1.58-12.08 6.42-19 10.74-16.14 10.08-19.68 11.83-27.32 13.53-14.77 3.28-15.04 3.06-3.77-2.98a830.63 830.63 0 0 0 27.1-15.6c17.28-10.36 28.45-15 39.3-16.37 3.08-.38 5.6-1.1 5.6-1.58 0-.49.76-.88 1.7-.88 1.15 0 1.37-.33.68-1.02-1.84-1.84-37.6-2.28-49.88-.61-36.84 5-47.9 9.13-71.71 26.85-15.36 11.42-23.72 17.15-27.27 18.67l-2.98 1.27 1.98-2.2c1.09-1.22 5.13-4.35 8.98-6.97a612.33 612.33 0 0 0 18-12.99c6.05-4.53 11.56-8.46 12.25-8.73.69-.27 1.26-1 1.27-1.63.03-1.78 9.72-11.6 12.5-12.65 1.36-.52 2.48-1.56 2.48-2.31 0-.76.95-2.23 2.1-3.28 2.17-1.96 6.4-9.4 5.35-9.4-.33 0-2.47 1.28-4.77 2.86-6.5 4.45-11.17 6.52-25.06 11.12-13.38 4.43-30.64 12.25-36.52 16.54-1.87 1.36-4.27 2.48-5.35 2.48-1.07 0-3.14.82-4.6 1.83-4.7 3.25-19.53 10.88-23.65 12.17-2.2.7-4.5 1.64-5.1 2.12-1.07.84-2.4.2-2.4-1.15 0-.38 2.36-2.26 5.25-4.18 12.7-8.44 30.75-27.15 30.75-31.85 0-2.47-.25-2.44-4.84.46-4.25 2.68-9.43 4.57-20.89 7.63-6.98 1.87-9.42 2.01-23.91 1.4-19.62-.81-18.96-.99-47.6 12.68-27.74 13.23-35.45 16.3-47.15 18.82-5.43 1.17-10.06 1.96-10.27 1.74-.21-.21 5.13-2.67 11.88-5.45a753.35 753.35 0 0 0 32.28-14.76c11-5.33 22.02-10.62 24.5-11.75l4.5-2.06-7.5-.84-24.5-2.76a523.24 523.24 0 0 0-28.66-2.45c-10-.45-11.75-.3-12.26 1.05-.4 1.04-1.43 1.42-3.06 1.1-3.7-.7-12.7.83-26.02 4.45-9.27 2.51-15.75 5.18-28.5 11.72-20.99 10.76-37.91 19.08-38.8 19.07-.39 0 2.67-1.95 6.8-4.33a431.88 431.88 0 0 0 16.13-9.92 168.97 168.97 0 0 1 35.87-17.82l10.5-3.74-6.5.47c-23.26 1.7-52.81 6.27-68 10.51a516.12 516.12 0 0 1-15.5 4c-11.79 2.82-26.2 7.4-42 13.33-21.8 8.2-26.3 10.18-30.29 13.33-2.04 1.62-9.27 6.18-16.06 10.13-18.64 10.84-17.17 7.95 3.38-6.67a363.79 363.79 0 0 1 15-10.24c5.23-3.15 5.12-3.02 3.48-4.03-.78-.49-5.05-.65-9.47-.35-9.94.66-29.38-1.8-35.76-4.54a78.93 78.93 0 0 0-8.1-2.95c-3.3-.91-3.7-.74-7.83 3.55-5.7 5.9-21.74 19.28-23.12 19.28-1.29 0 1.48-3.24 10.27-12 6.08-6.06 9.92-11.42 8.9-12.44-.24-.24-2.77-.74-5.62-1.12l-5.18-.69-4.25 4.67c-7.54 8.3-25.85 22.1-25.85 19.51 0-.6 5.06-6.3 11.25-12.67 6.19-6.38 10.35-11.24 9.25-10.82-1.1.42-4.03 1.43-6.5 2.25-11.95 3.92-28.82 14.03-45.36 27.19-6.85 5.45-7.64 5.85-7.64 3.82 0-1.56 6.1-7.44 15.24-14.7 3.71-2.94 6.59-5.5 6.39-5.7-.68-.69-34.11 1.69-43.2 3.06-7.63 1.16-10.11 2.03-15.67 5.54-6.72 4.25-8.46 5.98-19.56 19.39-3.46 4.18-7.7 8.3-9.4 9.16-3.22 1.6-6.2 2.15-4.27.78.57-.4 4.37-5.23 8.45-10.73 4.08-5.5 9.87-12.38 12.88-15.29 4.14-4 5.2-5.56 4.32-6.43-.88-.88-2.44-.63-6.44 1.03-2.9 1.2-5.98 2.19-6.84 2.19-3.04 0-16.29 5.03-26.73 10.16-5.83 2.86-11.68 5.25-12.99 5.3-1.7.08-7.2 5.04-19.15 17.24-11.72 11.97-18.3 17.9-21.83 19.7a97.57 97.57 0 0 0-8.76 5.07c-2.05 1.4-4.48 2.53-5.4 2.53-.93 0-2.78 1.16-4.12 2.6l-2.42 2.59 6-.65c3.3-.36 9.15-1.3 13-2.08 3.85-.79 15.02-2.78 24.82-4.43 38.56-6.5 72.67-16.37 86.16-24.92 2.7-1.71 5.58-3.11 6.4-3.11 2.13 0-3.21 5.36-9.1 9.14-2.63 1.69-4.78 3.22-4.78 3.4 0 .19 3.49.14 7.75-.1 4.26-.24 11.88-.67 16.94-.94 9.44-.52 15.36-1.6 30.58-5.56 7.86-2.04 8.9-2.12 10-.73.67.85 3.23 1.85 5.68 2.21 2.45.37 4.92 1.02 5.5 1.45 1.18.9 15.5-.9 26.05-3.27 3.85-.86 8.82-1.58 11.04-1.59 6.34-.02 15.32-2.76 23.15-7.06 3.96-2.17 7.46-3.52 7.77-3 .32.5-.89 2.6-2.69 4.65l-3.27 3.72 18-.67c9.9-.37 36.22-1.12 58.5-1.67 50.4-1.23 53.54-1.4 64-3.45 18.62-3.63 23.05-4.73 30.13-7.44 4.05-1.55 8.5-3.17 9.87-3.58l2.5-.76-2.5 1.96c-1.38 1.08-5.43 3.42-9 5.21-9.63 4.82-9.7 5.37-.5 4.44 8.59-.86 11.62-.83 18.2.19 2.75.42 9.57-.26 19.56-1.97 16.67-2.84 18.64-3.32 26.45-6.44 3.3-1.32 5.44-1.71 5.83-1.07 1.06 1.7-1.56 3.87-6.37 5.27-2.5.74-4.72 1.8-4.9 2.35-.93 2.79 26.68 2.4 44.08-.63 15-2.6 16.69-3.01 19.51-4.78 1.88-1.18 2.28-1.2 1.93-.13-.24.74-2.32 2.4-4.62 3.67-6.52 3.63-5.4 4.52 4.58 3.6 4.81-.44 25.02-.68 44.9-.52 23.35.17 36.83-.1 38.07-.76 1.06-.56 7.06-1.77 13.35-2.69 6.28-.91 12.89-2.27 14.68-3 2.72-1.13 3.25-1.13 3.25 0 0 .73-.71 1.6-1.59 1.94-2.9 1.12-.8 3.1 4.17 3.92 2.7.45 18.64 1.3 35.42 1.9l30.5 1.07 14.5-2.61a1659.8 1659.8 0 0 0 18-3.32l3.5-.7-3.25 3.25c-3.83 3.83-4.08 5.1-1 5.11 1.24.01 11.7.68 23.25 1.48 11.55.8 26.12 1.48 32.38 1.49 6.26.01 14.14.47 17.5 1.03 3.37.55 18.72 2.13 34.12 3.5 15.4 1.37 30.7 2.93 34 3.46 9.62 1.54 21.36 2.92 47.5 5.56a6828.5 6828.5 0 0 1 37.5 3.89c7.15.77 19.97 1.93 28.5 2.57 8.52.64 21.8 1.81 29.5 2.6 7.7.8 23 2.32 34 3.37a1049 1049 0 0 1 34.5 3.93 592.43 592.43 0 0 0 47 4.52c4.12.2 14.02 1.08 22 1.98l28.5 3.17c25.23 2.79 25.66 2.93 12.15 3.84-6.51.45-17.2.49-23.75.1-7.15-.44-11.9-.35-11.9.2 0 .51 3.26 2.1 7.25 3.55 3.99 1.44 13.55 4.93 21.25 7.76 7.7 2.84 17.15 6.2 21 7.47 3.85 1.28 13.3 4.64 21 7.46 8 2.94 18.5 5.94 24.5 7.02 13.12 2.35 13.96 2.37 18.32.55zM1188 151.1c1.33-1.3 22.7-14.16 22.98-13.84.13.15-.13 1.22-.57 2.38-.5 1.33-4.53 4.03-10.8 7.25-9.3 4.78-13.92 6.46-11.61 4.21zm236.45-5.45c0-.93 10.76-6.13 21.1-10.19 5.17-2.03 12.84-5.4 17.06-7.48 16.69-8.27 39.56-15.1 49.7-14.87 2.47.06.26.84-6.86 2.44-11.12 2.5-24.07 7.3-40.5 15-20.54 9.63-40.5 17.07-40.5 15.1z"/>
</svg>
