<svg width="1024" height="240" viewBox="0 0 1024 240" xmlns="http://www.w3.org/2000/svg">
  <path fill="#000"
    d="m 353.87746,234.09662 c -0.64593,-1.20692 -0.44167,-1.9737 1.14108,-4.28348 1.9299,-2.81645 2.66608,-4.51554 3.45023,-7.96319 0.34491,-1.51648 0.76334,-2.92841 0.92981,-3.1376 0.16647,-0.20916 0.40437,-1.63028 0.52865,-3.158 0.41655,-5.12023 0.35778,-105.4347 -0.0645,-110.02804 -0.50554,-5.49972 -2.31183,-11.9631 -3.87225,-13.85619 -1.01493,-1.231282 -1.22777,-1.325967 -2.49811,-1.111345 -1.287,0.217424 -1.44619,0.141494 -2.17492,-1.037639 -1.13429,-1.835299 -0.99542,-2.329446 0.97291,-3.462429 0.96756,-0.55693 2.92583,-1.782733 4.35169,-2.724018 4.64456,-3.066082 11.88929,-7.017184 14.58316,-7.95327 2.36724,-0.822608 4.51655,-0.721036 6.00956,0.283976 1.77764,1.196641 2.27005,2.499511 2.47207,6.540983 0.0972,1.945593 0.37188,3.91868 0.61028,4.38462 0.42923,0.838887 0.4622,0.824199 3.3787,-1.505502 3.93827,-3.145886 5.75119,-4.34912 9.05618,-6.010674 3.68497,-1.852566 6.95263,-3.060066 10.03645,-3.708761 2.62572,-0.552319 10.46623,-0.692267 10.15036,-0.181162 -0.0989,0.160119 0.53537,0.398372 1.40961,0.529487 1.68509,0.252691 6.35068,2.501007 9.13788,4.403463 2.26469,1.545847 7.96038,7.45909 9.16463,9.514733 0.537,0.916659 1.67677,2.691052 2.53282,3.943138 1.82851,2.674406 4.1034,8.37121 5.52432,13.83407 1.32751,5.10373 1.40486,10.60458 0.25257,17.96235 -1.82542,11.6558 -5.43946,18.6501 -13.96989,27.03614 -5.11443,5.02787 -9.63481,8.02116 -15.73627,10.42027 l -3.50299,1.37736 -7.49468,0.21211 c -4.12206,0.11665 -7.78861,0.0966 -8.14787,-0.0449 -0.35925,-0.14128 -2.81979,-0.86683 -5.46787,-1.61231 -2.64804,-0.74546 -5.1063,-1.44094 -5.46277,-1.54548 -0.61237,-0.17961 -0.64812,1.08044 -0.64812,22.82697 0,22.27916 -0.0246,23.08988 -0.76486,25.28745 -1.81352,5.3834 -2.69508,6.43703 -14.90606,17.81547 -5.27835,4.91846 -8.90133,7.65454 -10.14856,7.66419 -0.24744,0.002 -0.62242,-0.31888 -0.83329,-0.7129 z m 53.50372,-81.67332 c 1.01848,-0.49702 3.08225,-1.87033 4.58614,-3.05184 2.19871,-1.72737 3.111,-2.77925 4.65728,-5.36978 3.32717,-5.57411 4.36085,-11.51546 3.59556,-20.6665 -0.3267,-3.90657 -0.61502,-5.2406 -1.84646,-8.54311 -2.58302,-6.92716 -4.76841,-10.28913 -10.22518,-15.730063 -8.28347,-8.259478 -14.32963,-10.215815 -21.16793,-6.849333 -1.50581,0.741306 -3.02901,1.914532 -4.37958,3.373316 l -2.07079,2.236696 v 16.957384 c 0,19.09124 -0.092,18.3495 2.98392,24.05211 3.04135,5.63843 6.63399,9.35246 11.73818,12.13476 3.89954,2.12563 4.46343,2.29674 7.68456,2.3318 2.03488,0.0222 2.99081,-0.16617 4.4443,-0.87544 z m 442.77618,74.26614 c -0.64595,-1.20691 -0.4417,-1.97369 1.14102,-4.28346 1.92995,-2.81646 2.66611,-4.51553 3.45027,-7.96318 0.3449,-1.51651 0.82501,-2.99622 1.06683,-3.28825 0.33633,-0.40615 0.41124,-13.86167 0.31856,-57.23029 -0.13297,-62.196778 -0.0395,-59.665279 -2.37285,-64.291678 -1.28469,-2.547252 -2.29429,-3.12816 -3.92231,-2.256886 -0.54706,0.292765 -0.84182,0.233596 -1.26991,-0.254944 -0.89784,-1.02463 -1.82678,-3.07052 -1.62863,-3.586922 0.15814,-0.412076 13.56416,-7.726003 15.61098,-8.516876 4.17611,-1.61361 8.03165,-2.784396 9.17939,-2.787458 3.00278,-0.0068 4.33867,1.98277 4.33867,6.46563 0,2.773947 0.005,2.78959 0.98594,2.78959 0.54224,0 2.25051,-0.74027 3.79617,-1.645022 7.09701,-4.154353 12.14255,-5.695884 19.66154,-6.007007 8.19031,-0.338923 12.86294,1.244321 17.6244,5.971761 4.35508,4.323893 6.42845,9.637143 6.44241,16.509377 0.007,3.888885 -0.67332,6.634035 -2.66172,10.725595 -1.33506,2.74725 -2.09956,3.71389 -6.00469,7.59236 -2.76861,2.74968 -4.87767,5.19609 -5.53133,6.41597 -0.95283,1.7783 -1.04272,2.25052 -0.91622,4.81466 0.20046,4.06476 1.27976,6.08621 7.1185,13.33223 5.54266,6.87858 7.91615,8.8509 11.87591,9.86864 3.07257,0.7897 4.88832,0.70512 7.11456,-0.33144 1.81559,-0.84534 1.94514,-0.85804 2.49993,-0.24499 0.3218,0.3556 0.58513,0.90058 0.58513,1.21108 0,0.9295 -6.60334,7.01334 -10.26345,9.45598 -1.87647,1.25232 -4.50926,2.80074 -5.85061,3.44089 -4.18836,1.99892 -9.32562,2.35038 -12.60004,0.86205 -3.6582,-1.6628 -10.77538,-8.54997 -14.08927,-13.63394 -4.21975,-6.47362 -5.95013,-10.93946 -6.32352,-16.31963 -0.34582,-4.98279 0.0803,-5.74382 7.05168,-12.59131 4.15312,-4.07932 5.81048,-5.96371 6.18903,-7.03678 0.62064,-1.75951 0.64427,-8.36588 0.0397,-11.12016 -0.46123,-2.10129 -4.36793,-9.375733 -5.92146,-11.025972 -2.70778,-2.876298 -7.8423,-5.800041 -10.18574,-5.800041 -2.40456,0 -7.796,2.36547 -9.37511,4.113278 -0.68812,0.76167 -0.70625,2.196269 -0.70625,55.832355 v 55.05056 l -1.24745,2.8924 c -1.59659,3.70194 -2.99797,5.4383 -8.41607,10.42777 -2.42556,2.23368 -6.00469,5.58785 -7.95362,7.45372 -3.23451,3.09667 -6.88632,5.69451 -8.01715,5.70325 -0.24745,0.002 -0.62245,-0.3189 -0.83329,-0.71291 z m -562.24063,-60.7745 c -2.70196,-0.31612 -9.18674,-2.80683 -13.67931,-5.25405 -6.6277,-3.61027 -12.06307,-8.19764 -13.6865,-11.55122 -1.38824,-2.86776 -1.12488,-3.64199 2.72038,-7.99729 3.88211,-4.39707 11.48759,-11.52755 13.28911,-12.45916 0.65748,-0.33999 2.21212,-0.72341 3.45476,-0.85204 2.54306,-0.26322 2.57105,-0.2367 3.49329,3.31153 0.23825,0.91664 1.74451,4.26112 3.34725,7.43221 2.98311,5.90218 4.0526,7.23535 7.56624,9.43165 0.61108,0.38195 1.86104,1.30701 2.77767,2.05564 3.926,3.20639 8.1409,4.61407 13.57587,4.53394 4.48597,-0.0661 5.53337,-0.45767 10.2409,-3.82821 5.56719,-3.98606 7.66368,-7.21058 7.66368,-11.78713 0,-2.30986 -0.17072,-2.91854 -1.6425,-5.85608 -0.90336,-1.80306 -2.25027,-3.98733 -2.99312,-4.85395 -4.22243,-4.92593 -16.40246,-11.52349 -29.14417,-15.78652 -4.84179,-1.61991 -9.44345,-3.44492 -10.43186,-4.13724 -0.42159,-0.29528 -1.02106,-0.53868 -1.33221,-0.54085 -0.76605,-0.005 -9.53356,-4.45399 -11.95354,-6.06516 -5.41312,-3.603946 -10.4747,-8.858039 -11.60931,-12.050859 -0.33114,-0.931799 -0.9158,-2.472109 -1.29925,-3.422929 -1.24851,-3.095806 -1.80281,-6.313682 -1.80747,-10.493058 -0.008,-7.673638 2.71568,-14.777417 8.80575,-22.962189 3.91679,-5.263977 4.63955,-5.978995 9.71365,-9.609539 4.41828,-3.161329 12.49842,-6.872428 18.51002,-8.501393 3.76505,-1.020226 15.32005,-2.443939 19.8352,-2.443939 6.72006,0 12.97414,1.828275 18.86722,5.515539 2.86358,1.791718 3.60239,2.476333 5.2436,4.858875 2.25105,3.267821 2.74186,5.20158 1.79843,7.085494 -0.63355,1.265112 -4.31302,4.597744 -8.69069,7.871501 -1.33392,0.997528 -3.49533,2.793092 -4.80317,3.990145 -2.68079,2.453678 -4.03283,3.026804 -4.63996,1.966815 -1.79176,-3.12824 -5.8034,-8.627842 -7.1726,-9.833081 -3.62968,-3.194962 -9.62384,-6.267897 -13.59138,-6.967632 -2.13347,-0.376272 -6.69095,-0.293212 -8.77306,0.159891 -4.55064,0.990303 -10.47518,4.3994 -13.68596,7.875184 -4.14035,4.482 -5.2255,8.876698 -3.67187,14.870322 1.5058,5.809118 3.37035,7.455136 15.0732,13.306573 4.86228,2.431132 10.09046,4.919447 11.61819,5.52958 1.52774,0.610145 3.94433,1.639374 5.37021,2.2872 1.42588,0.647804 4.89789,1.991841 7.7156,2.986782 5.36177,1.893195 15.69416,6.313748 17.28357,7.394468 0.50925,0.34626 2.25918,1.43731 3.88874,2.42455 4.11301,2.49179 9.64694,7.91519 11.18283,10.9595 3.52332,6.98361 4.88236,17.51771 3.03299,23.5091 -4.65372,15.07646 -19.56899,24.92623 -40.87824,26.99523 -3.05729,0.29686 -6.97534,0.70583 -8.70678,0.90885 -3.55675,0.41705 -8.27438,0.41425 -11.8754,-0.006 z m 689.81597,-0.99263 c -19.21319,-1.69056 -33.38038,-15.2888 -38.04549,-36.51752 -0.74618,-3.3954 -0.82865,-4.77498 -0.82346,-13.77301 0.005,-9.50791 0.0562,-10.2359 1.03065,-14.802925 1.57316,-7.37333 2.1787,-8.396813 7.67351,-12.970171 8.67413,-7.219462 19.06555,-12.219109 28.16058,-13.548988 3.45906,-0.505763 8.58875,-0.296653 10.07778,0.410826 0.57024,0.270944 3.05342,2.887591 5.51819,5.814791 4.99098,5.927323 8.12416,8.930427 9.63984,9.23971 2.0906,0.426555 2.0599,1.109306 -0.1436,3.192924 -3.92719,3.713689 -12.39269,6.923607 -18.25969,6.923607 -5.09565,0 -10.89286,-2.696728 -17.41372,-8.100412 -1.01475,-0.84089 -2.12489,-1.528912 -2.46698,-1.528912 -0.34211,0 -1.04934,0.507896 -1.5717,1.128651 -3.43889,4.086892 -3.54288,19.009839 -0.20761,29.796259 3.72225,12.03796 13.28529,21.35205 25.29885,24.64027 5.22579,1.43033 12.91358,1.5178 17.41125,0.19808 5.2788,-1.54896 11.3324,-6.90702 15.5995,-13.80729 2.3705,-3.83334 2.6411,-4.13641 3.5075,-3.93015 0.5163,0.12292 1.0464,0.28279 1.1779,0.35529 0.6522,0.35987 -1.8947,7.77707 -3.9725,11.56859 -1.581,2.8851 -6.4403,9.65737 -8.3003,11.56789 -4.4857,4.60775 -14.37364,10.89191 -19.63173,12.47674 -3.53657,1.06595 -11.07152,1.94622 -14.25877,1.66575 z m -429.28885,-1.029 c -6.12197,-1.41302 -9.39444,-3.51314 -13.07982,-8.39408 -2.5364,-3.35921 -3.59196,-6.15906 -4.09744,-10.86846 -0.17491,-1.62958 -0.33342,-21.11343 -0.35226,-43.29744 -0.0328,-38.537153 -0.0681,-40.57544 -0.79258,-45.739223 -0.88085,-6.27765 -1.69978,-9.97255 -3.27789,-14.789576 -0.62329,-1.902575 -1.13327,-3.763692 -1.13327,-4.135836 0,-0.372133 -0.33333,-1.454216 -0.74071,-2.404629 -0.83635,-1.951104 -0.97098,-4.578523 -0.27778,-5.420671 0.80858,-0.982297 4.12776,-3.144304 9.03587,-5.885675 2.618,-1.462244 6.67658,-3.868694 9.0191,-5.347668 5.60679,-3.539918 7.84542,-4.641576 9.43182,-4.641576 h 1.30856 v 2.54223 c 0,1.398226 -0.36703,6.856378 -0.81565,12.129231 -0.779,9.156087 -0.81645,11.509692 -0.8333,52.36334 -0.0186,45.135123 -0.0319,44.732583 1.69212,51.109433 1.01516,3.75469 1.76178,5.32983 3.80915,8.03583 2.19037,2.89504 5.14698,4.88416 9.23768,6.21484 3.58524,1.16627 4.96681,1.1355 7.74521,-0.17242 l 1.76178,-0.82935 1.29367,0.98672 c 0.71154,0.54272 1.29371,1.12201 1.29371,1.28734 0,0.94614 -8.88659,10.01415 -13.1787,13.44771 -4.25375,3.40289 -6.28055,4.30274 -10.15388,4.50801 -2.43452,0.12903 -3.99742,-0.0292 -6.89539,-0.69808 z m 50.73907,0 c -6.12197,-1.41302 -9.39443,-3.51314 -13.07983,-8.39408 -2.53641,-3.35921 -3.59196,-6.15906 -4.09744,-10.86846 -0.17492,-1.62958 -0.33341,-21.11343 -0.35226,-43.29744 -0.0329,-38.537153 -0.0681,-40.57544 -0.79259,-45.739223 -0.88083,-6.27765 -1.69973,-9.97255 -3.27785,-14.789576 -0.62333,-1.902575 -1.13331,-3.763692 -1.13331,-4.135836 0,-0.372133 -0.33331,-1.454216 -0.74071,-2.404629 -0.83633,-1.951104 -0.97097,-4.578523 -0.27776,-5.420671 0.80857,-0.982297 4.12777,-3.144304 9.03587,-5.885675 2.618,-1.462244 6.67659,-3.868694 9.01909,-5.347668 5.60682,-3.539918 7.84541,-4.641576 9.43181,-4.641576 h 1.30858 v 2.54223 c 0,1.398226 -0.36705,6.856378 -0.81566,12.129231 -0.77899,9.156087 -0.81645,11.509692 -0.83331,52.36334 -0.0185,45.135123 -0.0317,44.732583 1.69214,51.109433 1.01513,3.75469 1.76179,5.32983 3.80914,8.03583 2.19037,2.89504 5.14698,4.88416 9.23768,6.21484 3.58526,1.16627 4.96682,1.1355 7.74522,-0.17242 l 1.76178,-0.82935 1.29366,0.98672 c 0.71155,0.54272 1.2937,1.12201 1.2937,1.28734 0,0.94614 -8.88658,10.01415 -13.17869,13.44771 -4.25374,3.40289 -6.28057,4.30274 -10.15388,4.50801 -2.4345,0.12903 -3.99739,-0.0292 -6.89538,-0.69808 z m 56.57184,0.37572 c -10.5327,-2.39464 -20.39713,-13.12381 -22.81116,-24.81082 -0.91309,-4.42058 -0.7266,-7.60697 0.93809,-16.02709 0.82936,-4.19506 1.74275,-9.39102 2.02973,-11.54659 0.66489,-4.99392 0.66793,-11.977288 0.006,-13.832245 -1.37481,-3.853029 -5.96988,-9.53077 -7.71338,-9.53077 -1.07839,0 -1.96103,-0.896388 -2.55207,-2.591861 -0.41404,-1.187717 -0.37517,-1.297344 0.81151,-2.28802 2.36321,-1.972891 10.80812,-7.417983 13.44839,-8.671206 5.33686,-2.533191 9.27864,-2.058302 13.22246,1.592969 1.62535,1.504769 2.60025,2.839735 3.69304,5.056933 3.4568,7.013639 3.42726,12.572983 -0.16392,30.844 -2.10214,10.69524 -2.55886,14.1576 -2.23762,16.96313 0.29926,2.6134 1.4759,6.05996 2.89627,8.48367 2.08793,3.56278 6.97907,7.52538 11.29267,9.14889 4.04179,1.52118 7.97361,0.28238 9.76861,-3.07779 0.8398,-1.5721 0.84071,-1.59277 0.95192,-21.57294 0.10645,-19.12803 0.0766,-20.19298 -0.68714,-24.443639 -0.74402,-4.141276 -2.75446,-9.933927 -4.26943,-12.301378 -1.1072,-1.730178 -0.34605,-4.171555 1.81424,-5.819286 1.48064,-1.129348 6.63154,-3.568452 9.69748,-4.592061 2.58498,-0.863009 6.87039,-2.604789 7.40717,-3.010566 1.45232,-1.097897 4.58172,-0.153908 6.04328,1.822965 1.60063,2.164969 1.63394,3.033252 1.35858,35.420755 -0.25988,30.56859 -0.25644,30.79088 0.50204,32.50554 0.94083,2.12693 3.87004,5.03937 6.24393,6.20824 1.45375,0.71577 2.36166,0.8752 4.98381,0.8752 3.02911,0 3.28489,-0.0633 4.62948,-1.14416 2.63835,-2.12111 3.18369,-3.64109 3.50074,-9.75752 0.15376,-2.96672 0.30468,-13.22713 0.33532,-22.8009 l 0.0557,-17.406829 -1.88619,-5.798072 c -1.0374,-3.188951 -2.13347,-6.272167 -2.43569,-6.851626 -0.59683,-1.144359 -0.70055,-2.286859 -0.26918,-2.964862 0.67296,-1.057692 15.01686,-9.041395 17.5585,-9.772938 1.37384,-0.395407 3.94143,0.249796 5.38958,1.354364 2.62853,2.004899 2.45599,-0.168766 2.77505,34.958703 0.15818,17.41608 0.37788,32.35227 0.48819,33.19154 0.33012,2.51148 2.07934,4.8533 4.42854,5.92878 1.67396,0.76637 2.62501,0.93235 5.51012,0.96155 2.9478,0.0296 3.69663,-0.0884 4.84283,-0.76466 0.74571,-0.43998 1.57906,-0.79997 1.85185,-0.79997 0.52624,0 2.79489,2.39137 2.79489,2.94606 0,0.31996 -2.39751,2.67594 -5.37019,5.27716 -3.06764,2.68433 -7.87974,6.00512 -10.7404,7.4119 -2.76755,1.36097 -3.13479,1.44697 -5.57116,1.30456 -2.13625,-0.12488 -3.10815,-0.41372 -5.37019,-1.59607 -2.9516,-1.54274 -7.54917,-5.73493 -8.67308,-7.90833 l -0.61877,-1.19656 -1.04832,0.862 c -0.57657,0.47409 -2.18346,1.82204 -3.57086,2.99546 -8.31068,7.02883 -16.98419,8.98969 -25.56439,5.77942 -4.21466,-1.57689 -8.97745,-5.49036 -11.65551,-9.57703 l -0.59284,-0.90468 -3.11074,2.86981 c -3.85524,3.55665 -8.22862,6.50834 -11.62898,7.84864 -3.2168,1.26795 -8.95843,1.60546 -12.72888,0.74823 z m 138.50613,0.13268 c -5.60964,-0.51728 -10.82851,-2.5477 -17.11621,-6.65911 -4.51638,-2.95315 -6.08159,-4.49441 -9.42197,-9.2778 -3.96295,-5.67493 -6.18766,-10.50388 -7.82345,-16.98174 -1.15039,-4.55565 -1.35677,-5.98812 -1.36059,-9.44413 -0.0118,-10.68504 4.18285,-23.786156 10.01473,-31.278589 2.11243,-2.713929 6.3596,-6.461107 10.59255,-9.34558 2.54188,-1.732105 9.08654,-5.107293 9.91211,-5.111862 0.31811,-0.002 1.81807,-0.323986 3.33322,-0.716068 6.64415,-1.719298 17.98895,-1.901116 23.92313,-0.383394 6.83144,1.747169 14.32597,7.771315 19.56374,15.725412 3.39849,5.160914 4.48944,7.329173 5.77678,11.481111 4.03768,13.02232 4.21238,23.55953 0.52242,31.50974 -0.86878,1.87182 -2.27697,4.59736 -3.12925,6.05675 -2.26909,3.88517 -8.45517,11.45904 -10.7787,13.19677 -6.0413,4.51821 -12.97068,8.15596 -19.04151,9.99634 -4.59284,1.39232 -9.15613,1.768 -14.967,1.23215 z m 23.09212,-17.65004 c 2.19994,-1.20921 3.92481,-3.36756 5.01073,-6.26999 2.31938,-6.19904 2.67517,-10.23591 1.49966,-17.01457 -0.94137,-5.4284 -2.01721,-8.38774 -5.43366,-14.94626 -6.95341,-13.348337 -16.4389,-20.573466 -27.35755,-20.838349 -4.47639,-0.108539 -6.41476,1.107325 -9.6034,6.024045 -2.09771,3.234544 -2.99087,5.47395 -3.76703,9.445134 -1.33617,6.83654 -0.61706,14.08433 1.89231,19.07242 1.50664,2.99486 4.74109,8.28581 5.98675,9.79321 1.85185,2.241 8.87515,8.51382 11.27491,10.07016 2.76019,1.79008 5.08721,2.78907 9.40115,4.03586 6.73145,1.94549 8.51603,2.04654 11.09613,0.62834 z m -335.34468,16.97198 c -7.3691,-1.5664 -13.38239,-4.85867 -18.93847,-10.36878 -5.74091,-5.69341 -9.35236,-11.97944 -11.78717,-20.51675 -1.61785,-5.67266 -2.01288,-8.97367 -2.00142,-16.72493 0.0193,-13.06611 2.30987,-19.98965 9.04514,-27.340009 3.94534,-4.305648 13.38477,-9.996274 20.65437,-12.451626 12.93076,-4.367445 25.86668,-0.755325 33.08034,9.237098 3.44985,4.778782 5.03105,14.495217 3.10789,19.097997 -0.85785,2.05307 -5.09718,4.9814 -11.12435,7.68421 -2.03699,0.91344 -5.64301,2.65387 -8.0134,3.86765 -2.3704,1.21378 -6.70359,3.16307 -9.62931,4.3317 -2.92573,1.16868 -7.09407,2.96382 -9.263,3.98923 l -3.94351,1.86437 1.11265,1.88706 c 5.2644,8.92847 12.51699,14.32965 22.72459,16.92356 8.71249,2.21397 20.62181,0.12652 26.91777,-4.7181 1.17177,-0.90167 2.1305,-1.56919 2.1305,-1.4834 0,0.0859 -0.84579,1.67588 -1.87952,3.53355 -1.53446,2.75746 -2.56115,4.02059 -5.59263,6.8803 -4.32113,4.07633 -12.62441,9.95621 -17.04165,12.06784 -6.18839,2.95832 -12.67925,3.70138 -19.55882,2.23903 z m -1.23241,-48.09695 c 6.57159,-3.15762 8.30947,-4.33744 9.76128,-6.62671 1.37779,-2.17252 1.83646,-3.7783 1.83911,-6.43859 0.003,-4.16785 -1.23462,-6.419268 -5.12121,-9.307682 -3.09504,-2.300138 -4.96039,-2.968641 -8.85129,-3.172166 -3.22897,-0.168889 -3.514,-0.122949 -4.89148,0.788637 -1.62246,1.073699 -3.0499,3.252464 -3.9412,6.01567 -0.8658,2.68416 -1.0704,10.554511 -0.40304,15.504011 0.51985,3.85542 0.60742,4.10573 1.78619,5.10584 1.81681,1.54141 3.31868,1.25562 9.82164,-1.86901 z"
    id="path2" />
  <g id="g2" transform="matrix(0.12559493,0,0,0.12559493,38.808833,50.489162)">
    <path fill="#f69a1f"
      d="m 467.91,-402 c -60.88,117.2 -146.52,187.31 -202,283.78 C 147.18,-114.42 81.94,-55.15 56.29,40.16 -11.56,-0.49 -98.65,54.3 -309,46.56 c 71.06,111.31 88.95,220.54 144.75,316.82 -56.06,104.72 -37.34,190.86 32.36,260.73 -69.13,38.43 -65.22,141.24 -177.11,319.54 131.94,-5.87 235.48,33.24 346.77,33.06 62.65,100.9 146.6,127.78 241.97,102.33 -1.28,79.09 89.7,127.11 188.17,313.16 60.88,-117.2 146.53,-187.31 202.02,-283.78 118.71,-3.8 183.95,-63.07 209.6,-158.38 67.85,40.65 154.94,-14.14 365.29,-6.4 -71.06,-111.32 -88.95,-220.54 -144.75,-316.83 56.06,-104.71 37.35,-190.85 -32.36,-260.72 69.13,-38.43 65.22,-141.24 177.11,-319.54 C 1112.88,52.42 1009.35,13.31 898.06,13.49 835.41,-87.41 751.46,-114.29 656.09,-88.84 657.37,-167.93 566.39,-215.95 467.92,-402 Z" />
    <path fill="#483a5d"
      d="m 467.91,-203.49 c 49.06,84.97 117.47,139.35 78.24,260.29 99.12,-72.84 187.54,-71.08 225.71,-23.38 -28.32,9.28 -57.74,22.23 -88.77,40.15 -197.63,114.1 -216.36,334.85 -187.13,345.65 29.22,10.8 97.35,-164.78 243,-248.87 126.6,-73.1 228.2,-19.74 333.95,-24.54 -49.06,84.96 -61.95,171.4 -186.3,197.89 112.64,49.42 155.33,126.87 133.1,183.78 -22.2,-19.88 -48.12,-38.88 -79.16,-56.8 -197.63,-114.1 -398.16,-19.95 -392.9,10.77 5.26,30.71 191.38,1.92 337.03,86.01 126.6,73.1 131.19,187.75 188.23,276.93 -98.11,0 -179.42,32.06 -264.53,-62.39 13.52,122.26 -32.22,197.95 -92.62,207.16 6.12,-29.16 9.61,-61.11 9.61,-96.95 0,-228.2 -181.8,-354.8 -205.76,-334.88 -23.97,19.91 94.02,166.7 94.02,334.88 0,146.2 -97,207.49 -145.72,301.48 -49.05,-84.97 -117.47,-139.35 -78.23,-260.29 -99.12,72.84 -187.54,71.08 -225.72,23.38 28.32,-9.28 57.74,-22.24 88.77,-40.15 197.63,-114.1 216.36,-334.85 187.14,-345.65 -29.23,-10.8 -97.36,164.78 -243,248.87 -126.62,73.1 -228.2,19.74 -333.96,24.54 49.06,-84.96 61.95,-171.4 186.3,-197.89 -112.64,-49.42 -155.33,-126.87 -133.1,-183.78 22.2,19.88 48.12,38.88 79.16,56.8 197.63,114.1 398.16,19.95 392.9,-10.77 -5.26,-30.71 -191.38,-1.92 -337.03,-86.01 -126.6,-73.1 -131.19,-187.75 -188.23,-276.94 98.11,0 179.42,-32.06 264.53,62.39 C 113.92,85.92 159.66,10.23 220.06,1.03 c -6.12,29.16 -9.6,61.11 -9.6,96.95 0,228.2 181.8,354.8 205.76,334.88 23.97,-19.91 -94.02,-166.7 -94.02,-334.88 0,-146.2 97,-207.49 145.72,-301.48 z" />
  </g>
</svg>